%TF.GenerationSoftware,KiCad,Pcbnew,8.0.4*%
%TF.CreationDate,2024-12-06T19:36:15+01:00*%
%TF.ProjectId,MusicControllerV3,4d757369-6343-46f6-9e74-726f6c6c6572,rev?*%
%TF.SameCoordinates,Original*%
%TF.FileFunction,Soldermask,Top*%
%TF.FilePolarity,Negative*%
%FSLAX46Y46*%
G04 Gerber Fmt 4.6, Leading zero omitted, Abs format (unit mm)*
G04 Created by KiCad (PCBNEW 8.0.4) date 2024-12-06 19:36:15*
%MOMM*%
%LPD*%
G01*
G04 APERTURE LIST*
G04 Aperture macros list*
%AMRoundRect*
0 Rectangle with rounded corners*
0 $1 Rounding radius*
0 $2 $3 $4 $5 $6 $7 $8 $9 X,Y pos of 4 corners*
0 Add a 4 corners polygon primitive as box body*
4,1,4,$2,$3,$4,$5,$6,$7,$8,$9,$2,$3,0*
0 Add four circle primitives for the rounded corners*
1,1,$1+$1,$2,$3*
1,1,$1+$1,$4,$5*
1,1,$1+$1,$6,$7*
1,1,$1+$1,$8,$9*
0 Add four rect primitives between the rounded corners*
20,1,$1+$1,$2,$3,$4,$5,0*
20,1,$1+$1,$4,$5,$6,$7,0*
20,1,$1+$1,$6,$7,$8,$9,0*
20,1,$1+$1,$8,$9,$2,$3,0*%
G04 Aperture macros list end*
%ADD10RoundRect,0.160000X-0.197500X-0.160000X0.197500X-0.160000X0.197500X0.160000X-0.197500X0.160000X0*%
%ADD11R,1.500000X0.900000*%
%ADD12C,2.000000*%
%ADD13RoundRect,0.160000X0.160000X-0.197500X0.160000X0.197500X-0.160000X0.197500X-0.160000X-0.197500X0*%
%ADD14R,1.700000X1.700000*%
%ADD15O,1.700000X1.700000*%
%ADD16RoundRect,0.160000X0.197500X0.160000X-0.197500X0.160000X-0.197500X-0.160000X0.197500X-0.160000X0*%
%ADD17R,2.000000X2.000000*%
%ADD18R,3.200000X2.000000*%
%ADD19C,0.650000*%
%ADD20O,1.000000X1.600000*%
%ADD21O,1.000000X2.100000*%
G04 APERTURE END LIST*
D10*
%TO.C,R5*%
X179742500Y-65405000D03*
X180937500Y-65405000D03*
%TD*%
D11*
%TO.C,D1*%
X154585000Y-39305000D03*
X154585000Y-40705000D03*
X151485000Y-39305000D03*
X151485000Y-40705000D03*
%TD*%
D12*
%TO.C,SW3*%
X170000000Y-61000000D03*
X176500000Y-61000000D03*
X170000000Y-65500000D03*
X176500000Y-65500000D03*
%TD*%
%TO.C,SW1*%
X130000000Y-61000000D03*
X136500000Y-61000000D03*
X130000000Y-65500000D03*
X136500000Y-65500000D03*
%TD*%
%TO.C,SW2*%
X150000000Y-61000000D03*
X156500000Y-61000000D03*
X150000000Y-65500000D03*
X156500000Y-65500000D03*
%TD*%
D13*
%TO.C,R9*%
X152400000Y-36792500D03*
X152400000Y-35597500D03*
%TD*%
D12*
%TO.C,SW4*%
X170000000Y-48550000D03*
X176500000Y-48550000D03*
X170000000Y-53050000D03*
X176500000Y-53050000D03*
%TD*%
D14*
%TO.C,J2*%
X130810000Y-29845000D03*
D15*
X133350000Y-29845000D03*
X135890000Y-29845000D03*
X138430000Y-29845000D03*
%TD*%
D16*
%TO.C,R4*%
X147955000Y-65405000D03*
X146760000Y-65405000D03*
%TD*%
D17*
%TO.C,SW5*%
X170000000Y-33100000D03*
D12*
X170000000Y-38100000D03*
X170000000Y-35600000D03*
D18*
X177500000Y-30000000D03*
X177500000Y-41200000D03*
D12*
X184500000Y-38100000D03*
X184500000Y-33100000D03*
%TD*%
D19*
%TO.C,J1*%
X150110000Y-32445000D03*
X155890000Y-32445000D03*
D20*
X148680000Y-28795000D03*
D21*
X148680000Y-32975000D03*
D20*
X157320000Y-28795000D03*
D21*
X157320000Y-32975000D03*
%TD*%
D12*
%TO.C,SW2*%
X137235000Y-37755000D03*
X130735000Y-37755000D03*
X137235000Y-42255000D03*
X130735000Y-42255000D03*
%TD*%
M02*
