%TF.GenerationSoftware,KiCad,Pcbnew,8.0.4*%
%TF.CreationDate,2024-12-06T19:36:14+01:00*%
%TF.ProjectId,MusicControllerV3,4d757369-6343-46f6-9e74-726f6c6c6572,rev?*%
%TF.SameCoordinates,Original*%
%TF.FileFunction,Copper,L1,Top*%
%TF.FilePolarity,Positive*%
%FSLAX46Y46*%
G04 Gerber Fmt 4.6, Leading zero omitted, Abs format (unit mm)*
G04 Created by KiCad (PCBNEW 8.0.4) date 2024-12-06 19:36:14*
%MOMM*%
%LPD*%
G01*
G04 APERTURE LIST*
G04 Aperture macros list*
%AMRoundRect*
0 Rectangle with rounded corners*
0 $1 Rounding radius*
0 $2 $3 $4 $5 $6 $7 $8 $9 X,Y pos of 4 corners*
0 Add a 4 corners polygon primitive as box body*
4,1,4,$2,$3,$4,$5,$6,$7,$8,$9,$2,$3,0*
0 Add four circle primitives for the rounded corners*
1,1,$1+$1,$2,$3*
1,1,$1+$1,$4,$5*
1,1,$1+$1,$6,$7*
1,1,$1+$1,$8,$9*
0 Add four rect primitives between the rounded corners*
20,1,$1+$1,$2,$3,$4,$5,0*
20,1,$1+$1,$4,$5,$6,$7,0*
20,1,$1+$1,$6,$7,$8,$9,0*
20,1,$1+$1,$8,$9,$2,$3,0*%
G04 Aperture macros list end*
%TA.AperFunction,SMDPad,CuDef*%
%ADD10RoundRect,0.160000X-0.197500X-0.160000X0.197500X-0.160000X0.197500X0.160000X-0.197500X0.160000X0*%
%TD*%
%TA.AperFunction,SMDPad,CuDef*%
%ADD11R,1.500000X0.900000*%
%TD*%
%TA.AperFunction,ComponentPad*%
%ADD12C,2.000000*%
%TD*%
%TA.AperFunction,SMDPad,CuDef*%
%ADD13RoundRect,0.160000X0.160000X-0.197500X0.160000X0.197500X-0.160000X0.197500X-0.160000X-0.197500X0*%
%TD*%
%TA.AperFunction,ComponentPad*%
%ADD14R,1.700000X1.700000*%
%TD*%
%TA.AperFunction,ComponentPad*%
%ADD15O,1.700000X1.700000*%
%TD*%
%TA.AperFunction,SMDPad,CuDef*%
%ADD16RoundRect,0.160000X0.197500X0.160000X-0.197500X0.160000X-0.197500X-0.160000X0.197500X-0.160000X0*%
%TD*%
%TA.AperFunction,ComponentPad*%
%ADD17R,2.000000X2.000000*%
%TD*%
%TA.AperFunction,ComponentPad*%
%ADD18R,3.200000X2.000000*%
%TD*%
%TA.AperFunction,HeatsinkPad*%
%ADD19C,0.600000*%
%TD*%
%TA.AperFunction,ComponentPad*%
%ADD20O,1.000000X1.600000*%
%TD*%
%TA.AperFunction,ComponentPad*%
%ADD21O,1.000000X2.100000*%
%TD*%
%TA.AperFunction,ViaPad*%
%ADD22C,0.800000*%
%TD*%
%TA.AperFunction,Conductor*%
%ADD23C,0.250000*%
%TD*%
G04 APERTURE END LIST*
D10*
%TO.P,R5,1*%
%TO.N,/Button3*%
X179742500Y-65405000D03*
%TO.P,R5,2*%
%TO.N,+3.3V*%
X180937500Y-65405000D03*
%TD*%
D11*
%TO.P,D1,1,RK*%
%TO.N,Net-(D1-RK)*%
X154585000Y-39305000D03*
%TO.P,D1,2,GK*%
%TO.N,Net-(D1-GK)*%
X154585000Y-40705000D03*
%TO.P,D1,3,BK*%
%TO.N,Net-(D1-BK)*%
X151485000Y-39305000D03*
%TO.P,D1,4,A*%
%TO.N,+3.3V*%
X151485000Y-40705000D03*
%TD*%
D12*
%TO.P,SW3,1,A*%
%TO.N,GND*%
X170000000Y-61000000D03*
X176500000Y-61000000D03*
%TO.P,SW3,2,B*%
%TO.N,/Button3*%
X170000000Y-65500000D03*
X176500000Y-65500000D03*
%TD*%
%TO.P,SW1,1,A*%
%TO.N,GND*%
X130000000Y-61000000D03*
X136500000Y-61000000D03*
%TO.P,SW1,2,B*%
%TO.N,/Button1*%
X130000000Y-65500000D03*
X136500000Y-65500000D03*
%TD*%
%TO.P,SW2,1,A*%
%TO.N,GND*%
X150000000Y-61000000D03*
X156500000Y-61000000D03*
%TO.P,SW2,2,B*%
%TO.N,/Button2*%
X150000000Y-65500000D03*
X156500000Y-65500000D03*
%TD*%
D13*
%TO.P,R9,1*%
%TO.N,Net-(D1-BK)*%
X152400000Y-36792500D03*
%TO.P,R9,2*%
%TO.N,/LED_B*%
X152400000Y-35597500D03*
%TD*%
D12*
%TO.P,SW4,1,A*%
%TO.N,GND*%
X170000000Y-48550000D03*
X176500000Y-48550000D03*
%TO.P,SW4,2,B*%
%TO.N,/Button4*%
X170000000Y-53050000D03*
X176500000Y-53050000D03*
%TD*%
D14*
%TO.P,J2,1,Pin_1*%
%TO.N,GND*%
X130810000Y-29845000D03*
D15*
%TO.P,J2,2,Pin_2*%
%TO.N,+3.3V*%
X133350000Y-29845000D03*
%TO.P,J2,3,Pin_3*%
%TO.N,/SCL*%
X135890000Y-29845000D03*
%TO.P,J2,4,Pin_4*%
%TO.N,/SDA*%
X138430000Y-29845000D03*
%TD*%
D16*
%TO.P,R4,1*%
%TO.N,/Button2*%
X147955000Y-65405000D03*
%TO.P,R4,2*%
%TO.N,+3.3V*%
X146760000Y-65405000D03*
%TD*%
D17*
%TO.P,SW5,A,A*%
%TO.N,/RotaryCLK*%
X170000000Y-33100000D03*
D12*
%TO.P,SW5,B,B*%
%TO.N,/RotaryDT*%
X170000000Y-38100000D03*
%TO.P,SW5,C,C*%
%TO.N,GND*%
X170000000Y-35600000D03*
D18*
%TO.P,SW5,MP*%
%TO.N,N/C*%
X177500000Y-30000000D03*
X177500000Y-41200000D03*
D12*
%TO.P,SW5,S1,S1*%
%TO.N,+3.3V*%
X184500000Y-38100000D03*
%TO.P,SW5,S2,S2*%
%TO.N,/RotaryEncoderSwitch*%
X184500000Y-33100000D03*
%TD*%
D19*
%TO.P,U4,39,GND*%
%TO.N,GND*%
X151900000Y-59755000D03*
X151900000Y-61155000D03*
X152600000Y-59055000D03*
X152600000Y-60455000D03*
X152600000Y-61855000D03*
X153275000Y-59755000D03*
X153275000Y-61155000D03*
X154000000Y-59055000D03*
X154000000Y-60455000D03*
X154000000Y-61855000D03*
X154700000Y-59755000D03*
X154700000Y-61155000D03*
%TD*%
D20*
%TO.P,J1,S1,SHIELD*%
%TO.N,GND*%
X148680000Y-28795000D03*
D21*
X148680000Y-32975000D03*
D20*
X157320000Y-28795000D03*
D21*
X157320000Y-32975000D03*
%TD*%
D12*
%TO.P,SW2,1,1*%
%TO.N,Net-(U1-SPIHD{slash}GPIO12)*%
X137235000Y-37755000D03*
X130735000Y-37755000D03*
%TO.P,SW2,2,2*%
%TO.N,Net-(U1-VDD_SPI{slash}GPIO11)*%
X137235000Y-42255000D03*
X130735000Y-42255000D03*
%TD*%
D22*
%TO.N,+5V*%
X162900384Y-40588683D03*
X162560000Y-35560000D03*
X158298297Y-44116861D03*
X150360000Y-45085000D03*
X158115000Y-41910000D03*
%TO.N,GND*%
X167005000Y-38100000D03*
X146685000Y-39370000D03*
X161624643Y-40332393D03*
X161925000Y-38100000D03*
%TO.N,+3.3V*%
X182245000Y-65405000D03*
X149787443Y-47199449D03*
X144145000Y-65405000D03*
X160020000Y-30480000D03*
X149860000Y-40640000D03*
%TO.N,/EN*%
X144145000Y-64135000D03*
X153670000Y-48895000D03*
%TO.N,Net-(J1-D--PadA7)*%
X152400000Y-30645000D03*
X160655000Y-34290000D03*
%TO.N,Net-(J1-D+-PadA6)*%
X154305000Y-32385000D03*
X164375000Y-42545000D03*
X152400000Y-31750000D03*
%TO.N,/SDA*%
X167640000Y-52070000D03*
%TO.N,/SCL*%
X165735000Y-67310000D03*
%TO.N,/DTR*%
X153753348Y-45982954D03*
X157570000Y-36986739D03*
%TO.N,/RTS*%
X144870000Y-48895000D03*
X146685000Y-44450000D03*
%TO.N,/IO0*%
X154924780Y-46332822D03*
X163830000Y-48895000D03*
%TO.N,Net-(U3-TXD)*%
X167640000Y-64770000D03*
X154305000Y-35560000D03*
%TO.N,/TX*%
X165735000Y-63500000D03*
X150677653Y-36377653D03*
%TO.N,/LED_R*%
X150226142Y-48961689D03*
X147320000Y-48961689D03*
%TO.N,/LED_B*%
X159385000Y-48895000D03*
%TO.N,/Button1*%
X165735000Y-68580000D03*
%TO.N,/Button2*%
X144145000Y-58420000D03*
%TO.N,/Button3*%
X144145000Y-55880000D03*
%TO.N,/Button4*%
X144145000Y-54610000D03*
%TO.N,/RotaryEncoderSwitch*%
X167640000Y-50165000D03*
%TO.N,/RotaryCLK*%
X166370000Y-46355000D03*
%TO.N,/RotaryDT*%
X166370000Y-47625000D03*
%TO.N,Net-(U3-D+)*%
X160144059Y-37145000D03*
X163625383Y-41820000D03*
%TO.N,Net-(D1-GK)*%
X144145000Y-50165000D03*
%TO.N,Net-(D1-RK)*%
X148969255Y-46624495D03*
%TD*%
D23*
%TO.N,Net-(U1-VDD_SPI{slash}GPIO11)*%
X137235000Y-42255000D02*
X130735000Y-42255000D01*
%TO.N,Net-(U1-SPIHD{slash}GPIO12)*%
X137235000Y-37755000D02*
X130735000Y-37755000D01*
%TO.N,+5V*%
X157330158Y-45085000D02*
X158298297Y-44116861D01*
X158115000Y-43933564D02*
X158298297Y-44116861D01*
X158115000Y-41910000D02*
X158115000Y-43933564D01*
X150360000Y-45085000D02*
X157330158Y-45085000D01*
X162900384Y-35900384D02*
X162900384Y-40588683D01*
X162560000Y-35560000D02*
X162900384Y-35900384D01*
%TO.N,+3.3V*%
X140970000Y-54610000D02*
X140970000Y-62230000D01*
X159385000Y-29845000D02*
X160020000Y-30480000D01*
X145595000Y-48806396D02*
X145595000Y-49985000D01*
X151185000Y-40705000D02*
X150410000Y-39930000D01*
X140970000Y-62230000D02*
X144145000Y-65405000D01*
X151402653Y-36077348D02*
X151130000Y-35804695D01*
X180937500Y-65405000D02*
X182245000Y-65405000D01*
X145595000Y-49985000D02*
X140970000Y-54610000D01*
X151130000Y-30480000D02*
X151765000Y-29845000D01*
X149787443Y-47199449D02*
X149361892Y-47625000D01*
X151402653Y-36677958D02*
X151402653Y-36077348D01*
X157661726Y-29920000D02*
X157736726Y-29845000D01*
X157736726Y-29845000D02*
X159385000Y-29845000D01*
X151765000Y-29845000D02*
X156903274Y-29845000D01*
X150410000Y-37670611D02*
X151402653Y-36677958D01*
X146776396Y-47625000D02*
X145595000Y-48806396D01*
X151130000Y-35804695D02*
X151130000Y-30480000D01*
X144145000Y-65405000D02*
X146760000Y-65405000D01*
X151485000Y-40705000D02*
X149925000Y-40705000D01*
X149361892Y-47625000D02*
X146776396Y-47625000D01*
X156903274Y-29845000D02*
X156978274Y-29920000D01*
X156978274Y-29920000D02*
X157661726Y-29920000D01*
X149925000Y-40705000D02*
X149860000Y-40640000D01*
X150410000Y-39930000D02*
X150410000Y-37670611D01*
X151485000Y-40705000D02*
X151185000Y-40705000D01*
%TO.N,/EN*%
X152850000Y-49715000D02*
X153670000Y-48895000D01*
X141605000Y-55245000D02*
X147135000Y-49715000D01*
X147135000Y-49715000D02*
X152850000Y-49715000D01*
X141605000Y-61595000D02*
X141605000Y-55245000D01*
X144145000Y-64135000D02*
X141605000Y-61595000D01*
%TO.N,Net-(J1-D--PadA7)*%
X159688274Y-33323274D02*
X159385000Y-33323274D01*
X160655000Y-34290000D02*
X159688274Y-33323274D01*
X156706726Y-30645000D02*
X152400000Y-30645000D01*
X159385000Y-33323274D02*
X156706726Y-30645000D01*
%TO.N,Net-(J1-D+-PadA6)*%
X161925000Y-42545000D02*
X159930000Y-40550000D01*
X159930000Y-40550000D02*
X159930000Y-38010000D01*
X152400000Y-31750000D02*
X153670000Y-31750000D01*
X159930000Y-38010000D02*
X154305000Y-32385000D01*
X153670000Y-31750000D02*
X154305000Y-32385000D01*
X164375000Y-42545000D02*
X161925000Y-42545000D01*
%TO.N,/SDA*%
X165100000Y-48260000D02*
X165100000Y-31750000D01*
X165735000Y-50165000D02*
X165735000Y-48895000D01*
X165735000Y-48895000D02*
X165100000Y-48260000D01*
X140605000Y-27670000D02*
X138430000Y-29845000D01*
X165100000Y-31750000D02*
X161020000Y-27670000D01*
X167640000Y-52070000D02*
X165735000Y-50165000D01*
X161020000Y-27670000D02*
X140605000Y-27670000D01*
%TO.N,/SCL*%
X137160000Y-63500000D02*
X134620000Y-63500000D01*
X127635000Y-54008833D02*
X127635000Y-38100000D01*
X165100000Y-67945000D02*
X141605000Y-67945000D01*
X141605000Y-67945000D02*
X137160000Y-63500000D01*
X134620000Y-63500000D02*
X134620000Y-60993833D01*
X165735000Y-67310000D02*
X165100000Y-67945000D01*
X134620000Y-60993833D02*
X127635000Y-54008833D01*
X127635000Y-38100000D02*
X135890000Y-29845000D01*
%TO.N,/DTR*%
X159023297Y-44417166D02*
X157832641Y-45607822D01*
X154128480Y-45607822D02*
X153753348Y-45982954D01*
X157570000Y-36986739D02*
X159023297Y-38440036D01*
X157832641Y-45607822D02*
X154128480Y-45607822D01*
X159023297Y-38440036D02*
X159023297Y-44417166D01*
%TO.N,/RTS*%
X144870000Y-48895000D02*
X146685000Y-47080000D01*
X146685000Y-47080000D02*
X146685000Y-44450000D01*
%TO.N,/IO0*%
X154924780Y-46332822D02*
X161267822Y-46332822D01*
X161267822Y-46332822D02*
X163830000Y-48895000D01*
%TO.N,Net-(U3-TXD)*%
X147321396Y-50165000D02*
X153425305Y-50165000D01*
X152700305Y-46900000D02*
X150513299Y-46900000D01*
X167640000Y-64379695D02*
X165490305Y-62230000D01*
X155478604Y-43910000D02*
X156395000Y-42993604D01*
X165490305Y-62230000D02*
X159603833Y-62230000D01*
X153978833Y-56605000D02*
X143600000Y-56605000D01*
X154395000Y-48594695D02*
X152700305Y-46900000D01*
X159603833Y-62230000D02*
X153978833Y-56605000D01*
X150513299Y-46900000D02*
X149185000Y-45571701D01*
X154395000Y-49195305D02*
X154395000Y-48594695D01*
X156395000Y-42993604D02*
X156395000Y-38040305D01*
X149185000Y-45571701D02*
X149185000Y-44598299D01*
X143600000Y-56605000D02*
X142875000Y-55880000D01*
X142875000Y-54611396D02*
X147321396Y-50165000D01*
X142875000Y-55880000D02*
X142875000Y-54611396D01*
X167640000Y-64770000D02*
X167640000Y-64379695D01*
X156395000Y-38040305D02*
X154305000Y-35950305D01*
X149873299Y-43910000D02*
X155478604Y-43910000D01*
X154305000Y-35950305D02*
X154305000Y-35560000D01*
X153425305Y-50165000D02*
X154395000Y-49195305D01*
X149185000Y-44598299D02*
X149873299Y-43910000D01*
%TO.N,/TX*%
X149860000Y-36830000D02*
X149860000Y-38100000D01*
X140335000Y-64135000D02*
X143695000Y-67495000D01*
X149860000Y-38100000D02*
X140335000Y-47625000D01*
X140335000Y-47625000D02*
X140335000Y-64135000D01*
X150677653Y-36377653D02*
X150312347Y-36377653D01*
X161740000Y-67495000D02*
X165735000Y-63500000D01*
X150312347Y-36377653D02*
X149860000Y-36830000D01*
X143695000Y-67495000D02*
X161740000Y-67495000D01*
%TO.N,/LED_R*%
X147320000Y-48961689D02*
X150226142Y-48961689D01*
%TO.N,/LED_B*%
X153670000Y-46990000D02*
X153101545Y-46421545D01*
X156845000Y-43180000D02*
X156845000Y-36439695D01*
X159385000Y-48895000D02*
X156461653Y-48895000D01*
X153101545Y-46421545D02*
X150671240Y-46421545D01*
X150059695Y-44360000D02*
X155665000Y-44360000D01*
X149635000Y-45385305D02*
X149635000Y-44784695D01*
X154695305Y-34290000D02*
X153707500Y-34290000D01*
X156461653Y-48895000D02*
X154556653Y-46990000D01*
X155665000Y-44360000D02*
X156845000Y-43180000D01*
X149635000Y-44784695D02*
X150059695Y-44360000D01*
X150671240Y-46421545D02*
X149635000Y-45385305D01*
X153707500Y-34290000D02*
X152400000Y-35597500D01*
X154556653Y-46990000D02*
X153670000Y-46990000D01*
X156845000Y-36439695D02*
X154695305Y-34290000D01*
%TO.N,/Button1*%
X133850000Y-69350000D02*
X130000000Y-65500000D01*
X164965000Y-69350000D02*
X133850000Y-69350000D01*
X165735000Y-68580000D02*
X164965000Y-69350000D01*
%TO.N,/Button2*%
X150000000Y-65500000D02*
X156500000Y-65500000D01*
X147955000Y-60960000D02*
X147955000Y-65405000D01*
X149905000Y-65405000D02*
X150000000Y-65500000D01*
X144145000Y-58420000D02*
X145415000Y-58420000D01*
X147955000Y-65405000D02*
X149905000Y-65405000D01*
X145415000Y-58420000D02*
X147955000Y-60960000D01*
%TO.N,/Button3*%
X170000000Y-65500000D02*
X169640000Y-65500000D01*
X179742500Y-65405000D02*
X176595000Y-65405000D01*
X165100000Y-61595000D02*
X159385000Y-55880000D01*
X169640000Y-65500000D02*
X165735000Y-61595000D01*
X176595000Y-65405000D02*
X176500000Y-65500000D01*
X165735000Y-61595000D02*
X165100000Y-61595000D01*
X176500000Y-65500000D02*
X170000000Y-65500000D01*
X159385000Y-55880000D02*
X144145000Y-55880000D01*
%TO.N,/Button4*%
X170000000Y-53050000D02*
X176500000Y-53050000D01*
X168440000Y-54610000D02*
X170000000Y-53050000D01*
X144145000Y-54610000D02*
X168440000Y-54610000D01*
%TO.N,/RotaryEncoderSwitch*%
X182350000Y-33100000D02*
X184500000Y-33100000D01*
X167640000Y-47810000D02*
X182350000Y-33100000D01*
X167640000Y-50165000D02*
X167640000Y-47810000D01*
%TO.N,/RotaryCLK*%
X170000000Y-33100000D02*
X168275000Y-34825000D01*
X168275000Y-34825000D02*
X168275000Y-38098604D01*
X167190000Y-39183604D02*
X167190000Y-45535000D01*
X167190000Y-45535000D02*
X166370000Y-46355000D01*
X168275000Y-38098604D02*
X167190000Y-39183604D01*
%TO.N,/RotaryDT*%
X166370000Y-47625000D02*
X167640000Y-46355000D01*
X167640000Y-46355000D02*
X167640000Y-39370000D01*
X167640000Y-39370000D02*
X168910000Y-38100000D01*
X168910000Y-38100000D02*
X170000000Y-38100000D01*
%TO.N,Net-(U3-D+)*%
X163625383Y-41820000D02*
X161836396Y-41820000D01*
X161836396Y-41820000D02*
X160380000Y-40363604D01*
X160380000Y-40363604D02*
X160380000Y-37823604D01*
X160380000Y-37823604D02*
X160144059Y-37587663D01*
X160144059Y-37587663D02*
X160144059Y-37336523D01*
%TO.N,Net-(D1-GK)*%
X153380000Y-41910000D02*
X154585000Y-40705000D01*
X144145000Y-45085000D02*
X147320000Y-41910000D01*
X147320000Y-41910000D02*
X153380000Y-41910000D01*
X144145000Y-50165000D02*
X144145000Y-45085000D01*
%TO.N,Net-(D1-BK)*%
X151765000Y-37427500D02*
X152400000Y-36792500D01*
X151765000Y-37465000D02*
X151765000Y-37427500D01*
X151485000Y-39305000D02*
X151485000Y-37707500D01*
X151727500Y-37465000D02*
X151765000Y-37465000D01*
X151485000Y-37707500D02*
X151727500Y-37465000D01*
%TO.N,Net-(D1-RK)*%
X148735000Y-46390240D02*
X148969255Y-46624495D01*
X155660000Y-41480000D02*
X153680000Y-43460000D01*
X155660000Y-39930000D02*
X155660000Y-41480000D01*
X149580000Y-43460000D02*
X148735000Y-44305000D01*
X154585000Y-39305000D02*
X155035000Y-39305000D01*
X153680000Y-43460000D02*
X149580000Y-43460000D01*
X155035000Y-39305000D02*
X155660000Y-39930000D01*
X148735000Y-44305000D02*
X148735000Y-46390240D01*
%TD*%
%TA.AperFunction,Conductor*%
%TO.N,GND*%
G36*
X190443039Y-25419685D02*
G01*
X190488794Y-25472489D01*
X190500000Y-25524000D01*
X190500000Y-76076000D01*
X190480315Y-76143039D01*
X190427511Y-76188794D01*
X190376000Y-76200000D01*
X178924000Y-76200000D01*
X178856961Y-76180315D01*
X178811206Y-76127511D01*
X178800000Y-76076000D01*
X178800000Y-69475000D01*
X166416793Y-69475000D01*
X166349754Y-69455315D01*
X166303999Y-69402511D01*
X166294055Y-69333353D01*
X166323080Y-69269797D01*
X166336368Y-69257599D01*
X166336042Y-69257236D01*
X166340865Y-69252891D01*
X166340871Y-69252888D01*
X166467533Y-69112216D01*
X166562179Y-68948284D01*
X166620674Y-68768256D01*
X166640460Y-68580000D01*
X166620674Y-68391744D01*
X166562179Y-68211716D01*
X166467533Y-68047784D01*
X166449693Y-68027971D01*
X166419464Y-67964981D01*
X166428089Y-67895646D01*
X166449694Y-67862028D01*
X166467533Y-67842216D01*
X166562179Y-67678284D01*
X166620674Y-67498256D01*
X166640460Y-67310000D01*
X166620674Y-67121744D01*
X166562179Y-66941716D01*
X166467533Y-66777784D01*
X166340871Y-66637112D01*
X166340870Y-66637111D01*
X166187734Y-66525851D01*
X166187729Y-66525848D01*
X166014807Y-66448857D01*
X166014802Y-66448855D01*
X165869001Y-66417865D01*
X165829646Y-66409500D01*
X165640354Y-66409500D01*
X165607897Y-66416398D01*
X165455197Y-66448855D01*
X165455192Y-66448857D01*
X165282270Y-66525848D01*
X165282265Y-66525851D01*
X165129129Y-66637111D01*
X165002466Y-66777785D01*
X164907821Y-66941715D01*
X164907818Y-66941722D01*
X164849327Y-67121740D01*
X164849326Y-67121744D01*
X164843429Y-67177853D01*
X164840212Y-67208462D01*
X164813627Y-67273077D01*
X164756330Y-67313061D01*
X164716891Y-67319500D01*
X163099452Y-67319500D01*
X163032413Y-67299815D01*
X162986658Y-67247011D01*
X162976714Y-67177853D01*
X163005739Y-67114297D01*
X163011771Y-67107819D01*
X165682771Y-64436819D01*
X165744094Y-64403334D01*
X165770452Y-64400500D01*
X165829644Y-64400500D01*
X165829646Y-64400500D01*
X166014803Y-64361144D01*
X166187730Y-64284151D01*
X166340871Y-64172888D01*
X166351858Y-64160685D01*
X166411343Y-64124036D01*
X166481200Y-64125365D01*
X166531690Y-64155975D01*
X166750410Y-64374695D01*
X166783895Y-64436018D01*
X166780660Y-64500693D01*
X166754327Y-64581739D01*
X166754326Y-64581741D01*
X166754326Y-64581744D01*
X166734540Y-64770000D01*
X166754326Y-64958256D01*
X166754327Y-64958259D01*
X166812818Y-65138277D01*
X166812821Y-65138284D01*
X166907467Y-65302216D01*
X167001690Y-65406861D01*
X167034129Y-65442888D01*
X167187265Y-65554148D01*
X167187270Y-65554151D01*
X167360192Y-65631142D01*
X167360197Y-65631144D01*
X167545354Y-65670500D01*
X167545355Y-65670500D01*
X167734644Y-65670500D01*
X167734646Y-65670500D01*
X167919803Y-65631144D01*
X168092730Y-65554151D01*
X168245871Y-65442888D01*
X168278657Y-65406475D01*
X168338142Y-65369828D01*
X168407999Y-65371157D01*
X168466047Y-65410044D01*
X168493857Y-65474140D01*
X168494284Y-65494871D01*
X168494357Y-65494871D01*
X168494357Y-65498417D01*
X168494383Y-65499680D01*
X168494357Y-65499994D01*
X168494357Y-65500005D01*
X168514890Y-65747812D01*
X168514892Y-65747824D01*
X168575936Y-65988881D01*
X168675826Y-66216606D01*
X168811833Y-66424782D01*
X168811836Y-66424785D01*
X168980256Y-66607738D01*
X169176491Y-66760474D01*
X169285840Y-66819651D01*
X169372716Y-66866666D01*
X169395190Y-66878828D01*
X169630386Y-66959571D01*
X169875665Y-67000500D01*
X170124335Y-67000500D01*
X170369614Y-66959571D01*
X170604810Y-66878828D01*
X170823509Y-66760474D01*
X171019744Y-66607738D01*
X171188164Y-66424785D01*
X171324173Y-66216607D01*
X171324175Y-66216603D01*
X171331595Y-66199689D01*
X171376551Y-66146203D01*
X171443287Y-66125514D01*
X171445150Y-66125500D01*
X175054850Y-66125500D01*
X175121889Y-66145185D01*
X175167644Y-66197989D01*
X175168405Y-66199689D01*
X175175824Y-66216603D01*
X175311833Y-66424782D01*
X175311836Y-66424785D01*
X175480256Y-66607738D01*
X175676491Y-66760474D01*
X175785840Y-66819651D01*
X175872716Y-66866666D01*
X175895190Y-66878828D01*
X176130386Y-66959571D01*
X176375665Y-67000500D01*
X176624335Y-67000500D01*
X176869614Y-66959571D01*
X177104810Y-66878828D01*
X177323509Y-66760474D01*
X177519744Y-66607738D01*
X177688164Y-66424785D01*
X177824173Y-66216607D01*
X177873264Y-66104689D01*
X177918220Y-66051204D01*
X177984956Y-66030514D01*
X177986820Y-66030500D01*
X179025050Y-66030500D01*
X179092089Y-66050185D01*
X179112731Y-66066819D01*
X179134665Y-66088753D01*
X179134670Y-66088757D01*
X179271929Y-66171732D01*
X179271933Y-66171734D01*
X179326100Y-66188612D01*
X179425067Y-66219452D01*
X179491619Y-66225500D01*
X179993380Y-66225499D01*
X179993388Y-66225499D01*
X180059926Y-66219453D01*
X180059927Y-66219452D01*
X180059933Y-66219452D01*
X180213069Y-66171733D01*
X180275850Y-66133779D01*
X180343405Y-66115944D01*
X180404149Y-66133779D01*
X180466931Y-66171733D01*
X180466934Y-66171734D01*
X180466933Y-66171734D01*
X180521100Y-66188612D01*
X180620067Y-66219452D01*
X180686619Y-66225500D01*
X181188380Y-66225499D01*
X181188388Y-66225499D01*
X181254926Y-66219453D01*
X181254927Y-66219452D01*
X181254933Y-66219452D01*
X181408069Y-66171733D01*
X181534253Y-66095452D01*
X181601804Y-66077617D01*
X181668278Y-66099134D01*
X181671285Y-66101251D01*
X181704681Y-66125514D01*
X181792270Y-66189151D01*
X181965192Y-66266142D01*
X181965197Y-66266144D01*
X182150354Y-66305500D01*
X182150355Y-66305500D01*
X182339644Y-66305500D01*
X182339646Y-66305500D01*
X182524803Y-66266144D01*
X182697730Y-66189151D01*
X182850871Y-66077888D01*
X182977533Y-65937216D01*
X183072179Y-65773284D01*
X183130674Y-65593256D01*
X183150460Y-65405000D01*
X183130674Y-65216744D01*
X183072179Y-65036716D01*
X182977533Y-64872784D01*
X182850871Y-64732112D01*
X182835917Y-64721247D01*
X182697734Y-64620851D01*
X182697729Y-64620848D01*
X182524807Y-64543857D01*
X182524802Y-64543855D01*
X182378652Y-64512791D01*
X182339646Y-64504500D01*
X182150354Y-64504500D01*
X182117897Y-64511398D01*
X181965197Y-64543855D01*
X181965192Y-64543857D01*
X181792271Y-64620848D01*
X181671286Y-64708748D01*
X181605479Y-64732227D01*
X181537425Y-64716401D01*
X181534252Y-64714546D01*
X181408070Y-64638267D01*
X181408066Y-64638265D01*
X181254933Y-64590548D01*
X181254935Y-64590548D01*
X181228312Y-64588128D01*
X181188381Y-64584500D01*
X181188378Y-64584500D01*
X180686611Y-64584500D01*
X180620073Y-64590546D01*
X180620066Y-64590548D01*
X180466933Y-64638265D01*
X180466929Y-64638267D01*
X180404149Y-64676219D01*
X180336594Y-64694055D01*
X180275851Y-64676219D01*
X180213070Y-64638267D01*
X180213066Y-64638265D01*
X180059933Y-64590548D01*
X180059935Y-64590548D01*
X180033312Y-64588128D01*
X179993381Y-64584500D01*
X179993378Y-64584500D01*
X179491611Y-64584500D01*
X179425073Y-64590546D01*
X179425066Y-64590548D01*
X179271933Y-64638265D01*
X179271929Y-64638267D01*
X179134670Y-64721242D01*
X179134665Y-64721246D01*
X179112731Y-64743181D01*
X179051408Y-64776666D01*
X179025050Y-64779500D01*
X177888736Y-64779500D01*
X177821697Y-64759815D01*
X177784927Y-64723322D01*
X177775405Y-64708748D01*
X177688164Y-64575215D01*
X177519744Y-64392262D01*
X177323509Y-64239526D01*
X177323507Y-64239525D01*
X177323506Y-64239524D01*
X177104811Y-64121172D01*
X177104802Y-64121169D01*
X176869616Y-64040429D01*
X176624335Y-63999500D01*
X176375665Y-63999500D01*
X176130383Y-64040429D01*
X175895197Y-64121169D01*
X175895188Y-64121172D01*
X175676493Y-64239524D01*
X175480257Y-64392261D01*
X175311833Y-64575217D01*
X175175824Y-64783396D01*
X175168405Y-64800311D01*
X175123449Y-64853797D01*
X175056713Y-64874486D01*
X175054850Y-64874500D01*
X171445150Y-64874500D01*
X171378111Y-64854815D01*
X171332356Y-64802011D01*
X171331595Y-64800311D01*
X171324175Y-64783396D01*
X171188166Y-64575217D01*
X171149975Y-64533731D01*
X171019744Y-64392262D01*
X170823509Y-64239526D01*
X170823507Y-64239525D01*
X170823506Y-64239524D01*
X170604811Y-64121172D01*
X170604802Y-64121169D01*
X170369616Y-64040429D01*
X170124335Y-63999500D01*
X169875665Y-63999500D01*
X169630383Y-64040429D01*
X169395197Y-64121169D01*
X169395183Y-64121175D01*
X169314664Y-64164750D01*
X169246336Y-64179345D01*
X169180964Y-64154682D01*
X169167966Y-64143376D01*
X166225198Y-61200608D01*
X166225178Y-61200586D01*
X166133733Y-61109141D01*
X166082509Y-61074915D01*
X166075489Y-61070224D01*
X166031286Y-61040688D01*
X166031283Y-61040686D01*
X166031280Y-61040685D01*
X165950792Y-61007347D01*
X165933041Y-60999994D01*
X168494859Y-60999994D01*
X168494859Y-61000005D01*
X168515385Y-61247729D01*
X168515387Y-61247738D01*
X168576412Y-61488717D01*
X168676266Y-61716364D01*
X168776564Y-61869882D01*
X169476212Y-61170234D01*
X169487482Y-61212292D01*
X169559890Y-61337708D01*
X169662292Y-61440110D01*
X169787708Y-61512518D01*
X169829765Y-61523787D01*
X169129942Y-62223609D01*
X169176768Y-62260055D01*
X169176770Y-62260056D01*
X169395385Y-62378364D01*
X169395396Y-62378369D01*
X169630506Y-62459083D01*
X169875707Y-62500000D01*
X170124293Y-62500000D01*
X170369493Y-62459083D01*
X170604603Y-62378369D01*
X170604614Y-62378364D01*
X170823228Y-62260057D01*
X170823231Y-62260055D01*
X170870056Y-62223609D01*
X170170234Y-61523787D01*
X170212292Y-61512518D01*
X170337708Y-61440110D01*
X170440110Y-61337708D01*
X170512518Y-61212292D01*
X170523787Y-61170235D01*
X171223434Y-61869882D01*
X171323731Y-61716369D01*
X171423587Y-61488717D01*
X171484612Y-61247738D01*
X171484614Y-61247729D01*
X171505141Y-61000005D01*
X171505141Y-60999994D01*
X174994859Y-60999994D01*
X174994859Y-61000005D01*
X175015385Y-61247729D01*
X175015387Y-61247738D01*
X175076412Y-61488717D01*
X175176266Y-61716364D01*
X175276564Y-61869882D01*
X175976212Y-61170234D01*
X175987482Y-61212292D01*
X176059890Y-61337708D01*
X176162292Y-61440110D01*
X176287708Y-61512518D01*
X176329765Y-61523787D01*
X175629942Y-62223609D01*
X175676768Y-62260055D01*
X175676770Y-62260056D01*
X175895385Y-62378364D01*
X175895396Y-62378369D01*
X176130506Y-62459083D01*
X176375707Y-62500000D01*
X176624293Y-62500000D01*
X176869493Y-62459083D01*
X177104603Y-62378369D01*
X177104614Y-62378364D01*
X177323228Y-62260057D01*
X177323231Y-62260055D01*
X177370056Y-62223609D01*
X176670234Y-61523787D01*
X176712292Y-61512518D01*
X176837708Y-61440110D01*
X176940110Y-61337708D01*
X177012518Y-61212292D01*
X177023787Y-61170235D01*
X177723434Y-61869882D01*
X177823731Y-61716369D01*
X177923587Y-61488717D01*
X177984612Y-61247738D01*
X177984614Y-61247729D01*
X178005141Y-61000005D01*
X178005141Y-60999994D01*
X177984614Y-60752270D01*
X177984612Y-60752261D01*
X177923587Y-60511282D01*
X177823731Y-60283630D01*
X177723434Y-60130116D01*
X177023787Y-60829764D01*
X177012518Y-60787708D01*
X176940110Y-60662292D01*
X176837708Y-60559890D01*
X176712292Y-60487482D01*
X176670235Y-60476212D01*
X177370057Y-59776390D01*
X177370056Y-59776389D01*
X177323229Y-59739943D01*
X177104614Y-59621635D01*
X177104603Y-59621630D01*
X176869493Y-59540916D01*
X176624293Y-59500000D01*
X176375707Y-59500000D01*
X176130506Y-59540916D01*
X175895396Y-59621630D01*
X175895390Y-59621632D01*
X175676761Y-59739949D01*
X175629942Y-59776388D01*
X175629942Y-59776390D01*
X176329765Y-60476212D01*
X176287708Y-60487482D01*
X176162292Y-60559890D01*
X176059890Y-60662292D01*
X175987482Y-60787708D01*
X175976212Y-60829764D01*
X175276564Y-60130116D01*
X175176267Y-60283632D01*
X175076412Y-60511282D01*
X175015387Y-60752261D01*
X175015385Y-60752270D01*
X174994859Y-60999994D01*
X171505141Y-60999994D01*
X171484614Y-60752270D01*
X171484612Y-60752261D01*
X171423587Y-60511282D01*
X171323731Y-60283630D01*
X171223434Y-60130116D01*
X170523787Y-60829764D01*
X170512518Y-60787708D01*
X170440110Y-60662292D01*
X170337708Y-60559890D01*
X170212292Y-60487482D01*
X170170235Y-60476212D01*
X170870057Y-59776390D01*
X170870056Y-59776389D01*
X170823229Y-59739943D01*
X170604614Y-59621635D01*
X170604603Y-59621630D01*
X170369493Y-59540916D01*
X170124293Y-59500000D01*
X169875707Y-59500000D01*
X169630506Y-59540916D01*
X169395396Y-59621630D01*
X169395390Y-59621632D01*
X169176761Y-59739949D01*
X169129942Y-59776388D01*
X169129942Y-59776390D01*
X169829765Y-60476212D01*
X169787708Y-60487482D01*
X169662292Y-60559890D01*
X169559890Y-60662292D01*
X169487482Y-60787708D01*
X169476212Y-60829764D01*
X168776564Y-60130116D01*
X168676267Y-60283632D01*
X168576412Y-60511282D01*
X168515387Y-60752261D01*
X168515385Y-60752270D01*
X168494859Y-60999994D01*
X165933041Y-60999994D01*
X165917453Y-60993537D01*
X165907427Y-60991543D01*
X165857029Y-60981518D01*
X165796610Y-60969500D01*
X165796607Y-60969500D01*
X165796606Y-60969500D01*
X165410453Y-60969500D01*
X165343414Y-60949815D01*
X165322772Y-60933181D01*
X159877928Y-55488338D01*
X159877926Y-55488335D01*
X159836772Y-55447181D01*
X159803287Y-55385858D01*
X159808271Y-55316166D01*
X159850143Y-55260233D01*
X159915607Y-55235816D01*
X159924453Y-55235500D01*
X168501608Y-55235500D01*
X168501608Y-55235499D01*
X168578476Y-55220210D01*
X168578477Y-55220210D01*
X168600768Y-55215775D01*
X168622452Y-55211463D01*
X168672496Y-55190734D01*
X168736286Y-55164312D01*
X168787509Y-55130084D01*
X168838733Y-55095858D01*
X168925858Y-55008733D01*
X168925859Y-55008731D01*
X168932925Y-55001665D01*
X168932928Y-55001661D01*
X169422771Y-54511817D01*
X169484092Y-54478334D01*
X169550712Y-54482218D01*
X169587042Y-54494691D01*
X169630385Y-54509571D01*
X169875665Y-54550500D01*
X170124335Y-54550500D01*
X170369614Y-54509571D01*
X170604810Y-54428828D01*
X170823509Y-54310474D01*
X171019744Y-54157738D01*
X171188164Y-53974785D01*
X171324173Y-53766607D01*
X171325268Y-53764111D01*
X171331595Y-53749689D01*
X171376551Y-53696203D01*
X171443287Y-53675514D01*
X171445150Y-53675500D01*
X175054850Y-53675500D01*
X175121889Y-53695185D01*
X175167644Y-53747989D01*
X175168405Y-53749689D01*
X175175824Y-53766603D01*
X175311833Y-53974782D01*
X175311836Y-53974785D01*
X175480256Y-54157738D01*
X175676491Y-54310474D01*
X175676493Y-54310475D01*
X175855897Y-54407564D01*
X175895190Y-54428828D01*
X176130386Y-54509571D01*
X176375665Y-54550500D01*
X176624335Y-54550500D01*
X176869614Y-54509571D01*
X177104810Y-54428828D01*
X177323509Y-54310474D01*
X177519744Y-54157738D01*
X177688164Y-53974785D01*
X177824173Y-53766607D01*
X177924063Y-53538881D01*
X177985108Y-53297821D01*
X178005643Y-53050000D01*
X177999055Y-52970500D01*
X177985109Y-52802187D01*
X177985107Y-52802175D01*
X177924063Y-52561118D01*
X177824173Y-52333393D01*
X177688166Y-52125217D01*
X177587282Y-52015628D01*
X177519744Y-51942262D01*
X177323509Y-51789526D01*
X177323507Y-51789525D01*
X177323506Y-51789524D01*
X177104811Y-51671172D01*
X177104802Y-51671169D01*
X176869616Y-51590429D01*
X176624335Y-51549500D01*
X176375665Y-51549500D01*
X176130383Y-51590429D01*
X175895197Y-51671169D01*
X175895188Y-51671172D01*
X175676493Y-51789524D01*
X175480257Y-51942261D01*
X175311833Y-52125217D01*
X175175824Y-52333396D01*
X175168405Y-52350311D01*
X175123449Y-52403797D01*
X175056713Y-52424486D01*
X175054850Y-52424500D01*
X171445150Y-52424500D01*
X171378111Y-52404815D01*
X171332356Y-52352011D01*
X171331595Y-52350311D01*
X171324175Y-52333396D01*
X171188166Y-52125217D01*
X171087282Y-52015628D01*
X171019744Y-51942262D01*
X170823509Y-51789526D01*
X170823507Y-51789525D01*
X170823506Y-51789524D01*
X170604811Y-51671172D01*
X170604802Y-51671169D01*
X170369616Y-51590429D01*
X170124335Y-51549500D01*
X169875665Y-51549500D01*
X169630383Y-51590429D01*
X169395197Y-51671169D01*
X169395188Y-51671172D01*
X169176493Y-51789524D01*
X168980257Y-51942261D01*
X168811836Y-52125215D01*
X168768268Y-52191901D01*
X168715121Y-52237257D01*
X168645890Y-52246681D01*
X168582554Y-52217179D01*
X168545223Y-52158119D01*
X168541138Y-52111119D01*
X168545460Y-52070000D01*
X168525674Y-51881744D01*
X168467179Y-51701716D01*
X168372533Y-51537784D01*
X168245871Y-51397112D01*
X168245870Y-51397111D01*
X168092734Y-51285851D01*
X168092729Y-51285848D01*
X167969043Y-51230779D01*
X167915806Y-51185529D01*
X167895485Y-51118680D01*
X167914531Y-51051456D01*
X167966897Y-51005201D01*
X167969043Y-51004221D01*
X168055374Y-50965783D01*
X168092730Y-50949151D01*
X168245871Y-50837888D01*
X168372533Y-50697216D01*
X168467179Y-50533284D01*
X168525674Y-50353256D01*
X168545460Y-50165000D01*
X168525674Y-49976744D01*
X168467179Y-49796716D01*
X168372533Y-49632784D01*
X168337644Y-49594036D01*
X168297350Y-49549284D01*
X168267120Y-49486292D01*
X168265500Y-49466312D01*
X168265500Y-48780094D01*
X168285185Y-48713055D01*
X168337989Y-48667300D01*
X168407147Y-48657356D01*
X168470703Y-48686381D01*
X168508477Y-48745159D01*
X168513076Y-48769854D01*
X168515385Y-48797730D01*
X168515387Y-48797738D01*
X168576412Y-49038717D01*
X168676266Y-49266364D01*
X168776564Y-49419882D01*
X169476212Y-48720233D01*
X169487482Y-48762292D01*
X169559890Y-48887708D01*
X169662292Y-48990110D01*
X169787708Y-49062518D01*
X169829765Y-49073787D01*
X169129942Y-49773609D01*
X169176768Y-49810055D01*
X169176770Y-49810056D01*
X169395385Y-49928364D01*
X169395396Y-49928369D01*
X169630506Y-50009083D01*
X169875707Y-50050000D01*
X170124293Y-50050000D01*
X170369493Y-50009083D01*
X170604603Y-49928369D01*
X170604614Y-49928364D01*
X170823228Y-49810057D01*
X170823231Y-49810055D01*
X170870056Y-49773609D01*
X170170234Y-49073787D01*
X170212292Y-49062518D01*
X170337708Y-48990110D01*
X170440110Y-48887708D01*
X170512518Y-48762292D01*
X170523787Y-48720235D01*
X171223434Y-49419882D01*
X171323731Y-49266369D01*
X171423587Y-49038717D01*
X171484612Y-48797738D01*
X171484614Y-48797729D01*
X171505141Y-48550005D01*
X171505141Y-48549994D01*
X174994859Y-48549994D01*
X174994859Y-48550005D01*
X175015385Y-48797729D01*
X175015387Y-48797738D01*
X175076412Y-49038717D01*
X175176266Y-49266364D01*
X175276564Y-49419882D01*
X175976212Y-48720234D01*
X175987482Y-48762292D01*
X176059890Y-48887708D01*
X176162292Y-48990110D01*
X176287708Y-49062518D01*
X176329765Y-49073787D01*
X175629942Y-49773609D01*
X175676768Y-49810055D01*
X175676770Y-49810056D01*
X175895385Y-49928364D01*
X175895396Y-49928369D01*
X176130506Y-50009083D01*
X176375707Y-50050000D01*
X176624293Y-50050000D01*
X176869493Y-50009083D01*
X177104603Y-49928369D01*
X177104614Y-49928364D01*
X177323228Y-49810057D01*
X177323231Y-49810055D01*
X177370056Y-49773609D01*
X176670234Y-49073787D01*
X176712292Y-49062518D01*
X176837708Y-48990110D01*
X176940110Y-48887708D01*
X177012518Y-48762292D01*
X177023787Y-48720235D01*
X177723434Y-49419882D01*
X177823731Y-49266369D01*
X177923587Y-49038717D01*
X177984612Y-48797738D01*
X177984614Y-48797729D01*
X178005141Y-48550005D01*
X178005141Y-48549994D01*
X177984614Y-48302270D01*
X177984612Y-48302261D01*
X177923587Y-48061282D01*
X177823731Y-47833630D01*
X177723434Y-47680116D01*
X177023787Y-48379764D01*
X177012518Y-48337708D01*
X176940110Y-48212292D01*
X176837708Y-48109890D01*
X176712292Y-48037482D01*
X176670235Y-48026212D01*
X177370057Y-47326390D01*
X177370056Y-47326389D01*
X177323229Y-47289943D01*
X177104614Y-47171635D01*
X177104603Y-47171630D01*
X176869493Y-47090916D01*
X176624293Y-47050000D01*
X176375707Y-47050000D01*
X176130506Y-47090916D01*
X175895396Y-47171630D01*
X175895390Y-47171632D01*
X175676761Y-47289949D01*
X175629942Y-47326388D01*
X175629942Y-47326390D01*
X176329765Y-48026212D01*
X176287708Y-48037482D01*
X176162292Y-48109890D01*
X176059890Y-48212292D01*
X175987482Y-48337708D01*
X175976212Y-48379764D01*
X175276564Y-47680116D01*
X175176267Y-47833632D01*
X175076412Y-48061282D01*
X175015387Y-48302261D01*
X175015385Y-48302270D01*
X174994859Y-48549994D01*
X171505141Y-48549994D01*
X171484614Y-48302270D01*
X171484612Y-48302261D01*
X171423587Y-48061282D01*
X171323731Y-47833630D01*
X171223434Y-47680116D01*
X170523787Y-48379764D01*
X170512518Y-48337708D01*
X170440110Y-48212292D01*
X170337708Y-48109890D01*
X170212292Y-48037482D01*
X170170233Y-48026212D01*
X170870057Y-47326389D01*
X170823229Y-47289943D01*
X170604614Y-47171635D01*
X170604603Y-47171630D01*
X170369493Y-47090916D01*
X170124293Y-47050000D01*
X169875707Y-47050000D01*
X169630504Y-47090916D01*
X169548386Y-47119108D01*
X169478588Y-47122258D01*
X169418167Y-47087172D01*
X169386306Y-47024989D01*
X169393122Y-46955452D01*
X169420441Y-46914148D01*
X175187821Y-41146768D01*
X175249142Y-41113285D01*
X175318834Y-41118269D01*
X175374767Y-41160141D01*
X175399184Y-41225605D01*
X175399500Y-41234451D01*
X175399500Y-42247870D01*
X175399501Y-42247876D01*
X175405908Y-42307483D01*
X175456202Y-42442328D01*
X175456206Y-42442335D01*
X175542452Y-42557544D01*
X175542455Y-42557547D01*
X175657664Y-42643793D01*
X175657671Y-42643797D01*
X175792517Y-42694091D01*
X175792516Y-42694091D01*
X175799444Y-42694835D01*
X175852127Y-42700500D01*
X179147872Y-42700499D01*
X179207483Y-42694091D01*
X179342331Y-42643796D01*
X179457546Y-42557546D01*
X179543796Y-42442331D01*
X179594091Y-42307483D01*
X179600500Y-42247873D01*
X179600499Y-40152128D01*
X179594091Y-40092517D01*
X179580645Y-40056467D01*
X179543797Y-39957671D01*
X179543793Y-39957664D01*
X179457547Y-39842455D01*
X179457544Y-39842452D01*
X179342335Y-39756206D01*
X179342328Y-39756202D01*
X179207482Y-39705908D01*
X179207483Y-39705908D01*
X179147883Y-39699501D01*
X179147881Y-39699500D01*
X179147873Y-39699500D01*
X179147865Y-39699500D01*
X176934451Y-39699500D01*
X176867412Y-39679815D01*
X176821657Y-39627011D01*
X176811713Y-39557853D01*
X176840738Y-39494297D01*
X176846770Y-39487819D01*
X178145630Y-38188960D01*
X178234596Y-38099994D01*
X182994357Y-38099994D01*
X182994357Y-38100005D01*
X183014890Y-38347812D01*
X183014892Y-38347824D01*
X183075936Y-38588881D01*
X183175826Y-38816606D01*
X183311833Y-39024782D01*
X183311836Y-39024785D01*
X183480256Y-39207738D01*
X183676491Y-39360474D01*
X183895190Y-39478828D01*
X184130386Y-39559571D01*
X184375665Y-39600500D01*
X184624335Y-39600500D01*
X184869614Y-39559571D01*
X185104810Y-39478828D01*
X185323509Y-39360474D01*
X185519744Y-39207738D01*
X185688164Y-39024785D01*
X185824173Y-38816607D01*
X185924063Y-38588881D01*
X185985108Y-38347821D01*
X185985109Y-38347812D01*
X186005643Y-38100005D01*
X186005643Y-38099994D01*
X185985109Y-37852187D01*
X185985107Y-37852175D01*
X185924063Y-37611118D01*
X185824173Y-37383393D01*
X185688166Y-37175217D01*
X185646080Y-37129500D01*
X185519744Y-36992262D01*
X185323509Y-36839526D01*
X185323507Y-36839525D01*
X185323506Y-36839524D01*
X185104811Y-36721172D01*
X185104802Y-36721169D01*
X184869616Y-36640429D01*
X184624335Y-36599500D01*
X184375665Y-36599500D01*
X184130383Y-36640429D01*
X183895197Y-36721169D01*
X183895188Y-36721172D01*
X183676493Y-36839524D01*
X183480257Y-36992261D01*
X183311833Y-37175217D01*
X183175826Y-37383393D01*
X183075936Y-37611118D01*
X183014892Y-37852175D01*
X183014890Y-37852187D01*
X182994357Y-38099994D01*
X178234596Y-38099994D01*
X182572772Y-33761819D01*
X182634095Y-33728334D01*
X182660453Y-33725500D01*
X183054850Y-33725500D01*
X183121889Y-33745185D01*
X183167644Y-33797989D01*
X183168405Y-33799689D01*
X183175824Y-33816603D01*
X183311833Y-34024782D01*
X183311836Y-34024785D01*
X183480256Y-34207738D01*
X183676491Y-34360474D01*
X183676493Y-34360475D01*
X183894138Y-34478259D01*
X183895190Y-34478828D01*
X184130386Y-34559571D01*
X184375665Y-34600500D01*
X184624335Y-34600500D01*
X184869614Y-34559571D01*
X185104810Y-34478828D01*
X185323509Y-34360474D01*
X185519744Y-34207738D01*
X185688164Y-34024785D01*
X185824173Y-33816607D01*
X185924063Y-33588881D01*
X185985108Y-33347821D01*
X185990272Y-33285500D01*
X186005643Y-33100005D01*
X186005643Y-33099994D01*
X185985109Y-32852187D01*
X185985107Y-32852175D01*
X185924063Y-32611118D01*
X185824173Y-32383393D01*
X185688166Y-32175217D01*
X185582517Y-32060452D01*
X185519744Y-31992262D01*
X185323509Y-31839526D01*
X185323507Y-31839525D01*
X185323506Y-31839524D01*
X185104811Y-31721172D01*
X185104802Y-31721169D01*
X184869616Y-31640429D01*
X184624335Y-31599500D01*
X184375665Y-31599500D01*
X184130383Y-31640429D01*
X183895197Y-31721169D01*
X183895188Y-31721172D01*
X183676493Y-31839524D01*
X183480257Y-31992261D01*
X183311833Y-32175217D01*
X183175824Y-32383396D01*
X183168405Y-32400311D01*
X183123449Y-32453797D01*
X183056713Y-32474486D01*
X183054850Y-32474500D01*
X182417741Y-32474500D01*
X182417721Y-32474499D01*
X182411607Y-32474499D01*
X182288394Y-32474499D01*
X182187597Y-32494548D01*
X182187592Y-32494548D01*
X182167549Y-32498536D01*
X182167547Y-32498536D01*
X182120397Y-32518067D01*
X182053719Y-32545685D01*
X182053717Y-32545686D01*
X181951266Y-32614141D01*
X181951263Y-32614144D01*
X168477181Y-46088227D01*
X168415858Y-46121712D01*
X168346166Y-46116728D01*
X168290233Y-46074856D01*
X168265816Y-46009392D01*
X168265500Y-46000546D01*
X168265500Y-39680451D01*
X168285185Y-39613412D01*
X168301815Y-39592774D01*
X168748240Y-39146348D01*
X168809561Y-39112865D01*
X168879252Y-39117849D01*
X168927147Y-39150047D01*
X168980256Y-39207738D01*
X169176491Y-39360474D01*
X169395190Y-39478828D01*
X169630386Y-39559571D01*
X169875665Y-39600500D01*
X170124335Y-39600500D01*
X170369614Y-39559571D01*
X170604810Y-39478828D01*
X170823509Y-39360474D01*
X171019744Y-39207738D01*
X171188164Y-39024785D01*
X171324173Y-38816607D01*
X171424063Y-38588881D01*
X171485108Y-38347821D01*
X171485109Y-38347812D01*
X171505643Y-38100005D01*
X171505643Y-38099994D01*
X171485109Y-37852187D01*
X171485107Y-37852175D01*
X171424063Y-37611118D01*
X171324173Y-37383393D01*
X171188166Y-37175217D01*
X171146080Y-37129500D01*
X171019744Y-36992262D01*
X170918623Y-36913556D01*
X170877810Y-36856846D01*
X170873697Y-36827249D01*
X170129410Y-36082962D01*
X170192993Y-36065925D01*
X170307007Y-36000099D01*
X170400099Y-35907007D01*
X170465925Y-35792993D01*
X170482962Y-35729410D01*
X171223434Y-36469882D01*
X171323731Y-36316369D01*
X171423587Y-36088717D01*
X171484612Y-35847738D01*
X171484614Y-35847729D01*
X171505141Y-35600005D01*
X171505141Y-35599994D01*
X171484614Y-35352270D01*
X171484612Y-35352261D01*
X171423587Y-35111282D01*
X171323732Y-34883632D01*
X171211515Y-34711870D01*
X171191328Y-34644981D01*
X171210508Y-34577795D01*
X171241013Y-34544782D01*
X171242329Y-34543796D01*
X171242331Y-34543796D01*
X171357546Y-34457546D01*
X171443796Y-34342331D01*
X171494091Y-34207483D01*
X171500500Y-34147873D01*
X171500499Y-32052128D01*
X171494091Y-31992517D01*
X171493540Y-31991041D01*
X171443797Y-31857671D01*
X171443793Y-31857664D01*
X171357547Y-31742455D01*
X171357544Y-31742452D01*
X171242335Y-31656206D01*
X171242328Y-31656202D01*
X171107482Y-31605908D01*
X171107483Y-31605908D01*
X171047883Y-31599501D01*
X171047881Y-31599500D01*
X171047873Y-31599500D01*
X171047864Y-31599500D01*
X168952129Y-31599500D01*
X168952123Y-31599501D01*
X168892516Y-31605908D01*
X168757671Y-31656202D01*
X168757664Y-31656206D01*
X168642455Y-31742452D01*
X168642452Y-31742455D01*
X168556206Y-31857664D01*
X168556202Y-31857671D01*
X168505908Y-31992517D01*
X168499501Y-32052116D01*
X168499501Y-32052123D01*
X168499500Y-32052135D01*
X168499500Y-33664546D01*
X168479815Y-33731585D01*
X168463180Y-33752227D01*
X167876269Y-34339140D01*
X167876267Y-34339142D01*
X167832703Y-34382705D01*
X167789140Y-34426268D01*
X167768242Y-34457545D01*
X167720689Y-34528712D01*
X167720685Y-34528719D01*
X167693609Y-34594089D01*
X167673538Y-34642543D01*
X167673538Y-34642545D01*
X167673537Y-34642548D01*
X167649500Y-34763394D01*
X167649500Y-34763396D01*
X167649500Y-37788151D01*
X167629815Y-37855190D01*
X167613181Y-37875832D01*
X166791269Y-38697744D01*
X166791267Y-38697746D01*
X166764883Y-38724130D01*
X166704142Y-38784870D01*
X166683550Y-38815689D01*
X166683549Y-38815688D01*
X166635686Y-38887320D01*
X166635685Y-38887322D01*
X166602347Y-38967811D01*
X166596823Y-38981147D01*
X166588537Y-39001149D01*
X166588535Y-39001157D01*
X166564500Y-39121993D01*
X166564500Y-45224548D01*
X166544815Y-45291587D01*
X166528181Y-45312229D01*
X166422229Y-45418181D01*
X166360906Y-45451666D01*
X166334548Y-45454500D01*
X166275354Y-45454500D01*
X166242897Y-45461398D01*
X166090197Y-45493855D01*
X166090192Y-45493857D01*
X165917270Y-45570848D01*
X165911637Y-45574101D01*
X165910145Y-45571517D01*
X165856483Y-45590617D01*
X165788441Y-45574739D01*
X165739785Y-45524595D01*
X165725500Y-45466814D01*
X165725500Y-31688394D01*
X165725499Y-31688388D01*
X165724726Y-31684503D01*
X165724722Y-31684486D01*
X165709093Y-31605909D01*
X165701463Y-31567549D01*
X165699058Y-31561744D01*
X165654311Y-31453714D01*
X165654309Y-31453712D01*
X165654309Y-31453710D01*
X165585859Y-31351268D01*
X165575733Y-31341142D01*
X165498733Y-31264142D01*
X165498732Y-31264141D01*
X163186725Y-28952135D01*
X175399500Y-28952135D01*
X175399500Y-31047870D01*
X175399501Y-31047876D01*
X175405908Y-31107483D01*
X175456202Y-31242328D01*
X175456206Y-31242335D01*
X175542452Y-31357544D01*
X175542455Y-31357547D01*
X175657664Y-31443793D01*
X175657671Y-31443797D01*
X175792517Y-31494091D01*
X175792516Y-31494091D01*
X175799444Y-31494835D01*
X175852127Y-31500500D01*
X179147872Y-31500499D01*
X179207483Y-31494091D01*
X179342331Y-31443796D01*
X179457546Y-31357546D01*
X179543796Y-31242331D01*
X179594091Y-31107483D01*
X179600500Y-31047873D01*
X179600499Y-28952128D01*
X179594091Y-28892517D01*
X179592267Y-28887627D01*
X179543797Y-28757671D01*
X179543793Y-28757664D01*
X179457547Y-28642455D01*
X179457544Y-28642452D01*
X179342335Y-28556206D01*
X179342328Y-28556202D01*
X179207482Y-28505908D01*
X179207483Y-28505908D01*
X179147883Y-28499501D01*
X179147881Y-28499500D01*
X179147873Y-28499500D01*
X179147864Y-28499500D01*
X175852129Y-28499500D01*
X175852123Y-28499501D01*
X175792516Y-28505908D01*
X175657671Y-28556202D01*
X175657664Y-28556206D01*
X175542455Y-28642452D01*
X175542452Y-28642455D01*
X175456206Y-28757664D01*
X175456202Y-28757671D01*
X175405908Y-28892517D01*
X175399501Y-28952116D01*
X175399501Y-28952123D01*
X175399500Y-28952135D01*
X163186725Y-28952135D01*
X161512927Y-27278337D01*
X161512925Y-27278334D01*
X161512925Y-27278335D01*
X161505858Y-27271268D01*
X161505858Y-27271267D01*
X161418733Y-27184142D01*
X161418732Y-27184141D01*
X161418731Y-27184140D01*
X161367509Y-27149915D01*
X161316287Y-27115689D01*
X161316286Y-27115688D01*
X161316283Y-27115686D01*
X161316280Y-27115685D01*
X161235792Y-27082347D01*
X161202453Y-27068537D01*
X161192427Y-27066543D01*
X161142029Y-27056518D01*
X161081610Y-27044500D01*
X161081607Y-27044500D01*
X161081606Y-27044500D01*
X140666606Y-27044500D01*
X140543393Y-27044500D01*
X140543388Y-27044500D01*
X140422555Y-27068535D01*
X140422547Y-27068537D01*
X140308716Y-27115687D01*
X140206265Y-27184142D01*
X140206262Y-27184145D01*
X138885646Y-28504762D01*
X138824323Y-28538247D01*
X138765872Y-28536856D01*
X138665413Y-28509938D01*
X138665403Y-28509936D01*
X138430001Y-28489341D01*
X138429999Y-28489341D01*
X138194596Y-28509936D01*
X138194586Y-28509938D01*
X137966344Y-28571094D01*
X137966335Y-28571098D01*
X137752171Y-28670964D01*
X137752169Y-28670965D01*
X137558597Y-28806505D01*
X137391505Y-28973597D01*
X137261575Y-29159158D01*
X137206998Y-29202783D01*
X137137500Y-29209977D01*
X137075145Y-29178454D01*
X137058425Y-29159158D01*
X136928494Y-28973597D01*
X136761402Y-28806506D01*
X136761395Y-28806501D01*
X136567834Y-28670967D01*
X136567830Y-28670965D01*
X136496727Y-28637809D01*
X136353663Y-28571097D01*
X136353659Y-28571096D01*
X136353655Y-28571094D01*
X136125413Y-28509938D01*
X136125403Y-28509936D01*
X135890001Y-28489341D01*
X135889999Y-28489341D01*
X135654596Y-28509936D01*
X135654586Y-28509938D01*
X135426344Y-28571094D01*
X135426335Y-28571098D01*
X135212171Y-28670964D01*
X135212169Y-28670965D01*
X135018597Y-28806505D01*
X134851505Y-28973597D01*
X134721575Y-29159158D01*
X134666998Y-29202783D01*
X134597500Y-29209977D01*
X134535145Y-29178454D01*
X134518425Y-29159158D01*
X134388494Y-28973597D01*
X134221402Y-28806506D01*
X134221395Y-28806501D01*
X134027834Y-28670967D01*
X134027830Y-28670965D01*
X133956727Y-28637809D01*
X133813663Y-28571097D01*
X133813659Y-28571096D01*
X133813655Y-28571094D01*
X133585413Y-28509938D01*
X133585403Y-28509936D01*
X133350001Y-28489341D01*
X133349999Y-28489341D01*
X133114596Y-28509936D01*
X133114586Y-28509938D01*
X132886344Y-28571094D01*
X132886335Y-28571098D01*
X132672171Y-28670964D01*
X132672169Y-28670965D01*
X132478600Y-28806503D01*
X132356284Y-28928819D01*
X132294961Y-28962303D01*
X132225269Y-28957319D01*
X132169336Y-28915447D01*
X132152421Y-28884470D01*
X132103354Y-28752913D01*
X132103350Y-28752906D01*
X132017190Y-28637812D01*
X132017187Y-28637809D01*
X131902093Y-28551649D01*
X131902086Y-28551645D01*
X131767379Y-28501403D01*
X131767372Y-28501401D01*
X131707844Y-28495000D01*
X131060000Y-28495000D01*
X131060000Y-29411988D01*
X131002993Y-29379075D01*
X130875826Y-29345000D01*
X130744174Y-29345000D01*
X130617007Y-29379075D01*
X130560000Y-29411988D01*
X130560000Y-28495000D01*
X129912155Y-28495000D01*
X129852627Y-28501401D01*
X129852620Y-28501403D01*
X129717913Y-28551645D01*
X129717906Y-28551649D01*
X129602812Y-28637809D01*
X129602809Y-28637812D01*
X129516649Y-28752906D01*
X129516645Y-28752913D01*
X129466403Y-28887620D01*
X129466401Y-28887627D01*
X129460000Y-28947155D01*
X129460000Y-29595000D01*
X130376988Y-29595000D01*
X130344075Y-29652007D01*
X130310000Y-29779174D01*
X130310000Y-29910826D01*
X130344075Y-30037993D01*
X130376988Y-30095000D01*
X129460000Y-30095000D01*
X129460000Y-30742844D01*
X129466401Y-30802372D01*
X129466403Y-30802379D01*
X129516645Y-30937086D01*
X129516649Y-30937093D01*
X129602809Y-31052187D01*
X129602812Y-31052190D01*
X129717906Y-31138350D01*
X129717913Y-31138354D01*
X129852620Y-31188596D01*
X129852627Y-31188598D01*
X129912155Y-31194999D01*
X129912172Y-31195000D01*
X130560000Y-31195000D01*
X130560000Y-30278012D01*
X130617007Y-30310925D01*
X130744174Y-30345000D01*
X130875826Y-30345000D01*
X131002993Y-30310925D01*
X131060000Y-30278012D01*
X131060000Y-31195000D01*
X131707828Y-31195000D01*
X131707844Y-31194999D01*
X131767372Y-31188598D01*
X131767379Y-31188596D01*
X131902086Y-31138354D01*
X131902093Y-31138350D01*
X132017187Y-31052190D01*
X132017190Y-31052187D01*
X132103350Y-30937093D01*
X132103354Y-30937086D01*
X132152422Y-30805529D01*
X132194293Y-30749595D01*
X132259757Y-30725178D01*
X132328030Y-30740030D01*
X132356285Y-30761181D01*
X132478599Y-30883495D01*
X132555135Y-30937086D01*
X132672165Y-31019032D01*
X132672167Y-31019033D01*
X132672170Y-31019035D01*
X132886337Y-31118903D01*
X133114592Y-31180063D01*
X133285319Y-31195000D01*
X133349999Y-31200659D01*
X133350388Y-31200659D01*
X133350553Y-31200707D01*
X133355394Y-31201131D01*
X133355308Y-31202103D01*
X133417427Y-31220344D01*
X133463182Y-31273148D01*
X133473126Y-31342306D01*
X133444101Y-31405862D01*
X133438069Y-31412340D01*
X127236270Y-37614139D01*
X127236267Y-37614142D01*
X127209266Y-37641143D01*
X127149142Y-37701266D01*
X127134811Y-37722714D01*
X127120576Y-37744019D01*
X127080690Y-37803710D01*
X127080685Y-37803719D01*
X127058263Y-37857853D01*
X127033539Y-37917541D01*
X127033535Y-37917553D01*
X127026251Y-37954173D01*
X127026251Y-37954178D01*
X127020755Y-37981812D01*
X127016311Y-38004152D01*
X127009500Y-38038392D01*
X127009500Y-54070444D01*
X127033535Y-54191277D01*
X127033540Y-54191294D01*
X127080685Y-54305113D01*
X127080690Y-54305122D01*
X127114914Y-54356340D01*
X127114915Y-54356342D01*
X127149140Y-54407564D01*
X127149141Y-54407565D01*
X127149142Y-54407566D01*
X127236267Y-54494691D01*
X127236268Y-54494691D01*
X127243335Y-54501758D01*
X127243334Y-54501758D01*
X127243338Y-54501761D01*
X133958181Y-61216604D01*
X133991666Y-61277927D01*
X133994500Y-61304285D01*
X133994500Y-63561610D01*
X134018535Y-63682444D01*
X134018538Y-63682454D01*
X134065687Y-63796283D01*
X134065692Y-63796292D01*
X134134141Y-63898732D01*
X134134144Y-63898736D01*
X134221263Y-63985855D01*
X134221267Y-63985858D01*
X134323707Y-64054307D01*
X134323713Y-64054310D01*
X134323714Y-64054311D01*
X134437548Y-64101463D01*
X134536620Y-64121169D01*
X134558389Y-64125499D01*
X134558393Y-64125500D01*
X134558394Y-64125500D01*
X134681606Y-64125500D01*
X135461792Y-64125500D01*
X135528831Y-64145185D01*
X135574586Y-64197989D01*
X135584530Y-64267147D01*
X135555505Y-64330703D01*
X135537955Y-64347353D01*
X135480258Y-64392260D01*
X135311833Y-64575217D01*
X135175826Y-64783393D01*
X135075936Y-65011118D01*
X135014892Y-65252175D01*
X135014890Y-65252187D01*
X134994357Y-65499994D01*
X134994357Y-65500005D01*
X135014890Y-65747812D01*
X135014892Y-65747824D01*
X135075936Y-65988881D01*
X135175826Y-66216606D01*
X135311833Y-66424782D01*
X135311836Y-66424785D01*
X135480256Y-66607738D01*
X135676491Y-66760474D01*
X135785840Y-66819651D01*
X135872716Y-66866666D01*
X135895190Y-66878828D01*
X136130386Y-66959571D01*
X136375665Y-67000500D01*
X136624335Y-67000500D01*
X136869614Y-66959571D01*
X137104810Y-66878828D01*
X137323509Y-66760474D01*
X137519744Y-66607738D01*
X137688164Y-66424785D01*
X137824173Y-66216607D01*
X137924063Y-65988881D01*
X137985108Y-65747821D01*
X138004194Y-65517478D01*
X138029347Y-65452298D01*
X138085748Y-65411059D01*
X138155492Y-65406861D01*
X138215451Y-65440041D01*
X141116016Y-68340606D01*
X141116045Y-68340637D01*
X141206263Y-68430855D01*
X141206267Y-68430858D01*
X141305850Y-68497398D01*
X141350655Y-68551010D01*
X141359362Y-68620335D01*
X141329207Y-68683363D01*
X141269764Y-68720082D01*
X141236959Y-68724500D01*
X134160452Y-68724500D01*
X134093413Y-68704815D01*
X134072771Y-68688181D01*
X131463660Y-66079070D01*
X131430175Y-66017747D01*
X131431135Y-65960950D01*
X131485108Y-65747821D01*
X131494776Y-65631144D01*
X131505643Y-65500005D01*
X131505643Y-65499994D01*
X131485109Y-65252187D01*
X131485107Y-65252175D01*
X131424063Y-65011118D01*
X131324173Y-64783393D01*
X131188166Y-64575217D01*
X131149975Y-64533731D01*
X131019744Y-64392262D01*
X130823509Y-64239526D01*
X130823507Y-64239525D01*
X130823506Y-64239524D01*
X130604811Y-64121172D01*
X130604802Y-64121169D01*
X130369616Y-64040429D01*
X130124335Y-63999500D01*
X129875665Y-63999500D01*
X129630383Y-64040429D01*
X129395197Y-64121169D01*
X129395188Y-64121172D01*
X129176493Y-64239524D01*
X128980257Y-64392261D01*
X128811833Y-64575217D01*
X128675826Y-64783393D01*
X128575936Y-65011118D01*
X128514892Y-65252175D01*
X128514890Y-65252187D01*
X128494357Y-65499994D01*
X128494357Y-65500005D01*
X128514890Y-65747812D01*
X128514892Y-65747824D01*
X128575936Y-65988881D01*
X128675826Y-66216606D01*
X128811833Y-66424782D01*
X128811836Y-66424785D01*
X128980256Y-66607738D01*
X129176491Y-66760474D01*
X129285840Y-66819651D01*
X129372716Y-66866666D01*
X129395190Y-66878828D01*
X129630386Y-66959571D01*
X129875665Y-67000500D01*
X130124335Y-67000500D01*
X130369614Y-66959571D01*
X130449287Y-66932218D01*
X130519082Y-66929068D01*
X130577229Y-66961819D01*
X132878729Y-69263319D01*
X132912214Y-69324642D01*
X132907230Y-69394334D01*
X132865358Y-69450267D01*
X132799894Y-69474684D01*
X132791048Y-69475000D01*
X130800000Y-69475000D01*
X130800000Y-76076000D01*
X130780315Y-76143039D01*
X130727511Y-76188794D01*
X130676000Y-76200000D01*
X120774000Y-76200000D01*
X120706961Y-76180315D01*
X120661206Y-76127511D01*
X120650000Y-76076000D01*
X120650000Y-60999994D01*
X128494859Y-60999994D01*
X128494859Y-61000005D01*
X128515385Y-61247729D01*
X128515387Y-61247738D01*
X128576412Y-61488717D01*
X128676266Y-61716364D01*
X128776564Y-61869882D01*
X129476212Y-61170234D01*
X129487482Y-61212292D01*
X129559890Y-61337708D01*
X129662292Y-61440110D01*
X129787708Y-61512518D01*
X129829765Y-61523787D01*
X129129942Y-62223609D01*
X129176768Y-62260055D01*
X129176770Y-62260056D01*
X129395385Y-62378364D01*
X129395396Y-62378369D01*
X129630506Y-62459083D01*
X129875707Y-62500000D01*
X130124293Y-62500000D01*
X130369493Y-62459083D01*
X130604603Y-62378369D01*
X130604614Y-62378364D01*
X130823228Y-62260057D01*
X130823231Y-62260055D01*
X130870056Y-62223609D01*
X130170234Y-61523787D01*
X130212292Y-61512518D01*
X130337708Y-61440110D01*
X130440110Y-61337708D01*
X130512518Y-61212292D01*
X130523787Y-61170235D01*
X131223434Y-61869882D01*
X131323731Y-61716369D01*
X131423587Y-61488717D01*
X131484612Y-61247738D01*
X131484614Y-61247729D01*
X131505141Y-61000005D01*
X131505141Y-60999994D01*
X131484614Y-60752270D01*
X131484612Y-60752261D01*
X131423587Y-60511282D01*
X131323731Y-60283630D01*
X131223434Y-60130116D01*
X130523787Y-60829764D01*
X130512518Y-60787708D01*
X130440110Y-60662292D01*
X130337708Y-60559890D01*
X130212292Y-60487482D01*
X130170235Y-60476212D01*
X130870057Y-59776390D01*
X130870056Y-59776389D01*
X130823229Y-59739943D01*
X130604614Y-59621635D01*
X130604603Y-59621630D01*
X130369493Y-59540916D01*
X130124293Y-59500000D01*
X129875707Y-59500000D01*
X129630506Y-59540916D01*
X129395396Y-59621630D01*
X129395390Y-59621632D01*
X129176761Y-59739949D01*
X129129942Y-59776388D01*
X129129942Y-59776390D01*
X129829765Y-60476212D01*
X129787708Y-60487482D01*
X129662292Y-60559890D01*
X129559890Y-60662292D01*
X129487482Y-60787708D01*
X129476212Y-60829764D01*
X128776564Y-60130116D01*
X128676267Y-60283632D01*
X128576412Y-60511282D01*
X128515387Y-60752261D01*
X128515385Y-60752270D01*
X128494859Y-60999994D01*
X120650000Y-60999994D01*
X120650000Y-25524000D01*
X120669685Y-25456961D01*
X120722489Y-25411206D01*
X120774000Y-25400000D01*
X190376000Y-25400000D01*
X190443039Y-25419685D01*
G37*
%TD.AperFunction*%
%TA.AperFunction,Conductor*%
G36*
X147623039Y-28315185D02*
G01*
X147668794Y-28367989D01*
X147680000Y-28419500D01*
X147680000Y-28545000D01*
X148380000Y-28545000D01*
X148380000Y-29045000D01*
X147680000Y-29045000D01*
X147680000Y-29193495D01*
X147718427Y-29386681D01*
X147718430Y-29386693D01*
X147793807Y-29568671D01*
X147793814Y-29568684D01*
X147903248Y-29732462D01*
X147903251Y-29732466D01*
X148042533Y-29871748D01*
X148042537Y-29871751D01*
X148206315Y-29981185D01*
X148206328Y-29981192D01*
X148388308Y-30056569D01*
X148430000Y-30064862D01*
X148430000Y-29261988D01*
X148439940Y-29279205D01*
X148495795Y-29335060D01*
X148564204Y-29374556D01*
X148640504Y-29395000D01*
X148719496Y-29395000D01*
X148795796Y-29374556D01*
X148864205Y-29335060D01*
X148920060Y-29279205D01*
X148930000Y-29261988D01*
X148930000Y-30064862D01*
X148971690Y-30056569D01*
X148971692Y-30056569D01*
X149153671Y-29981192D01*
X149153684Y-29981185D01*
X149317462Y-29871751D01*
X149317466Y-29871748D01*
X149456748Y-29732466D01*
X149456751Y-29732462D01*
X149566185Y-29568684D01*
X149566192Y-29568671D01*
X149641569Y-29386693D01*
X149641572Y-29386681D01*
X149679999Y-29193495D01*
X149680000Y-29193492D01*
X149680000Y-29045000D01*
X148980000Y-29045000D01*
X148980000Y-28545000D01*
X149680000Y-28545000D01*
X149680000Y-28419500D01*
X149699685Y-28352461D01*
X149752489Y-28306706D01*
X149804000Y-28295500D01*
X156196000Y-28295500D01*
X156263039Y-28315185D01*
X156308794Y-28367989D01*
X156320000Y-28419500D01*
X156320000Y-28545000D01*
X157020000Y-28545000D01*
X157020000Y-29045000D01*
X156320000Y-29045000D01*
X156320000Y-29095500D01*
X156300315Y-29162539D01*
X156247511Y-29208294D01*
X156196000Y-29219500D01*
X151832741Y-29219500D01*
X151832721Y-29219499D01*
X151826607Y-29219499D01*
X151703394Y-29219499D01*
X151602597Y-29239548D01*
X151602592Y-29239548D01*
X151582549Y-29243536D01*
X151582547Y-29243536D01*
X151535397Y-29263067D01*
X151468719Y-29290685D01*
X151468717Y-29290686D01*
X151366266Y-29359141D01*
X151366263Y-29359144D01*
X150731269Y-29994140D01*
X150644141Y-30081267D01*
X150635612Y-30094032D01*
X150629987Y-30102452D01*
X150575689Y-30183711D01*
X150575684Y-30183721D01*
X150562198Y-30216283D01*
X150562197Y-30216286D01*
X150528538Y-30297545D01*
X150528535Y-30297555D01*
X150518359Y-30348712D01*
X150518360Y-30348713D01*
X150508297Y-30399308D01*
X150508296Y-30399314D01*
X150504500Y-30418394D01*
X150504500Y-31794535D01*
X150484815Y-31861574D01*
X150432011Y-31907329D01*
X150362853Y-31917273D01*
X150333060Y-31909101D01*
X150332144Y-31908721D01*
X150243489Y-31884966D01*
X150185766Y-31869500D01*
X150034234Y-31869500D01*
X149887863Y-31908719D01*
X149756635Y-31984485D01*
X149750189Y-31989432D01*
X149748099Y-31986709D01*
X149700217Y-32012466D01*
X149630558Y-32007043D01*
X149574888Y-31964821D01*
X149569299Y-31955976D01*
X149456751Y-31787537D01*
X149456748Y-31787533D01*
X149317466Y-31648251D01*
X149317462Y-31648248D01*
X149153684Y-31538814D01*
X149153671Y-31538807D01*
X148971691Y-31463429D01*
X148971683Y-31463427D01*
X148930000Y-31455135D01*
X148930000Y-32258011D01*
X148920060Y-32240795D01*
X148864205Y-32184940D01*
X148795796Y-32145444D01*
X148719496Y-32125000D01*
X148640504Y-32125000D01*
X148564204Y-32145444D01*
X148495795Y-32184940D01*
X148439940Y-32240795D01*
X148430000Y-32258011D01*
X148430000Y-31455136D01*
X148429999Y-31455135D01*
X148388316Y-31463427D01*
X148388308Y-31463429D01*
X148206328Y-31538807D01*
X148206315Y-31538814D01*
X148042537Y-31648248D01*
X148042533Y-31648251D01*
X147903251Y-31787533D01*
X147903248Y-31787537D01*
X147793814Y-31951315D01*
X147793807Y-31951328D01*
X147718430Y-32133306D01*
X147718427Y-32133318D01*
X147680000Y-32326504D01*
X147680000Y-32725000D01*
X148380000Y-32725000D01*
X148380000Y-33225000D01*
X147680000Y-33225000D01*
X147680000Y-33623495D01*
X147718427Y-33816681D01*
X147718430Y-33816693D01*
X147793807Y-33998671D01*
X147793814Y-33998684D01*
X147903248Y-34162462D01*
X147903251Y-34162466D01*
X148042533Y-34301748D01*
X148042537Y-34301751D01*
X148206315Y-34411185D01*
X148206328Y-34411192D01*
X148388308Y-34486569D01*
X148430000Y-34494862D01*
X148430000Y-33691988D01*
X148439940Y-33709205D01*
X148495795Y-33765060D01*
X148564204Y-33804556D01*
X148640504Y-33825000D01*
X148719496Y-33825000D01*
X148795796Y-33804556D01*
X148864205Y-33765060D01*
X148920060Y-33709205D01*
X148930000Y-33691988D01*
X148930000Y-34494862D01*
X148971690Y-34486569D01*
X148971692Y-34486569D01*
X149153671Y-34411192D01*
X149153684Y-34411185D01*
X149317462Y-34301751D01*
X149317466Y-34301748D01*
X149456748Y-34162466D01*
X149456751Y-34162462D01*
X149566185Y-33998684D01*
X149566192Y-33998671D01*
X149641569Y-33816693D01*
X149641572Y-33816681D01*
X149679999Y-33623495D01*
X149680000Y-33623492D01*
X149680000Y-33076044D01*
X149699685Y-33009005D01*
X149752489Y-32963250D01*
X149821647Y-32953306D01*
X149866000Y-32968657D01*
X149874274Y-32973434D01*
X149887208Y-32980902D01*
X149887865Y-32981281D01*
X150034234Y-33020500D01*
X150034236Y-33020500D01*
X150185764Y-33020500D01*
X150185766Y-33020500D01*
X150332135Y-32981281D01*
X150332145Y-32981275D01*
X150333048Y-32980902D01*
X150333883Y-32980812D01*
X150339986Y-32979177D01*
X150340241Y-32980128D01*
X150402518Y-32973434D01*
X150464997Y-33004710D01*
X150500649Y-33064799D01*
X150504500Y-33095464D01*
X150504500Y-35393426D01*
X150484815Y-35460465D01*
X150432011Y-35506220D01*
X150406287Y-35514715D01*
X150397851Y-35516508D01*
X150397845Y-35516510D01*
X150224923Y-35593501D01*
X150224918Y-35593504D01*
X150071782Y-35704764D01*
X149945119Y-35845438D01*
X149932992Y-35866442D01*
X149913288Y-35892121D01*
X149826489Y-35978920D01*
X149826486Y-35978923D01*
X149461270Y-36344139D01*
X149461267Y-36344142D01*
X149429240Y-36376169D01*
X149374142Y-36431266D01*
X149346850Y-36472112D01*
X149346849Y-36472111D01*
X149305689Y-36533712D01*
X149305685Y-36533719D01*
X149292353Y-36565908D01*
X149292353Y-36565909D01*
X149258538Y-36647545D01*
X149258535Y-36647555D01*
X149234500Y-36768389D01*
X149234500Y-37789547D01*
X149214815Y-37856586D01*
X149198181Y-37877228D01*
X144584675Y-42490734D01*
X139936270Y-47139139D01*
X139936267Y-47139142D01*
X139905406Y-47170003D01*
X139849140Y-47226268D01*
X139829485Y-47255686D01*
X139829483Y-47255689D01*
X139780688Y-47328714D01*
X139758658Y-47381900D01*
X139747275Y-47409379D01*
X139733536Y-47442548D01*
X139726339Y-47478732D01*
X139726340Y-47478733D01*
X139713296Y-47544312D01*
X139709813Y-47561819D01*
X139709500Y-47563394D01*
X139709500Y-64196605D01*
X139718037Y-64239526D01*
X139718037Y-64239535D01*
X139733534Y-64317443D01*
X139733540Y-64317461D01*
X139733804Y-64318098D01*
X139733801Y-64318099D01*
X139733810Y-64318111D01*
X139780685Y-64431281D01*
X139780687Y-64431284D01*
X139814914Y-64482507D01*
X139814915Y-64482509D01*
X139849140Y-64533731D01*
X139849141Y-64533732D01*
X139849142Y-64533733D01*
X139936267Y-64620858D01*
X139936268Y-64620858D01*
X139943335Y-64627925D01*
X139943334Y-64627925D01*
X139943338Y-64627928D01*
X142423228Y-67107819D01*
X142456713Y-67169142D01*
X142451729Y-67238834D01*
X142409857Y-67294767D01*
X142344393Y-67319184D01*
X142335547Y-67319500D01*
X141915452Y-67319500D01*
X141848413Y-67299815D01*
X141827771Y-67283181D01*
X137650198Y-63105608D01*
X137650178Y-63105586D01*
X137558733Y-63014141D01*
X137507509Y-62979915D01*
X137456287Y-62945689D01*
X137456286Y-62945688D01*
X137456283Y-62945686D01*
X137456280Y-62945685D01*
X137375792Y-62912347D01*
X137342453Y-62898537D01*
X137332427Y-62896543D01*
X137282029Y-62886518D01*
X137221610Y-62874500D01*
X137221607Y-62874500D01*
X137221606Y-62874500D01*
X135369500Y-62874500D01*
X135302461Y-62854815D01*
X135256706Y-62802011D01*
X135245500Y-62750500D01*
X135245500Y-61952308D01*
X135265185Y-61885269D01*
X135281819Y-61864627D01*
X135976212Y-61170234D01*
X135987482Y-61212292D01*
X136059890Y-61337708D01*
X136162292Y-61440110D01*
X136287708Y-61512518D01*
X136329765Y-61523787D01*
X135629942Y-62223609D01*
X135676768Y-62260055D01*
X135676770Y-62260056D01*
X135895385Y-62378364D01*
X135895396Y-62378369D01*
X136130506Y-62459083D01*
X136375707Y-62500000D01*
X136624293Y-62500000D01*
X136869493Y-62459083D01*
X137104603Y-62378369D01*
X137104614Y-62378364D01*
X137323228Y-62260057D01*
X137323231Y-62260055D01*
X137370056Y-62223609D01*
X136670234Y-61523787D01*
X136712292Y-61512518D01*
X136837708Y-61440110D01*
X136940110Y-61337708D01*
X137012518Y-61212292D01*
X137023787Y-61170235D01*
X137723434Y-61869882D01*
X137823731Y-61716369D01*
X137923587Y-61488717D01*
X137984612Y-61247738D01*
X137984614Y-61247729D01*
X138005141Y-61000005D01*
X138005141Y-60999994D01*
X137984614Y-60752270D01*
X137984612Y-60752261D01*
X137923587Y-60511282D01*
X137823731Y-60283630D01*
X137723434Y-60130116D01*
X137023787Y-60829764D01*
X137012518Y-60787708D01*
X136940110Y-60662292D01*
X136837708Y-60559890D01*
X136712292Y-60487482D01*
X136670235Y-60476212D01*
X137370057Y-59776390D01*
X137370056Y-59776389D01*
X137323229Y-59739943D01*
X137104614Y-59621635D01*
X137104603Y-59621630D01*
X136869493Y-59540916D01*
X136624293Y-59500000D01*
X136375707Y-59500000D01*
X136130506Y-59540916D01*
X135895396Y-59621630D01*
X135895390Y-59621632D01*
X135676761Y-59739949D01*
X135629942Y-59776388D01*
X135629942Y-59776390D01*
X136329765Y-60476212D01*
X136287708Y-60487482D01*
X136162292Y-60559890D01*
X136059890Y-60662292D01*
X135987482Y-60787708D01*
X135976212Y-60829764D01*
X135276564Y-60130116D01*
X135176268Y-60283630D01*
X135132737Y-60382872D01*
X135087780Y-60436357D01*
X135021044Y-60457047D01*
X134953717Y-60438372D01*
X134931500Y-60420742D01*
X128296819Y-53786061D01*
X128263334Y-53724738D01*
X128260500Y-53698380D01*
X128260500Y-42254994D01*
X129229357Y-42254994D01*
X129229357Y-42255005D01*
X129249890Y-42502812D01*
X129249892Y-42502824D01*
X129310936Y-42743881D01*
X129410826Y-42971606D01*
X129546833Y-43179782D01*
X129546836Y-43179785D01*
X129715256Y-43362738D01*
X129911491Y-43515474D01*
X130130190Y-43633828D01*
X130365386Y-43714571D01*
X130610665Y-43755500D01*
X130859335Y-43755500D01*
X131104614Y-43714571D01*
X131339810Y-43633828D01*
X131558509Y-43515474D01*
X131754744Y-43362738D01*
X131923164Y-43179785D01*
X132059173Y-42971607D01*
X132059175Y-42971603D01*
X132066595Y-42954689D01*
X132111551Y-42901203D01*
X132178287Y-42880514D01*
X132180150Y-42880500D01*
X135789850Y-42880500D01*
X135856889Y-42900185D01*
X135902644Y-42952989D01*
X135903405Y-42954689D01*
X135910824Y-42971603D01*
X136046833Y-43179782D01*
X136046836Y-43179785D01*
X136215256Y-43362738D01*
X136411491Y-43515474D01*
X136630190Y-43633828D01*
X136865386Y-43714571D01*
X137110665Y-43755500D01*
X137359335Y-43755500D01*
X137604614Y-43714571D01*
X137839810Y-43633828D01*
X138058509Y-43515474D01*
X138254744Y-43362738D01*
X138423164Y-43179785D01*
X138559173Y-42971607D01*
X138659063Y-42743881D01*
X138720108Y-42502821D01*
X138721110Y-42490734D01*
X138740643Y-42255005D01*
X138740643Y-42254994D01*
X138720109Y-42007187D01*
X138720107Y-42007175D01*
X138659063Y-41766118D01*
X138559173Y-41538393D01*
X138423166Y-41330217D01*
X138401557Y-41306744D01*
X138254744Y-41147262D01*
X138058509Y-40994526D01*
X138058507Y-40994525D01*
X138058506Y-40994524D01*
X137839811Y-40876172D01*
X137839802Y-40876169D01*
X137604616Y-40795429D01*
X137359335Y-40754500D01*
X137110665Y-40754500D01*
X136865383Y-40795429D01*
X136630197Y-40876169D01*
X136630188Y-40876172D01*
X136411493Y-40994524D01*
X136215257Y-41147261D01*
X136046833Y-41330217D01*
X135910824Y-41538396D01*
X135903405Y-41555311D01*
X135858449Y-41608797D01*
X135791713Y-41629486D01*
X135789850Y-41629500D01*
X132180150Y-41629500D01*
X132113111Y-41609815D01*
X132067356Y-41557011D01*
X132066595Y-41555311D01*
X132059175Y-41538396D01*
X131923166Y-41330217D01*
X131901557Y-41306744D01*
X131754744Y-41147262D01*
X131558509Y-40994526D01*
X131558507Y-40994525D01*
X131558506Y-40994524D01*
X131339811Y-40876172D01*
X131339802Y-40876169D01*
X131104616Y-40795429D01*
X130859335Y-40754500D01*
X130610665Y-40754500D01*
X130365383Y-40795429D01*
X130130197Y-40876169D01*
X130130188Y-40876172D01*
X129911493Y-40994524D01*
X129715257Y-41147261D01*
X129546833Y-41330217D01*
X129410826Y-41538393D01*
X129310936Y-41766118D01*
X129249892Y-42007175D01*
X129249890Y-42007187D01*
X129229357Y-42254994D01*
X128260500Y-42254994D01*
X128260500Y-38410451D01*
X128280185Y-38343412D01*
X128296814Y-38322774D01*
X129023123Y-37596465D01*
X129084444Y-37562982D01*
X129154135Y-37567966D01*
X129210069Y-37609838D01*
X129234486Y-37675302D01*
X129234379Y-37694386D01*
X129233809Y-37701267D01*
X129229358Y-37754994D01*
X129229357Y-37755003D01*
X129229357Y-37755005D01*
X129249890Y-38002812D01*
X129249892Y-38002824D01*
X129310936Y-38243881D01*
X129410826Y-38471606D01*
X129546833Y-38679782D01*
X129546836Y-38679785D01*
X129715256Y-38862738D01*
X129911491Y-39015474D01*
X130130190Y-39133828D01*
X130365386Y-39214571D01*
X130610665Y-39255500D01*
X130859335Y-39255500D01*
X131104614Y-39214571D01*
X131339810Y-39133828D01*
X131558509Y-39015474D01*
X131754744Y-38862738D01*
X131923164Y-38679785D01*
X132059173Y-38471607D01*
X132059175Y-38471603D01*
X132066595Y-38454689D01*
X132111551Y-38401203D01*
X132178287Y-38380514D01*
X132180150Y-38380500D01*
X135789850Y-38380500D01*
X135856889Y-38400185D01*
X135902644Y-38452989D01*
X135903405Y-38454689D01*
X135910824Y-38471603D01*
X136046833Y-38679782D01*
X136046836Y-38679785D01*
X136215256Y-38862738D01*
X136411491Y-39015474D01*
X136630190Y-39133828D01*
X136865386Y-39214571D01*
X137110665Y-39255500D01*
X137359335Y-39255500D01*
X137604614Y-39214571D01*
X137839810Y-39133828D01*
X138058509Y-39015474D01*
X138254744Y-38862738D01*
X138423164Y-38679785D01*
X138559173Y-38471607D01*
X138659063Y-38243881D01*
X138720108Y-38002821D01*
X138720109Y-38002812D01*
X138740643Y-37755005D01*
X138740643Y-37754994D01*
X138720109Y-37507187D01*
X138720107Y-37507175D01*
X138659063Y-37266118D01*
X138559173Y-37038393D01*
X138423166Y-36830217D01*
X138366249Y-36768389D01*
X138254744Y-36647262D01*
X138058509Y-36494526D01*
X138058507Y-36494525D01*
X138058506Y-36494524D01*
X137839811Y-36376172D01*
X137839802Y-36376169D01*
X137604616Y-36295429D01*
X137359335Y-36254500D01*
X137110665Y-36254500D01*
X136865383Y-36295429D01*
X136630197Y-36376169D01*
X136630188Y-36376172D01*
X136411493Y-36494524D01*
X136263508Y-36609706D01*
X136215256Y-36647262D01*
X136214993Y-36647548D01*
X136046833Y-36830217D01*
X135910824Y-37038396D01*
X135903405Y-37055311D01*
X135858449Y-37108797D01*
X135791713Y-37129486D01*
X135789850Y-37129500D01*
X132180150Y-37129500D01*
X132113111Y-37109815D01*
X132067356Y-37057011D01*
X132066595Y-37055311D01*
X132059175Y-37038396D01*
X131923166Y-36830217D01*
X131866249Y-36768389D01*
X131754744Y-36647262D01*
X131558509Y-36494526D01*
X131558507Y-36494525D01*
X131558506Y-36494524D01*
X131339811Y-36376172D01*
X131339802Y-36376169D01*
X131104616Y-36295429D01*
X130859335Y-36254500D01*
X130664451Y-36254500D01*
X130597412Y-36234815D01*
X130551657Y-36182011D01*
X130541713Y-36112853D01*
X130570738Y-36049297D01*
X130576770Y-36042819D01*
X133002478Y-33617111D01*
X135434353Y-31185235D01*
X135495674Y-31151752D01*
X135554125Y-31153143D01*
X135588780Y-31162428D01*
X135654592Y-31180063D01*
X135825319Y-31195000D01*
X135889999Y-31200659D01*
X135890000Y-31200659D01*
X135890001Y-31200659D01*
X135954681Y-31195000D01*
X136125408Y-31180063D01*
X136353663Y-31118903D01*
X136567830Y-31019035D01*
X136761401Y-30883495D01*
X136928495Y-30716401D01*
X137058425Y-30530842D01*
X137113002Y-30487217D01*
X137182500Y-30480023D01*
X137244855Y-30511546D01*
X137261575Y-30530842D01*
X137391500Y-30716395D01*
X137391505Y-30716401D01*
X137558599Y-30883495D01*
X137635135Y-30937086D01*
X137752165Y-31019032D01*
X137752167Y-31019033D01*
X137752170Y-31019035D01*
X137966337Y-31118903D01*
X138194592Y-31180063D01*
X138365319Y-31195000D01*
X138429999Y-31200659D01*
X138430000Y-31200659D01*
X138430001Y-31200659D01*
X138494681Y-31195000D01*
X138665408Y-31180063D01*
X138893663Y-31118903D01*
X139107830Y-31019035D01*
X139301401Y-30883495D01*
X139468495Y-30716401D01*
X139604035Y-30522830D01*
X139703903Y-30308663D01*
X139765063Y-30080408D01*
X139785659Y-29845000D01*
X139765063Y-29609592D01*
X139738143Y-29509125D01*
X139739806Y-29439276D01*
X139770235Y-29389353D01*
X140827772Y-28331819D01*
X140889095Y-28298334D01*
X140915453Y-28295500D01*
X147556000Y-28295500D01*
X147623039Y-28315185D01*
G37*
%TD.AperFunction*%
%TA.AperFunction,Conductor*%
G36*
X142435703Y-56325741D02*
G01*
X142442181Y-56331773D01*
X142480586Y-56370178D01*
X142480608Y-56370198D01*
X143111016Y-57000606D01*
X143111045Y-57000637D01*
X143201264Y-57090856D01*
X143201267Y-57090858D01*
X143278190Y-57142256D01*
X143303710Y-57159309D01*
X143303712Y-57159310D01*
X143303715Y-57159312D01*
X143370396Y-57186931D01*
X143370398Y-57186933D01*
X143410640Y-57203601D01*
X143417548Y-57206463D01*
X143477971Y-57218481D01*
X143538393Y-57230500D01*
X143538394Y-57230500D01*
X153668381Y-57230500D01*
X153735420Y-57250185D01*
X153756062Y-57266819D01*
X155917621Y-59428378D01*
X155951106Y-59489701D01*
X155946122Y-59559393D01*
X155904250Y-59615326D01*
X155888957Y-59625114D01*
X155674988Y-59740907D01*
X155606660Y-59755502D01*
X155541288Y-59730839D01*
X155499627Y-59674748D01*
X155492751Y-59645735D01*
X155484878Y-59575862D01*
X155484878Y-59575861D01*
X155425333Y-59405692D01*
X155416661Y-59391892D01*
X155416660Y-59391892D01*
X154736560Y-60071990D01*
X154736548Y-60072006D01*
X154634240Y-60174314D01*
X154353553Y-60455000D01*
X154408463Y-60509909D01*
X154714280Y-60815726D01*
X154714282Y-60815730D01*
X154965871Y-61067318D01*
X154999356Y-61128641D01*
X154994372Y-61198332D01*
X154965871Y-61242680D01*
X154736560Y-61471990D01*
X154736548Y-61472006D01*
X154634240Y-61574314D01*
X154634240Y-61574315D01*
X154353553Y-61855000D01*
X154716660Y-62218106D01*
X154716661Y-62218106D01*
X154725334Y-62204306D01*
X154725334Y-62204305D01*
X154784876Y-62034144D01*
X154785056Y-62033358D01*
X154785311Y-62032901D01*
X154787177Y-62027570D01*
X154788110Y-62027896D01*
X154819164Y-61972379D01*
X154872875Y-61943049D01*
X154872570Y-61942177D01*
X154877870Y-61940322D01*
X154878358Y-61940056D01*
X154879144Y-61939876D01*
X155049300Y-61880336D01*
X155112111Y-61840869D01*
X155179348Y-61821868D01*
X155246183Y-61842235D01*
X155273433Y-61869557D01*
X155276564Y-61869882D01*
X155976212Y-61170233D01*
X155987482Y-61212292D01*
X156059890Y-61337708D01*
X156162292Y-61440110D01*
X156287708Y-61512518D01*
X156329765Y-61523787D01*
X155629942Y-62223609D01*
X155676768Y-62260055D01*
X155676770Y-62260056D01*
X155895385Y-62378364D01*
X155895396Y-62378369D01*
X156130506Y-62459083D01*
X156375707Y-62500000D01*
X156624293Y-62500000D01*
X156869493Y-62459083D01*
X157104603Y-62378369D01*
X157104614Y-62378364D01*
X157323228Y-62260057D01*
X157323231Y-62260055D01*
X157370056Y-62223609D01*
X156670234Y-61523787D01*
X156712292Y-61512518D01*
X156837708Y-61440110D01*
X156940110Y-61337708D01*
X157012518Y-61212292D01*
X157023787Y-61170235D01*
X157723434Y-61869882D01*
X157823732Y-61716367D01*
X157867262Y-61617128D01*
X157912217Y-61563642D01*
X157978953Y-61542951D01*
X158046281Y-61561625D01*
X158068499Y-61579256D01*
X159114849Y-62625606D01*
X159114878Y-62625637D01*
X159205096Y-62715855D01*
X159205100Y-62715858D01*
X159307540Y-62784307D01*
X159307546Y-62784310D01*
X159307547Y-62784311D01*
X159421381Y-62831463D01*
X159465357Y-62840210D01*
X159542224Y-62855499D01*
X159542225Y-62855500D01*
X159542226Y-62855500D01*
X159542227Y-62855500D01*
X164852520Y-62855500D01*
X164919559Y-62875185D01*
X164965314Y-62927989D01*
X164975258Y-62997147D01*
X164959907Y-63041500D01*
X164907821Y-63131715D01*
X164907818Y-63131722D01*
X164849327Y-63311740D01*
X164849326Y-63311744D01*
X164845216Y-63350848D01*
X164831678Y-63479651D01*
X164805093Y-63544266D01*
X164796038Y-63554370D01*
X161517229Y-66833181D01*
X161455906Y-66866666D01*
X161429548Y-66869500D01*
X157544632Y-66869500D01*
X157477593Y-66849815D01*
X157431838Y-66797011D01*
X157421894Y-66727853D01*
X157450919Y-66664297D01*
X157468469Y-66647647D01*
X157482004Y-66637112D01*
X157519744Y-66607738D01*
X157688164Y-66424785D01*
X157824173Y-66216607D01*
X157924063Y-65988881D01*
X157985108Y-65747821D01*
X157994776Y-65631144D01*
X158005643Y-65500005D01*
X158005643Y-65499994D01*
X157985109Y-65252187D01*
X157985107Y-65252175D01*
X157924063Y-65011118D01*
X157824173Y-64783393D01*
X157688166Y-64575217D01*
X157649975Y-64533731D01*
X157519744Y-64392262D01*
X157323509Y-64239526D01*
X157323507Y-64239525D01*
X157323506Y-64239524D01*
X157104811Y-64121172D01*
X157104802Y-64121169D01*
X156869616Y-64040429D01*
X156624335Y-63999500D01*
X156375665Y-63999500D01*
X156130383Y-64040429D01*
X155895197Y-64121169D01*
X155895188Y-64121172D01*
X155676493Y-64239524D01*
X155480257Y-64392261D01*
X155311833Y-64575217D01*
X155175824Y-64783396D01*
X155168405Y-64800311D01*
X155123449Y-64853797D01*
X155056713Y-64874486D01*
X155054850Y-64874500D01*
X151445150Y-64874500D01*
X151378111Y-64854815D01*
X151332356Y-64802011D01*
X151331595Y-64800311D01*
X151324175Y-64783396D01*
X151188166Y-64575217D01*
X151149975Y-64533731D01*
X151019744Y-64392262D01*
X150823509Y-64239526D01*
X150823507Y-64239525D01*
X150823506Y-64239524D01*
X150604811Y-64121172D01*
X150604802Y-64121169D01*
X150369616Y-64040429D01*
X150124335Y-63999500D01*
X149875665Y-63999500D01*
X149630383Y-64040429D01*
X149395197Y-64121169D01*
X149395188Y-64121172D01*
X149176493Y-64239524D01*
X148980257Y-64392261D01*
X148811833Y-64575217D01*
X148808306Y-64580617D01*
X148755158Y-64625971D01*
X148685926Y-64635392D01*
X148622592Y-64605888D01*
X148585262Y-64546826D01*
X148580500Y-64512791D01*
X148580500Y-62571660D01*
X152236892Y-62571660D01*
X152236892Y-62571661D01*
X152250692Y-62580333D01*
X152250691Y-62580333D01*
X152420861Y-62639878D01*
X152599997Y-62660062D01*
X152600003Y-62660062D01*
X152779138Y-62639878D01*
X152779141Y-62639877D01*
X152949305Y-62580334D01*
X152949306Y-62580334D01*
X152963106Y-62571661D01*
X152963106Y-62571660D01*
X153636892Y-62571660D01*
X153636892Y-62571661D01*
X153650692Y-62580333D01*
X153650691Y-62580333D01*
X153820861Y-62639878D01*
X153999997Y-62660062D01*
X154000003Y-62660062D01*
X154179138Y-62639878D01*
X154179141Y-62639877D01*
X154349305Y-62580334D01*
X154349306Y-62580334D01*
X154363106Y-62571661D01*
X154363106Y-62571660D01*
X154000001Y-62208553D01*
X154000000Y-62208553D01*
X153636892Y-62571660D01*
X152963106Y-62571660D01*
X152600001Y-62208553D01*
X152600000Y-62208553D01*
X152236892Y-62571660D01*
X148580500Y-62571660D01*
X148580500Y-61986292D01*
X148600185Y-61919253D01*
X148652989Y-61873498D01*
X148717798Y-61864179D01*
X148717839Y-61863792D01*
X148719380Y-61863951D01*
X148722147Y-61863554D01*
X148724087Y-61864439D01*
X148776564Y-61869882D01*
X149476212Y-61170234D01*
X149487482Y-61212292D01*
X149559890Y-61337708D01*
X149662292Y-61440110D01*
X149787708Y-61512518D01*
X149829765Y-61523787D01*
X149129942Y-62223609D01*
X149176768Y-62260055D01*
X149176770Y-62260056D01*
X149395385Y-62378364D01*
X149395396Y-62378369D01*
X149630506Y-62459083D01*
X149875707Y-62500000D01*
X150124293Y-62500000D01*
X150369493Y-62459083D01*
X150604603Y-62378369D01*
X150604614Y-62378364D01*
X150823228Y-62260057D01*
X150823231Y-62260055D01*
X150870056Y-62223609D01*
X150170234Y-61523787D01*
X150212292Y-61512518D01*
X150337708Y-61440110D01*
X150440110Y-61337708D01*
X150512518Y-61212292D01*
X150523787Y-61170234D01*
X151223434Y-61869882D01*
X151247209Y-61833493D01*
X151300355Y-61788137D01*
X151369586Y-61778713D01*
X151416989Y-61796321D01*
X151550698Y-61880336D01*
X151720859Y-61939878D01*
X151721644Y-61940057D01*
X151722099Y-61940311D01*
X151727430Y-61942177D01*
X151727103Y-61943110D01*
X151782623Y-61974166D01*
X151811952Y-62027874D01*
X151812822Y-62027570D01*
X151814670Y-62032852D01*
X151814940Y-62033346D01*
X151815121Y-62034142D01*
X151874663Y-62204300D01*
X151874663Y-62204301D01*
X151883338Y-62218107D01*
X152246446Y-61855000D01*
X152226555Y-61835109D01*
X152500000Y-61835109D01*
X152500000Y-61874891D01*
X152515224Y-61911645D01*
X152543355Y-61939776D01*
X152580109Y-61955000D01*
X152619891Y-61955000D01*
X152656645Y-61939776D01*
X152684776Y-61911645D01*
X152700000Y-61874891D01*
X152700000Y-61855000D01*
X152953553Y-61855000D01*
X153300000Y-62201446D01*
X153300001Y-62201446D01*
X153633946Y-61867501D01*
X153633946Y-61867499D01*
X153601556Y-61835109D01*
X153900000Y-61835109D01*
X153900000Y-61874891D01*
X153915224Y-61911645D01*
X153943355Y-61939776D01*
X153980109Y-61955000D01*
X154019891Y-61955000D01*
X154056645Y-61939776D01*
X154084776Y-61911645D01*
X154100000Y-61874891D01*
X154100000Y-61835109D01*
X154084776Y-61798355D01*
X154056645Y-61770224D01*
X154019891Y-61755000D01*
X153980109Y-61755000D01*
X153943355Y-61770224D01*
X153915224Y-61798355D01*
X153900000Y-61835109D01*
X153601556Y-61835109D01*
X153287501Y-61521053D01*
X153287500Y-61521053D01*
X152953553Y-61855000D01*
X152700000Y-61855000D01*
X152700000Y-61835109D01*
X152684776Y-61798355D01*
X152656645Y-61770224D01*
X152619891Y-61755000D01*
X152580109Y-61755000D01*
X152543355Y-61770224D01*
X152515224Y-61798355D01*
X152500000Y-61835109D01*
X152226555Y-61835109D01*
X151844573Y-61453127D01*
X151844571Y-61453124D01*
X151634127Y-61242680D01*
X151600642Y-61181357D01*
X151603949Y-61135109D01*
X151800000Y-61135109D01*
X151800000Y-61174891D01*
X151815224Y-61211645D01*
X151843355Y-61239776D01*
X151880109Y-61255000D01*
X151919891Y-61255000D01*
X151956645Y-61239776D01*
X151984776Y-61211645D01*
X152000000Y-61174891D01*
X152000000Y-61154999D01*
X152253553Y-61154999D01*
X152294821Y-61196266D01*
X152294822Y-61196268D01*
X152587500Y-61488946D01*
X152921446Y-61155000D01*
X152921446Y-61154999D01*
X152901556Y-61135109D01*
X153175000Y-61135109D01*
X153175000Y-61174891D01*
X153190224Y-61211645D01*
X153218355Y-61239776D01*
X153255109Y-61255000D01*
X153294891Y-61255000D01*
X153331645Y-61239776D01*
X153359776Y-61211645D01*
X153375000Y-61174891D01*
X153375000Y-61154999D01*
X153653553Y-61154999D01*
X153653553Y-61155001D01*
X153999998Y-61501446D01*
X153999999Y-61501446D01*
X154305179Y-61196267D01*
X154346446Y-61155000D01*
X154326555Y-61135109D01*
X154600000Y-61135109D01*
X154600000Y-61174891D01*
X154615224Y-61211645D01*
X154643355Y-61239776D01*
X154680109Y-61255000D01*
X154719891Y-61255000D01*
X154756645Y-61239776D01*
X154784776Y-61211645D01*
X154800000Y-61174891D01*
X154800000Y-61135109D01*
X154784776Y-61098355D01*
X154756645Y-61070224D01*
X154719891Y-61055000D01*
X154680109Y-61055000D01*
X154643355Y-61070224D01*
X154615224Y-61098355D01*
X154600000Y-61135109D01*
X154326555Y-61135109D01*
X153999999Y-60808553D01*
X153999998Y-60808553D01*
X153653553Y-61154999D01*
X153375000Y-61154999D01*
X153375000Y-61135109D01*
X153359776Y-61098355D01*
X153331645Y-61070224D01*
X153294891Y-61055000D01*
X153255109Y-61055000D01*
X153218355Y-61070224D01*
X153190224Y-61098355D01*
X153175000Y-61135109D01*
X152901556Y-61135109D01*
X152587500Y-60821053D01*
X152534241Y-60874313D01*
X152534240Y-60874314D01*
X152253553Y-61154999D01*
X152000000Y-61154999D01*
X152000000Y-61135109D01*
X151984776Y-61098355D01*
X151956645Y-61070224D01*
X151919891Y-61055000D01*
X151880109Y-61055000D01*
X151843355Y-61070224D01*
X151815224Y-61098355D01*
X151800000Y-61135109D01*
X151603949Y-61135109D01*
X151605626Y-61111665D01*
X151634127Y-61067318D01*
X151827132Y-60874314D01*
X152246446Y-60455000D01*
X152226555Y-60435109D01*
X152500000Y-60435109D01*
X152500000Y-60474891D01*
X152515224Y-60511645D01*
X152543355Y-60539776D01*
X152580109Y-60555000D01*
X152619891Y-60555000D01*
X152656645Y-60539776D01*
X152684776Y-60511645D01*
X152700000Y-60474891D01*
X152700000Y-60455000D01*
X152953553Y-60455000D01*
X153287500Y-60788946D01*
X153287501Y-60788946D01*
X153621446Y-60455001D01*
X153621446Y-60454999D01*
X153601556Y-60435109D01*
X153900000Y-60435109D01*
X153900000Y-60474891D01*
X153915224Y-60511645D01*
X153943355Y-60539776D01*
X153980109Y-60555000D01*
X154019891Y-60555000D01*
X154056645Y-60539776D01*
X154084776Y-60511645D01*
X154100000Y-60474891D01*
X154100000Y-60435109D01*
X154084776Y-60398355D01*
X154056645Y-60370224D01*
X154019891Y-60355000D01*
X153980109Y-60355000D01*
X153943355Y-60370224D01*
X153915224Y-60398355D01*
X153900000Y-60435109D01*
X153601556Y-60435109D01*
X153287501Y-60121053D01*
X153287500Y-60121053D01*
X152953553Y-60455000D01*
X152700000Y-60455000D01*
X152700000Y-60435109D01*
X152684776Y-60398355D01*
X152656645Y-60370224D01*
X152619891Y-60355000D01*
X152580109Y-60355000D01*
X152543355Y-60370224D01*
X152515224Y-60398355D01*
X152500000Y-60435109D01*
X152226555Y-60435109D01*
X151844573Y-60053127D01*
X151844571Y-60053124D01*
X151526556Y-59735109D01*
X151800000Y-59735109D01*
X151800000Y-59774891D01*
X151815224Y-59811645D01*
X151843355Y-59839776D01*
X151880109Y-59855000D01*
X151919891Y-59855000D01*
X151956645Y-59839776D01*
X151984776Y-59811645D01*
X152000000Y-59774891D01*
X152000000Y-59754999D01*
X152253553Y-59754999D01*
X152587500Y-60088946D01*
X152921446Y-59755000D01*
X152921446Y-59754999D01*
X152901556Y-59735109D01*
X153175000Y-59735109D01*
X153175000Y-59774891D01*
X153190224Y-59811645D01*
X153218355Y-59839776D01*
X153255109Y-59855000D01*
X153294891Y-59855000D01*
X153331645Y-59839776D01*
X153359776Y-59811645D01*
X153375000Y-59774891D01*
X153375000Y-59754999D01*
X153653553Y-59754999D01*
X153653553Y-59755001D01*
X153999998Y-60101446D01*
X153999999Y-60101446D01*
X154273578Y-59827868D01*
X154346446Y-59755000D01*
X154326555Y-59735109D01*
X154600000Y-59735109D01*
X154600000Y-59774891D01*
X154615224Y-59811645D01*
X154643355Y-59839776D01*
X154680109Y-59855000D01*
X154719891Y-59855000D01*
X154756645Y-59839776D01*
X154784776Y-59811645D01*
X154800000Y-59774891D01*
X154800000Y-59735109D01*
X154784776Y-59698355D01*
X154756645Y-59670224D01*
X154719891Y-59655000D01*
X154680109Y-59655000D01*
X154643355Y-59670224D01*
X154615224Y-59698355D01*
X154600000Y-59735109D01*
X154326555Y-59735109D01*
X153999999Y-59408553D01*
X153999998Y-59408553D01*
X153653553Y-59754999D01*
X153375000Y-59754999D01*
X153375000Y-59735109D01*
X153359776Y-59698355D01*
X153331645Y-59670224D01*
X153294891Y-59655000D01*
X153255109Y-59655000D01*
X153218355Y-59670224D01*
X153190224Y-59698355D01*
X153175000Y-59735109D01*
X152901556Y-59735109D01*
X152587500Y-59421053D01*
X152534241Y-59474313D01*
X152534240Y-59474314D01*
X152253553Y-59754999D01*
X152000000Y-59754999D01*
X152000000Y-59735109D01*
X151984776Y-59698355D01*
X151956645Y-59670224D01*
X151919891Y-59655000D01*
X151880109Y-59655000D01*
X151843355Y-59670224D01*
X151815224Y-59698355D01*
X151800000Y-59735109D01*
X151526556Y-59735109D01*
X151183338Y-59391891D01*
X151183337Y-59391891D01*
X151174667Y-59405691D01*
X151174662Y-59405701D01*
X151115122Y-59575858D01*
X151115121Y-59575861D01*
X151099364Y-59715712D01*
X151072297Y-59780126D01*
X151014702Y-59819681D01*
X150944865Y-59821818D01*
X150899982Y-59799682D01*
X150823230Y-59739943D01*
X150823228Y-59739942D01*
X150604614Y-59621635D01*
X150604603Y-59621630D01*
X150369493Y-59540916D01*
X150124293Y-59500000D01*
X149875707Y-59500000D01*
X149630506Y-59540916D01*
X149395396Y-59621630D01*
X149395390Y-59621632D01*
X149176761Y-59739949D01*
X149129942Y-59776388D01*
X149129942Y-59776390D01*
X149829765Y-60476212D01*
X149787708Y-60487482D01*
X149662292Y-60559890D01*
X149559890Y-60662292D01*
X149487482Y-60787708D01*
X149476212Y-60829764D01*
X148776564Y-60130116D01*
X148676267Y-60283632D01*
X148592745Y-60474045D01*
X148547789Y-60527531D01*
X148481053Y-60548221D01*
X148413725Y-60529546D01*
X148391509Y-60511917D01*
X148353734Y-60474143D01*
X148353732Y-60474141D01*
X146917927Y-59038337D01*
X151536891Y-59038337D01*
X151536891Y-59038338D01*
X151899998Y-59401446D01*
X151899999Y-59401446D01*
X152208559Y-59092888D01*
X152246446Y-59054999D01*
X152246446Y-59054998D01*
X152226557Y-59035109D01*
X152500000Y-59035109D01*
X152500000Y-59074891D01*
X152515224Y-59111645D01*
X152543355Y-59139776D01*
X152580109Y-59155000D01*
X152619891Y-59155000D01*
X152656645Y-59139776D01*
X152684776Y-59111645D01*
X152700000Y-59074891D01*
X152700000Y-59055000D01*
X152953553Y-59055000D01*
X153287500Y-59388946D01*
X153287501Y-59388946D01*
X153633946Y-59042499D01*
X153633946Y-59042498D01*
X153626557Y-59035109D01*
X153900000Y-59035109D01*
X153900000Y-59074891D01*
X153915224Y-59111645D01*
X153943355Y-59139776D01*
X153980109Y-59155000D01*
X154019891Y-59155000D01*
X154056645Y-59139776D01*
X154084776Y-59111645D01*
X154100000Y-59074891D01*
X154100000Y-59054998D01*
X154353553Y-59054998D01*
X154353553Y-59054999D01*
X154700000Y-59401446D01*
X154700001Y-59401446D01*
X155063107Y-59038338D01*
X155049301Y-59029663D01*
X154879142Y-58970121D01*
X154878346Y-58969940D01*
X154877883Y-58969681D01*
X154872570Y-58967822D01*
X154872895Y-58966890D01*
X154817370Y-58935827D01*
X154788049Y-58882125D01*
X154787177Y-58882431D01*
X154785321Y-58877128D01*
X154785057Y-58876644D01*
X154784878Y-58875862D01*
X154725333Y-58705692D01*
X154716661Y-58691892D01*
X154716660Y-58691892D01*
X154353553Y-59054998D01*
X154100000Y-59054998D01*
X154100000Y-59035109D01*
X154084776Y-58998355D01*
X154056645Y-58970224D01*
X154019891Y-58955000D01*
X153980109Y-58955000D01*
X153943355Y-58970224D01*
X153915224Y-58998355D01*
X153900000Y-59035109D01*
X153626557Y-59035109D01*
X153300000Y-58708553D01*
X152953553Y-59055000D01*
X152700000Y-59055000D01*
X152700000Y-59035109D01*
X152684776Y-58998355D01*
X152656645Y-58970224D01*
X152619891Y-58955000D01*
X152580109Y-58955000D01*
X152543355Y-58970224D01*
X152515224Y-58998355D01*
X152500000Y-59035109D01*
X152226557Y-59035109D01*
X151883338Y-58691891D01*
X151883337Y-58691891D01*
X151874667Y-58705691D01*
X151874662Y-58705701D01*
X151815119Y-58875866D01*
X151814939Y-58876656D01*
X151814682Y-58877113D01*
X151812823Y-58882429D01*
X151811891Y-58882103D01*
X151780824Y-58937631D01*
X151727124Y-58966952D01*
X151727429Y-58967823D01*
X151722145Y-58969671D01*
X151721656Y-58969939D01*
X151720866Y-58970119D01*
X151550701Y-59029662D01*
X151550691Y-59029667D01*
X151536891Y-59038337D01*
X146917927Y-59038337D01*
X146217927Y-58338337D01*
X152236891Y-58338337D01*
X152236891Y-58338338D01*
X152600000Y-58701446D01*
X152600001Y-58701446D01*
X152963107Y-58338338D01*
X152963105Y-58338337D01*
X153636891Y-58338337D01*
X153636891Y-58338338D01*
X154000000Y-58701446D01*
X154000001Y-58701446D01*
X154363107Y-58338338D01*
X154349304Y-58329665D01*
X154179138Y-58270121D01*
X154000003Y-58249938D01*
X153999997Y-58249938D01*
X153820861Y-58270121D01*
X153820858Y-58270122D01*
X153650701Y-58329662D01*
X153650691Y-58329667D01*
X153636891Y-58338337D01*
X152963105Y-58338337D01*
X152949304Y-58329665D01*
X152779138Y-58270121D01*
X152600003Y-58249938D01*
X152599997Y-58249938D01*
X152420861Y-58270121D01*
X152420858Y-58270122D01*
X152250701Y-58329662D01*
X152250691Y-58329667D01*
X152236891Y-58338337D01*
X146217927Y-58338337D01*
X145907928Y-58028338D01*
X145907925Y-58028334D01*
X145907925Y-58028335D01*
X145900858Y-58021268D01*
X145900858Y-58021267D01*
X145813733Y-57934142D01*
X145813732Y-57934141D01*
X145813731Y-57934140D01*
X145762509Y-57899915D01*
X145711286Y-57865688D01*
X145711283Y-57865686D01*
X145711280Y-57865685D01*
X145630792Y-57832347D01*
X145597453Y-57818537D01*
X145587427Y-57816543D01*
X145537029Y-57806518D01*
X145476610Y-57794500D01*
X145476607Y-57794500D01*
X145476606Y-57794500D01*
X144848748Y-57794500D01*
X144781709Y-57774815D01*
X144756600Y-57753474D01*
X144750873Y-57747114D01*
X144750869Y-57747110D01*
X144597734Y-57635851D01*
X144597729Y-57635848D01*
X144424807Y-57558857D01*
X144424802Y-57558855D01*
X144279001Y-57527865D01*
X144239646Y-57519500D01*
X144050354Y-57519500D01*
X144017897Y-57526398D01*
X143865197Y-57558855D01*
X143865192Y-57558857D01*
X143692270Y-57635848D01*
X143692265Y-57635851D01*
X143539129Y-57747111D01*
X143412466Y-57887785D01*
X143317821Y-58051715D01*
X143317818Y-58051722D01*
X143259327Y-58231740D01*
X143259326Y-58231744D01*
X143239540Y-58420000D01*
X143259326Y-58608256D01*
X143259327Y-58608259D01*
X143317818Y-58788277D01*
X143317821Y-58788284D01*
X143412467Y-58952216D01*
X143514185Y-59065185D01*
X143539129Y-59092888D01*
X143692265Y-59204148D01*
X143692270Y-59204151D01*
X143865192Y-59281142D01*
X143865197Y-59281144D01*
X144050354Y-59320500D01*
X144050355Y-59320500D01*
X144239644Y-59320500D01*
X144239646Y-59320500D01*
X144424803Y-59281144D01*
X144597730Y-59204151D01*
X144750871Y-59092888D01*
X144753788Y-59089647D01*
X144756600Y-59086526D01*
X144816087Y-59049879D01*
X144848748Y-59045500D01*
X145104548Y-59045500D01*
X145171587Y-59065185D01*
X145192229Y-59081819D01*
X147293181Y-61182771D01*
X147326666Y-61244094D01*
X147329500Y-61270452D01*
X147329500Y-64500574D01*
X147309815Y-64567613D01*
X147257011Y-64613368D01*
X147187853Y-64623312D01*
X147168611Y-64618960D01*
X147150665Y-64613368D01*
X147077433Y-64590548D01*
X147010881Y-64584500D01*
X147010878Y-64584500D01*
X146509111Y-64584500D01*
X146442573Y-64590546D01*
X146442566Y-64590548D01*
X146289433Y-64638265D01*
X146289429Y-64638267D01*
X146152170Y-64721242D01*
X146152165Y-64721246D01*
X146130231Y-64743181D01*
X146068908Y-64776666D01*
X146042550Y-64779500D01*
X145027480Y-64779500D01*
X144960441Y-64759815D01*
X144914686Y-64707011D01*
X144904742Y-64637853D01*
X144920093Y-64593500D01*
X144927531Y-64580617D01*
X144972179Y-64503284D01*
X145030674Y-64323256D01*
X145050460Y-64135000D01*
X145030674Y-63946744D01*
X144972179Y-63766716D01*
X144877533Y-63602784D01*
X144750871Y-63462112D01*
X144750870Y-63462111D01*
X144597734Y-63350851D01*
X144597729Y-63350848D01*
X144424807Y-63273857D01*
X144424802Y-63273855D01*
X144279001Y-63242865D01*
X144239646Y-63234500D01*
X144239645Y-63234500D01*
X144180453Y-63234500D01*
X144113414Y-63214815D01*
X144092772Y-63198181D01*
X142266819Y-61372228D01*
X142233334Y-61310905D01*
X142230500Y-61284547D01*
X142230500Y-56419454D01*
X142250185Y-56352415D01*
X142302989Y-56306660D01*
X142372147Y-56296716D01*
X142435703Y-56325741D01*
G37*
%TD.AperFunction*%
%TA.AperFunction,Conductor*%
G36*
X160776587Y-28315185D02*
G01*
X160797229Y-28331819D01*
X164438181Y-31972771D01*
X164471666Y-32034094D01*
X164474500Y-32060452D01*
X164474500Y-41094233D01*
X164454815Y-41161272D01*
X164402011Y-41207027D01*
X164332853Y-41216971D01*
X164269297Y-41187946D01*
X164258350Y-41177205D01*
X164231253Y-41147111D01*
X164078117Y-41035851D01*
X164078112Y-41035848D01*
X163905190Y-40958857D01*
X163905188Y-40958856D01*
X163873168Y-40952050D01*
X163811687Y-40918856D01*
X163777911Y-40857693D01*
X163781020Y-40792441D01*
X163786058Y-40776939D01*
X163805844Y-40588683D01*
X163786058Y-40400427D01*
X163727563Y-40220399D01*
X163632917Y-40056467D01*
X163579671Y-39997331D01*
X163557734Y-39972967D01*
X163527504Y-39909975D01*
X163525884Y-39889995D01*
X163525884Y-35968125D01*
X163525885Y-35968104D01*
X163525885Y-35838775D01*
X163501848Y-35717938D01*
X163501847Y-35717937D01*
X163501847Y-35717933D01*
X163471634Y-35644992D01*
X163462876Y-35584578D01*
X163465460Y-35560000D01*
X163445674Y-35371744D01*
X163391112Y-35203823D01*
X163387181Y-35191722D01*
X163387180Y-35191721D01*
X163387179Y-35191716D01*
X163292533Y-35027784D01*
X163165871Y-34887112D01*
X163165870Y-34887111D01*
X163012734Y-34775851D01*
X163012729Y-34775848D01*
X162839807Y-34698857D01*
X162839802Y-34698855D01*
X162694001Y-34667865D01*
X162654646Y-34659500D01*
X162465354Y-34659500D01*
X162432897Y-34666398D01*
X162280197Y-34698855D01*
X162280192Y-34698857D01*
X162107270Y-34775848D01*
X162107265Y-34775851D01*
X161954129Y-34887111D01*
X161827466Y-35027785D01*
X161732821Y-35191715D01*
X161732818Y-35191722D01*
X161674327Y-35371740D01*
X161674326Y-35371744D01*
X161654540Y-35560000D01*
X161674326Y-35748256D01*
X161674327Y-35748259D01*
X161732818Y-35928277D01*
X161732821Y-35928284D01*
X161827467Y-36092216D01*
X161954129Y-36232888D01*
X162107265Y-36344148D01*
X162107266Y-36344148D01*
X162107270Y-36344151D01*
X162179190Y-36376172D01*
X162201320Y-36386025D01*
X162254557Y-36431275D01*
X162274878Y-36498124D01*
X162274884Y-36499304D01*
X162274884Y-39889995D01*
X162255199Y-39957034D01*
X162243034Y-39972967D01*
X162167850Y-40056467D01*
X162073205Y-40220398D01*
X162073202Y-40220405D01*
X162014711Y-40400423D01*
X162014710Y-40400427D01*
X161994924Y-40588683D01*
X162000317Y-40640000D01*
X162014711Y-40776944D01*
X162017200Y-40784604D01*
X162019195Y-40854446D01*
X161983114Y-40914278D01*
X161920412Y-40945105D01*
X161850998Y-40937140D01*
X161811588Y-40910602D01*
X161041819Y-40140833D01*
X161008334Y-40079510D01*
X161005500Y-40053152D01*
X161005500Y-37761998D01*
X161005359Y-37761292D01*
X161005345Y-37761223D01*
X160983078Y-37649270D01*
X160981463Y-37641152D01*
X160981460Y-37641144D01*
X160981460Y-37641143D01*
X160969485Y-37612234D01*
X160962015Y-37542765D01*
X160970770Y-37514335D01*
X160971239Y-37513281D01*
X160973223Y-37507175D01*
X161029733Y-37333256D01*
X161049519Y-37145000D01*
X161029733Y-36956744D01*
X160971238Y-36776716D01*
X160876592Y-36612784D01*
X160749930Y-36472112D01*
X160746861Y-36469882D01*
X160596793Y-36360851D01*
X160596788Y-36360848D01*
X160423866Y-36283857D01*
X160423861Y-36283855D01*
X160278060Y-36252865D01*
X160238705Y-36244500D01*
X160049413Y-36244500D01*
X160016956Y-36251398D01*
X159864256Y-36283855D01*
X159864251Y-36283857D01*
X159691329Y-36360848D01*
X159691324Y-36360851D01*
X159538194Y-36472106D01*
X159538189Y-36472111D01*
X159501730Y-36512602D01*
X159442243Y-36549250D01*
X159372386Y-36547919D01*
X159321900Y-36517310D01*
X157508379Y-34703789D01*
X157474894Y-34642466D01*
X157479878Y-34572774D01*
X157521750Y-34516841D01*
X157571872Y-34494490D01*
X157611687Y-34486571D01*
X157611693Y-34486569D01*
X157793671Y-34411192D01*
X157793684Y-34411185D01*
X157957462Y-34301751D01*
X157957466Y-34301748D01*
X158096748Y-34162466D01*
X158096751Y-34162462D01*
X158206185Y-33998684D01*
X158206192Y-33998671D01*
X158281569Y-33816693D01*
X158281572Y-33816681D01*
X158319999Y-33623495D01*
X158320000Y-33623492D01*
X158320000Y-33442226D01*
X158339685Y-33375187D01*
X158392489Y-33329432D01*
X158461647Y-33319488D01*
X158525203Y-33348513D01*
X158531668Y-33354533D01*
X158899141Y-33722006D01*
X158899142Y-33722007D01*
X158975124Y-33797989D01*
X158986267Y-33809132D01*
X159005634Y-33822073D01*
X159005633Y-33822073D01*
X159088711Y-33877583D01*
X159088714Y-33877585D01*
X159202548Y-33924737D01*
X159323388Y-33948773D01*
X159323392Y-33948774D01*
X159323393Y-33948774D01*
X159323394Y-33948774D01*
X159377822Y-33948774D01*
X159444861Y-33968459D01*
X159465503Y-33985093D01*
X159716038Y-34235628D01*
X159749523Y-34296951D01*
X159751678Y-34310347D01*
X159755040Y-34342331D01*
X159769326Y-34478256D01*
X159769327Y-34478259D01*
X159827818Y-34658277D01*
X159827821Y-34658284D01*
X159922467Y-34822216D01*
X159980899Y-34887111D01*
X160049129Y-34962888D01*
X160202265Y-35074148D01*
X160202270Y-35074151D01*
X160375192Y-35151142D01*
X160375197Y-35151144D01*
X160560354Y-35190500D01*
X160560355Y-35190500D01*
X160749644Y-35190500D01*
X160749646Y-35190500D01*
X160934803Y-35151144D01*
X161107730Y-35074151D01*
X161260871Y-34962888D01*
X161387533Y-34822216D01*
X161482179Y-34658284D01*
X161540674Y-34478256D01*
X161560460Y-34290000D01*
X161540674Y-34101744D01*
X161482179Y-33921716D01*
X161387533Y-33757784D01*
X161260871Y-33617112D01*
X161260870Y-33617111D01*
X161107734Y-33505851D01*
X161107729Y-33505848D01*
X160934807Y-33428857D01*
X160934802Y-33428855D01*
X160789001Y-33397865D01*
X160749646Y-33389500D01*
X160749645Y-33389500D01*
X160690452Y-33389500D01*
X160623413Y-33369815D01*
X160602771Y-33353181D01*
X160178472Y-32928882D01*
X160178452Y-32928860D01*
X160087009Y-32837417D01*
X160067351Y-32824282D01*
X160028563Y-32798365D01*
X160028564Y-32798365D01*
X160028562Y-32798363D01*
X159984564Y-32768964D01*
X159984560Y-32768962D01*
X159904066Y-32735621D01*
X159870727Y-32721811D01*
X159860701Y-32719817D01*
X159810303Y-32709792D01*
X159749884Y-32697774D01*
X159749881Y-32697774D01*
X159749880Y-32697774D01*
X159695453Y-32697774D01*
X159628414Y-32678089D01*
X159607772Y-32661455D01*
X158658428Y-31712111D01*
X157694266Y-30747950D01*
X157660782Y-30686628D01*
X157665766Y-30616936D01*
X157707638Y-30561003D01*
X157757756Y-30538653D01*
X157760406Y-30538125D01*
X157837305Y-30522830D01*
X157844178Y-30521463D01*
X157844179Y-30521462D01*
X157844181Y-30521462D01*
X157858713Y-30515441D01*
X157877518Y-30507652D01*
X157944431Y-30479936D01*
X157991880Y-30470500D01*
X159001891Y-30470500D01*
X159068930Y-30490185D01*
X159114685Y-30542989D01*
X159125211Y-30581536D01*
X159134326Y-30668256D01*
X159134327Y-30668259D01*
X159192818Y-30848277D01*
X159192821Y-30848284D01*
X159287467Y-31012216D01*
X159410604Y-31148973D01*
X159414129Y-31152888D01*
X159567265Y-31264148D01*
X159567270Y-31264151D01*
X159740192Y-31341142D01*
X159740197Y-31341144D01*
X159925354Y-31380500D01*
X159925355Y-31380500D01*
X160114644Y-31380500D01*
X160114646Y-31380500D01*
X160299803Y-31341144D01*
X160472730Y-31264151D01*
X160625871Y-31152888D01*
X160752533Y-31012216D01*
X160847179Y-30848284D01*
X160905674Y-30668256D01*
X160925460Y-30480000D01*
X160905674Y-30291744D01*
X160847179Y-30111716D01*
X160752533Y-29947784D01*
X160625871Y-29807112D01*
X160625870Y-29807111D01*
X160472734Y-29695851D01*
X160472729Y-29695848D01*
X160299807Y-29618857D01*
X160299802Y-29618855D01*
X160154001Y-29587865D01*
X160114646Y-29579500D01*
X160114645Y-29579500D01*
X160055452Y-29579500D01*
X159988413Y-29559815D01*
X159967771Y-29543181D01*
X159877928Y-29453338D01*
X159877925Y-29453334D01*
X159877925Y-29453335D01*
X159870858Y-29446268D01*
X159870858Y-29446267D01*
X159783733Y-29359142D01*
X159783732Y-29359141D01*
X159783731Y-29359140D01*
X159732509Y-29324915D01*
X159681286Y-29290688D01*
X159681283Y-29290686D01*
X159681280Y-29290685D01*
X159600792Y-29257347D01*
X159567453Y-29243537D01*
X159557427Y-29241543D01*
X159507029Y-29231518D01*
X159446610Y-29219500D01*
X159446607Y-29219500D01*
X159446606Y-29219500D01*
X158444000Y-29219500D01*
X158376961Y-29199815D01*
X158331206Y-29147011D01*
X158320000Y-29095500D01*
X158320000Y-29045000D01*
X157620000Y-29045000D01*
X157620000Y-28545000D01*
X158320000Y-28545000D01*
X158320000Y-28419500D01*
X158339685Y-28352461D01*
X158392489Y-28306706D01*
X158444000Y-28295500D01*
X160709548Y-28295500D01*
X160776587Y-28315185D01*
G37*
%TD.AperFunction*%
%TD*%
M02*
