%TF.GenerationSoftware,KiCad,Pcbnew,8.0.4*%
%TF.CreationDate,2024-12-06T19:36:15+01:00*%
%TF.ProjectId,MusicControllerV3,4d757369-6343-46f6-9e74-726f6c6c6572,rev?*%
%TF.SameCoordinates,Original*%
%TF.FileFunction,Legend,Bot*%
%TF.FilePolarity,Positive*%
%FSLAX46Y46*%
G04 Gerber Fmt 4.6, Leading zero omitted, Abs format (unit mm)*
G04 Created by KiCad (PCBNEW 8.0.4) date 2024-12-06 19:36:15*
%MOMM*%
%LPD*%
G01*
G04 APERTURE LIST*
%ADD10C,0.150000*%
%ADD11C,0.120000*%
G04 APERTURE END LIST*
D10*
X143644819Y-50733095D02*
X144454342Y-50733095D01*
X144454342Y-50733095D02*
X144549580Y-50780714D01*
X144549580Y-50780714D02*
X144597200Y-50828333D01*
X144597200Y-50828333D02*
X144644819Y-50923571D01*
X144644819Y-50923571D02*
X144644819Y-51114047D01*
X144644819Y-51114047D02*
X144597200Y-51209285D01*
X144597200Y-51209285D02*
X144549580Y-51256904D01*
X144549580Y-51256904D02*
X144454342Y-51304523D01*
X144454342Y-51304523D02*
X143644819Y-51304523D01*
X143978152Y-52209285D02*
X144644819Y-52209285D01*
X143597200Y-51971190D02*
X144311485Y-51733095D01*
X144311485Y-51733095D02*
X144311485Y-52352142D01*
X152370357Y-46909819D02*
X152703690Y-46433628D01*
X152941785Y-46909819D02*
X152941785Y-45909819D01*
X152941785Y-45909819D02*
X152560833Y-45909819D01*
X152560833Y-45909819D02*
X152465595Y-45957438D01*
X152465595Y-45957438D02*
X152417976Y-46005057D01*
X152417976Y-46005057D02*
X152370357Y-46100295D01*
X152370357Y-46100295D02*
X152370357Y-46243152D01*
X152370357Y-46243152D02*
X152417976Y-46338390D01*
X152417976Y-46338390D02*
X152465595Y-46386009D01*
X152465595Y-46386009D02*
X152560833Y-46433628D01*
X152560833Y-46433628D02*
X152941785Y-46433628D01*
X151417976Y-46909819D02*
X151989404Y-46909819D01*
X151703690Y-46909819D02*
X151703690Y-45909819D01*
X151703690Y-45909819D02*
X151798928Y-46052676D01*
X151798928Y-46052676D02*
X151894166Y-46147914D01*
X151894166Y-46147914D02*
X151989404Y-46195533D01*
X150513214Y-45909819D02*
X150989404Y-45909819D01*
X150989404Y-45909819D02*
X151037023Y-46386009D01*
X151037023Y-46386009D02*
X150989404Y-46338390D01*
X150989404Y-46338390D02*
X150894166Y-46290771D01*
X150894166Y-46290771D02*
X150656071Y-46290771D01*
X150656071Y-46290771D02*
X150560833Y-46338390D01*
X150560833Y-46338390D02*
X150513214Y-46386009D01*
X150513214Y-46386009D02*
X150465595Y-46481247D01*
X150465595Y-46481247D02*
X150465595Y-46719342D01*
X150465595Y-46719342D02*
X150513214Y-46814580D01*
X150513214Y-46814580D02*
X150560833Y-46862200D01*
X150560833Y-46862200D02*
X150656071Y-46909819D01*
X150656071Y-46909819D02*
X150894166Y-46909819D01*
X150894166Y-46909819D02*
X150989404Y-46862200D01*
X150989404Y-46862200D02*
X151037023Y-46814580D01*
X155669404Y-35524819D02*
X155669404Y-36334342D01*
X155669404Y-36334342D02*
X155621785Y-36429580D01*
X155621785Y-36429580D02*
X155574166Y-36477200D01*
X155574166Y-36477200D02*
X155478928Y-36524819D01*
X155478928Y-36524819D02*
X155288452Y-36524819D01*
X155288452Y-36524819D02*
X155193214Y-36477200D01*
X155193214Y-36477200D02*
X155145595Y-36429580D01*
X155145595Y-36429580D02*
X155097976Y-36334342D01*
X155097976Y-36334342D02*
X155097976Y-35524819D01*
X154717023Y-35524819D02*
X154097976Y-35524819D01*
X154097976Y-35524819D02*
X154431309Y-35905771D01*
X154431309Y-35905771D02*
X154288452Y-35905771D01*
X154288452Y-35905771D02*
X154193214Y-35953390D01*
X154193214Y-35953390D02*
X154145595Y-36001009D01*
X154145595Y-36001009D02*
X154097976Y-36096247D01*
X154097976Y-36096247D02*
X154097976Y-36334342D01*
X154097976Y-36334342D02*
X154145595Y-36429580D01*
X154145595Y-36429580D02*
X154193214Y-36477200D01*
X154193214Y-36477200D02*
X154288452Y-36524819D01*
X154288452Y-36524819D02*
X154574166Y-36524819D01*
X154574166Y-36524819D02*
X154669404Y-36477200D01*
X154669404Y-36477200D02*
X154717023Y-36429580D01*
X184316666Y-49144580D02*
X184364285Y-49192200D01*
X184364285Y-49192200D02*
X184507142Y-49239819D01*
X184507142Y-49239819D02*
X184602380Y-49239819D01*
X184602380Y-49239819D02*
X184745237Y-49192200D01*
X184745237Y-49192200D02*
X184840475Y-49096961D01*
X184840475Y-49096961D02*
X184888094Y-49001723D01*
X184888094Y-49001723D02*
X184935713Y-48811247D01*
X184935713Y-48811247D02*
X184935713Y-48668390D01*
X184935713Y-48668390D02*
X184888094Y-48477914D01*
X184888094Y-48477914D02*
X184840475Y-48382676D01*
X184840475Y-48382676D02*
X184745237Y-48287438D01*
X184745237Y-48287438D02*
X184602380Y-48239819D01*
X184602380Y-48239819D02*
X184507142Y-48239819D01*
X184507142Y-48239819D02*
X184364285Y-48287438D01*
X184364285Y-48287438D02*
X184316666Y-48335057D01*
X183459523Y-48573152D02*
X183459523Y-49239819D01*
X183697618Y-48192200D02*
X183935713Y-48906485D01*
X183935713Y-48906485D02*
X183316666Y-48906485D01*
X142794819Y-51865833D02*
X142318628Y-51532500D01*
X142794819Y-51294405D02*
X141794819Y-51294405D01*
X141794819Y-51294405D02*
X141794819Y-51675357D01*
X141794819Y-51675357D02*
X141842438Y-51770595D01*
X141842438Y-51770595D02*
X141890057Y-51818214D01*
X141890057Y-51818214D02*
X141985295Y-51865833D01*
X141985295Y-51865833D02*
X142128152Y-51865833D01*
X142128152Y-51865833D02*
X142223390Y-51818214D01*
X142223390Y-51818214D02*
X142271009Y-51770595D01*
X142271009Y-51770595D02*
X142318628Y-51675357D01*
X142318628Y-51675357D02*
X142318628Y-51294405D01*
X142223390Y-52437262D02*
X142175771Y-52342024D01*
X142175771Y-52342024D02*
X142128152Y-52294405D01*
X142128152Y-52294405D02*
X142032914Y-52246786D01*
X142032914Y-52246786D02*
X141985295Y-52246786D01*
X141985295Y-52246786D02*
X141890057Y-52294405D01*
X141890057Y-52294405D02*
X141842438Y-52342024D01*
X141842438Y-52342024D02*
X141794819Y-52437262D01*
X141794819Y-52437262D02*
X141794819Y-52627738D01*
X141794819Y-52627738D02*
X141842438Y-52722976D01*
X141842438Y-52722976D02*
X141890057Y-52770595D01*
X141890057Y-52770595D02*
X141985295Y-52818214D01*
X141985295Y-52818214D02*
X142032914Y-52818214D01*
X142032914Y-52818214D02*
X142128152Y-52770595D01*
X142128152Y-52770595D02*
X142175771Y-52722976D01*
X142175771Y-52722976D02*
X142223390Y-52627738D01*
X142223390Y-52627738D02*
X142223390Y-52437262D01*
X142223390Y-52437262D02*
X142271009Y-52342024D01*
X142271009Y-52342024D02*
X142318628Y-52294405D01*
X142318628Y-52294405D02*
X142413866Y-52246786D01*
X142413866Y-52246786D02*
X142604342Y-52246786D01*
X142604342Y-52246786D02*
X142699580Y-52294405D01*
X142699580Y-52294405D02*
X142747200Y-52342024D01*
X142747200Y-52342024D02*
X142794819Y-52437262D01*
X142794819Y-52437262D02*
X142794819Y-52627738D01*
X142794819Y-52627738D02*
X142747200Y-52722976D01*
X142747200Y-52722976D02*
X142699580Y-52770595D01*
X142699580Y-52770595D02*
X142604342Y-52818214D01*
X142604342Y-52818214D02*
X142413866Y-52818214D01*
X142413866Y-52818214D02*
X142318628Y-52770595D01*
X142318628Y-52770595D02*
X142271009Y-52722976D01*
X142271009Y-52722976D02*
X142223390Y-52627738D01*
X153080357Y-35479819D02*
X153413690Y-35003628D01*
X153651785Y-35479819D02*
X153651785Y-34479819D01*
X153651785Y-34479819D02*
X153270833Y-34479819D01*
X153270833Y-34479819D02*
X153175595Y-34527438D01*
X153175595Y-34527438D02*
X153127976Y-34575057D01*
X153127976Y-34575057D02*
X153080357Y-34670295D01*
X153080357Y-34670295D02*
X153080357Y-34813152D01*
X153080357Y-34813152D02*
X153127976Y-34908390D01*
X153127976Y-34908390D02*
X153175595Y-34956009D01*
X153175595Y-34956009D02*
X153270833Y-35003628D01*
X153270833Y-35003628D02*
X153651785Y-35003628D01*
X152127976Y-35479819D02*
X152699404Y-35479819D01*
X152413690Y-35479819D02*
X152413690Y-34479819D01*
X152413690Y-34479819D02*
X152508928Y-34622676D01*
X152508928Y-34622676D02*
X152604166Y-34717914D01*
X152604166Y-34717914D02*
X152699404Y-34765533D01*
X151794642Y-34479819D02*
X151175595Y-34479819D01*
X151175595Y-34479819D02*
X151508928Y-34860771D01*
X151508928Y-34860771D02*
X151366071Y-34860771D01*
X151366071Y-34860771D02*
X151270833Y-34908390D01*
X151270833Y-34908390D02*
X151223214Y-34956009D01*
X151223214Y-34956009D02*
X151175595Y-35051247D01*
X151175595Y-35051247D02*
X151175595Y-35289342D01*
X151175595Y-35289342D02*
X151223214Y-35384580D01*
X151223214Y-35384580D02*
X151270833Y-35432200D01*
X151270833Y-35432200D02*
X151366071Y-35479819D01*
X151366071Y-35479819D02*
X151651785Y-35479819D01*
X151651785Y-35479819D02*
X151747023Y-35432200D01*
X151747023Y-35432200D02*
X151794642Y-35384580D01*
X166415357Y-64054819D02*
X166748690Y-63578628D01*
X166986785Y-64054819D02*
X166986785Y-63054819D01*
X166986785Y-63054819D02*
X166605833Y-63054819D01*
X166605833Y-63054819D02*
X166510595Y-63102438D01*
X166510595Y-63102438D02*
X166462976Y-63150057D01*
X166462976Y-63150057D02*
X166415357Y-63245295D01*
X166415357Y-63245295D02*
X166415357Y-63388152D01*
X166415357Y-63388152D02*
X166462976Y-63483390D01*
X166462976Y-63483390D02*
X166510595Y-63531009D01*
X166510595Y-63531009D02*
X166605833Y-63578628D01*
X166605833Y-63578628D02*
X166986785Y-63578628D01*
X165462976Y-64054819D02*
X166034404Y-64054819D01*
X165748690Y-64054819D02*
X165748690Y-63054819D01*
X165748690Y-63054819D02*
X165843928Y-63197676D01*
X165843928Y-63197676D02*
X165939166Y-63292914D01*
X165939166Y-63292914D02*
X166034404Y-63340533D01*
X165082023Y-63150057D02*
X165034404Y-63102438D01*
X165034404Y-63102438D02*
X164939166Y-63054819D01*
X164939166Y-63054819D02*
X164701071Y-63054819D01*
X164701071Y-63054819D02*
X164605833Y-63102438D01*
X164605833Y-63102438D02*
X164558214Y-63150057D01*
X164558214Y-63150057D02*
X164510595Y-63245295D01*
X164510595Y-63245295D02*
X164510595Y-63340533D01*
X164510595Y-63340533D02*
X164558214Y-63483390D01*
X164558214Y-63483390D02*
X165129642Y-64054819D01*
X165129642Y-64054819D02*
X164510595Y-64054819D01*
X148719166Y-35479819D02*
X149052499Y-35003628D01*
X149290594Y-35479819D02*
X149290594Y-34479819D01*
X149290594Y-34479819D02*
X148909642Y-34479819D01*
X148909642Y-34479819D02*
X148814404Y-34527438D01*
X148814404Y-34527438D02*
X148766785Y-34575057D01*
X148766785Y-34575057D02*
X148719166Y-34670295D01*
X148719166Y-34670295D02*
X148719166Y-34813152D01*
X148719166Y-34813152D02*
X148766785Y-34908390D01*
X148766785Y-34908390D02*
X148814404Y-34956009D01*
X148814404Y-34956009D02*
X148909642Y-35003628D01*
X148909642Y-35003628D02*
X149290594Y-35003628D01*
X147766785Y-35479819D02*
X148338213Y-35479819D01*
X148052499Y-35479819D02*
X148052499Y-34479819D01*
X148052499Y-34479819D02*
X148147737Y-34622676D01*
X148147737Y-34622676D02*
X148242975Y-34717914D01*
X148242975Y-34717914D02*
X148338213Y-34765533D01*
X145541904Y-35594819D02*
X145541904Y-36404342D01*
X145541904Y-36404342D02*
X145494285Y-36499580D01*
X145494285Y-36499580D02*
X145446666Y-36547200D01*
X145446666Y-36547200D02*
X145351428Y-36594819D01*
X145351428Y-36594819D02*
X145160952Y-36594819D01*
X145160952Y-36594819D02*
X145065714Y-36547200D01*
X145065714Y-36547200D02*
X145018095Y-36499580D01*
X145018095Y-36499580D02*
X144970476Y-36404342D01*
X144970476Y-36404342D02*
X144970476Y-35594819D01*
X144541904Y-35690057D02*
X144494285Y-35642438D01*
X144494285Y-35642438D02*
X144399047Y-35594819D01*
X144399047Y-35594819D02*
X144160952Y-35594819D01*
X144160952Y-35594819D02*
X144065714Y-35642438D01*
X144065714Y-35642438D02*
X144018095Y-35690057D01*
X144018095Y-35690057D02*
X143970476Y-35785295D01*
X143970476Y-35785295D02*
X143970476Y-35880533D01*
X143970476Y-35880533D02*
X144018095Y-36023390D01*
X144018095Y-36023390D02*
X144589523Y-36594819D01*
X144589523Y-36594819D02*
X143970476Y-36594819D01*
X151931666Y-48094580D02*
X151979285Y-48142200D01*
X151979285Y-48142200D02*
X152122142Y-48189819D01*
X152122142Y-48189819D02*
X152217380Y-48189819D01*
X152217380Y-48189819D02*
X152360237Y-48142200D01*
X152360237Y-48142200D02*
X152455475Y-48046961D01*
X152455475Y-48046961D02*
X152503094Y-47951723D01*
X152503094Y-47951723D02*
X152550713Y-47761247D01*
X152550713Y-47761247D02*
X152550713Y-47618390D01*
X152550713Y-47618390D02*
X152503094Y-47427914D01*
X152503094Y-47427914D02*
X152455475Y-47332676D01*
X152455475Y-47332676D02*
X152360237Y-47237438D01*
X152360237Y-47237438D02*
X152217380Y-47189819D01*
X152217380Y-47189819D02*
X152122142Y-47189819D01*
X152122142Y-47189819D02*
X151979285Y-47237438D01*
X151979285Y-47237438D02*
X151931666Y-47285057D01*
X151455475Y-48189819D02*
X151264999Y-48189819D01*
X151264999Y-48189819D02*
X151169761Y-48142200D01*
X151169761Y-48142200D02*
X151122142Y-48094580D01*
X151122142Y-48094580D02*
X151026904Y-47951723D01*
X151026904Y-47951723D02*
X150979285Y-47761247D01*
X150979285Y-47761247D02*
X150979285Y-47380295D01*
X150979285Y-47380295D02*
X151026904Y-47285057D01*
X151026904Y-47285057D02*
X151074523Y-47237438D01*
X151074523Y-47237438D02*
X151169761Y-47189819D01*
X151169761Y-47189819D02*
X151360237Y-47189819D01*
X151360237Y-47189819D02*
X151455475Y-47237438D01*
X151455475Y-47237438D02*
X151503094Y-47285057D01*
X151503094Y-47285057D02*
X151550713Y-47380295D01*
X151550713Y-47380295D02*
X151550713Y-47618390D01*
X151550713Y-47618390D02*
X151503094Y-47713628D01*
X151503094Y-47713628D02*
X151455475Y-47761247D01*
X151455475Y-47761247D02*
X151360237Y-47808866D01*
X151360237Y-47808866D02*
X151169761Y-47808866D01*
X151169761Y-47808866D02*
X151074523Y-47761247D01*
X151074523Y-47761247D02*
X151026904Y-47713628D01*
X151026904Y-47713628D02*
X150979285Y-47618390D01*
X135421666Y-44284580D02*
X135469285Y-44332200D01*
X135469285Y-44332200D02*
X135612142Y-44379819D01*
X135612142Y-44379819D02*
X135707380Y-44379819D01*
X135707380Y-44379819D02*
X135850237Y-44332200D01*
X135850237Y-44332200D02*
X135945475Y-44236961D01*
X135945475Y-44236961D02*
X135993094Y-44141723D01*
X135993094Y-44141723D02*
X136040713Y-43951247D01*
X136040713Y-43951247D02*
X136040713Y-43808390D01*
X136040713Y-43808390D02*
X135993094Y-43617914D01*
X135993094Y-43617914D02*
X135945475Y-43522676D01*
X135945475Y-43522676D02*
X135850237Y-43427438D01*
X135850237Y-43427438D02*
X135707380Y-43379819D01*
X135707380Y-43379819D02*
X135612142Y-43379819D01*
X135612142Y-43379819D02*
X135469285Y-43427438D01*
X135469285Y-43427438D02*
X135421666Y-43475057D01*
X134469285Y-44379819D02*
X135040713Y-44379819D01*
X134754999Y-44379819D02*
X134754999Y-43379819D01*
X134754999Y-43379819D02*
X134850237Y-43522676D01*
X134850237Y-43522676D02*
X134945475Y-43617914D01*
X134945475Y-43617914D02*
X135040713Y-43665533D01*
X165933333Y-42316009D02*
X166266666Y-42316009D01*
X166266666Y-42839819D02*
X166266666Y-41839819D01*
X166266666Y-41839819D02*
X165790476Y-41839819D01*
X165076190Y-42316009D02*
X164933333Y-42363628D01*
X164933333Y-42363628D02*
X164885714Y-42411247D01*
X164885714Y-42411247D02*
X164838095Y-42506485D01*
X164838095Y-42506485D02*
X164838095Y-42649342D01*
X164838095Y-42649342D02*
X164885714Y-42744580D01*
X164885714Y-42744580D02*
X164933333Y-42792200D01*
X164933333Y-42792200D02*
X165028571Y-42839819D01*
X165028571Y-42839819D02*
X165409523Y-42839819D01*
X165409523Y-42839819D02*
X165409523Y-41839819D01*
X165409523Y-41839819D02*
X165076190Y-41839819D01*
X165076190Y-41839819D02*
X164980952Y-41887438D01*
X164980952Y-41887438D02*
X164933333Y-41935057D01*
X164933333Y-41935057D02*
X164885714Y-42030295D01*
X164885714Y-42030295D02*
X164885714Y-42125533D01*
X164885714Y-42125533D02*
X164933333Y-42220771D01*
X164933333Y-42220771D02*
X164980952Y-42268390D01*
X164980952Y-42268390D02*
X165076190Y-42316009D01*
X165076190Y-42316009D02*
X165409523Y-42316009D01*
X163885714Y-42839819D02*
X164457142Y-42839819D01*
X164171428Y-42839819D02*
X164171428Y-41839819D01*
X164171428Y-41839819D02*
X164266666Y-41982676D01*
X164266666Y-41982676D02*
X164361904Y-42077914D01*
X164361904Y-42077914D02*
X164457142Y-42125533D01*
X148089580Y-31815833D02*
X148137200Y-31768214D01*
X148137200Y-31768214D02*
X148184819Y-31625357D01*
X148184819Y-31625357D02*
X148184819Y-31530119D01*
X148184819Y-31530119D02*
X148137200Y-31387262D01*
X148137200Y-31387262D02*
X148041961Y-31292024D01*
X148041961Y-31292024D02*
X147946723Y-31244405D01*
X147946723Y-31244405D02*
X147756247Y-31196786D01*
X147756247Y-31196786D02*
X147613390Y-31196786D01*
X147613390Y-31196786D02*
X147422914Y-31244405D01*
X147422914Y-31244405D02*
X147327676Y-31292024D01*
X147327676Y-31292024D02*
X147232438Y-31387262D01*
X147232438Y-31387262D02*
X147184819Y-31530119D01*
X147184819Y-31530119D02*
X147184819Y-31625357D01*
X147184819Y-31625357D02*
X147232438Y-31768214D01*
X147232438Y-31768214D02*
X147280057Y-31815833D01*
X147518152Y-32672976D02*
X148184819Y-32672976D01*
X147137200Y-32434881D02*
X147851485Y-32196786D01*
X147851485Y-32196786D02*
X147851485Y-32815833D01*
X152014580Y-38727142D02*
X152062200Y-38679523D01*
X152062200Y-38679523D02*
X152109819Y-38536666D01*
X152109819Y-38536666D02*
X152109819Y-38441428D01*
X152109819Y-38441428D02*
X152062200Y-38298571D01*
X152062200Y-38298571D02*
X151966961Y-38203333D01*
X151966961Y-38203333D02*
X151871723Y-38155714D01*
X151871723Y-38155714D02*
X151681247Y-38108095D01*
X151681247Y-38108095D02*
X151538390Y-38108095D01*
X151538390Y-38108095D02*
X151347914Y-38155714D01*
X151347914Y-38155714D02*
X151252676Y-38203333D01*
X151252676Y-38203333D02*
X151157438Y-38298571D01*
X151157438Y-38298571D02*
X151109819Y-38441428D01*
X151109819Y-38441428D02*
X151109819Y-38536666D01*
X151109819Y-38536666D02*
X151157438Y-38679523D01*
X151157438Y-38679523D02*
X151205057Y-38727142D01*
X152109819Y-39679523D02*
X152109819Y-39108095D01*
X152109819Y-39393809D02*
X151109819Y-39393809D01*
X151109819Y-39393809D02*
X151252676Y-39298571D01*
X151252676Y-39298571D02*
X151347914Y-39203333D01*
X151347914Y-39203333D02*
X151395533Y-39108095D01*
X151205057Y-40060476D02*
X151157438Y-40108095D01*
X151157438Y-40108095D02*
X151109819Y-40203333D01*
X151109819Y-40203333D02*
X151109819Y-40441428D01*
X151109819Y-40441428D02*
X151157438Y-40536666D01*
X151157438Y-40536666D02*
X151205057Y-40584285D01*
X151205057Y-40584285D02*
X151300295Y-40631904D01*
X151300295Y-40631904D02*
X151395533Y-40631904D01*
X151395533Y-40631904D02*
X151538390Y-40584285D01*
X151538390Y-40584285D02*
X152109819Y-40012857D01*
X152109819Y-40012857D02*
X152109819Y-40631904D01*
X162567857Y-28494819D02*
X162901190Y-28018628D01*
X163139285Y-28494819D02*
X163139285Y-27494819D01*
X163139285Y-27494819D02*
X162758333Y-27494819D01*
X162758333Y-27494819D02*
X162663095Y-27542438D01*
X162663095Y-27542438D02*
X162615476Y-27590057D01*
X162615476Y-27590057D02*
X162567857Y-27685295D01*
X162567857Y-27685295D02*
X162567857Y-27828152D01*
X162567857Y-27828152D02*
X162615476Y-27923390D01*
X162615476Y-27923390D02*
X162663095Y-27971009D01*
X162663095Y-27971009D02*
X162758333Y-28018628D01*
X162758333Y-28018628D02*
X163139285Y-28018628D01*
X161615476Y-28494819D02*
X162186904Y-28494819D01*
X161901190Y-28494819D02*
X161901190Y-27494819D01*
X161901190Y-27494819D02*
X161996428Y-27637676D01*
X161996428Y-27637676D02*
X162091666Y-27732914D01*
X162091666Y-27732914D02*
X162186904Y-27780533D01*
X160996428Y-27494819D02*
X160901190Y-27494819D01*
X160901190Y-27494819D02*
X160805952Y-27542438D01*
X160805952Y-27542438D02*
X160758333Y-27590057D01*
X160758333Y-27590057D02*
X160710714Y-27685295D01*
X160710714Y-27685295D02*
X160663095Y-27875771D01*
X160663095Y-27875771D02*
X160663095Y-28113866D01*
X160663095Y-28113866D02*
X160710714Y-28304342D01*
X160710714Y-28304342D02*
X160758333Y-28399580D01*
X160758333Y-28399580D02*
X160805952Y-28447200D01*
X160805952Y-28447200D02*
X160901190Y-28494819D01*
X160901190Y-28494819D02*
X160996428Y-28494819D01*
X160996428Y-28494819D02*
X161091666Y-28447200D01*
X161091666Y-28447200D02*
X161139285Y-28399580D01*
X161139285Y-28399580D02*
X161186904Y-28304342D01*
X161186904Y-28304342D02*
X161234523Y-28113866D01*
X161234523Y-28113866D02*
X161234523Y-27875771D01*
X161234523Y-27875771D02*
X161186904Y-27685295D01*
X161186904Y-27685295D02*
X161139285Y-27590057D01*
X161139285Y-27590057D02*
X161091666Y-27542438D01*
X161091666Y-27542438D02*
X160996428Y-27494819D01*
X166078094Y-28234819D02*
X166078094Y-27234819D01*
X166078094Y-27234819D02*
X165839999Y-27234819D01*
X165839999Y-27234819D02*
X165697142Y-27282438D01*
X165697142Y-27282438D02*
X165601904Y-27377676D01*
X165601904Y-27377676D02*
X165554285Y-27472914D01*
X165554285Y-27472914D02*
X165506666Y-27663390D01*
X165506666Y-27663390D02*
X165506666Y-27806247D01*
X165506666Y-27806247D02*
X165554285Y-27996723D01*
X165554285Y-27996723D02*
X165601904Y-28091961D01*
X165601904Y-28091961D02*
X165697142Y-28187200D01*
X165697142Y-28187200D02*
X165839999Y-28234819D01*
X165839999Y-28234819D02*
X166078094Y-28234819D01*
X165125713Y-27330057D02*
X165078094Y-27282438D01*
X165078094Y-27282438D02*
X164982856Y-27234819D01*
X164982856Y-27234819D02*
X164744761Y-27234819D01*
X164744761Y-27234819D02*
X164649523Y-27282438D01*
X164649523Y-27282438D02*
X164601904Y-27330057D01*
X164601904Y-27330057D02*
X164554285Y-27425295D01*
X164554285Y-27425295D02*
X164554285Y-27520533D01*
X164554285Y-27520533D02*
X164601904Y-27663390D01*
X164601904Y-27663390D02*
X165173332Y-28234819D01*
X165173332Y-28234819D02*
X164554285Y-28234819D01*
X153333333Y-34944819D02*
X153333333Y-35659104D01*
X153333333Y-35659104D02*
X153380952Y-35801961D01*
X153380952Y-35801961D02*
X153476190Y-35897200D01*
X153476190Y-35897200D02*
X153619047Y-35944819D01*
X153619047Y-35944819D02*
X153714285Y-35944819D01*
X152333333Y-35944819D02*
X152904761Y-35944819D01*
X152619047Y-35944819D02*
X152619047Y-34944819D01*
X152619047Y-34944819D02*
X152714285Y-35087676D01*
X152714285Y-35087676D02*
X152809523Y-35182914D01*
X152809523Y-35182914D02*
X152904761Y-35230533D01*
X159219580Y-42378333D02*
X159267200Y-42330714D01*
X159267200Y-42330714D02*
X159314819Y-42187857D01*
X159314819Y-42187857D02*
X159314819Y-42092619D01*
X159314819Y-42092619D02*
X159267200Y-41949762D01*
X159267200Y-41949762D02*
X159171961Y-41854524D01*
X159171961Y-41854524D02*
X159076723Y-41806905D01*
X159076723Y-41806905D02*
X158886247Y-41759286D01*
X158886247Y-41759286D02*
X158743390Y-41759286D01*
X158743390Y-41759286D02*
X158552914Y-41806905D01*
X158552914Y-41806905D02*
X158457676Y-41854524D01*
X158457676Y-41854524D02*
X158362438Y-41949762D01*
X158362438Y-41949762D02*
X158314819Y-42092619D01*
X158314819Y-42092619D02*
X158314819Y-42187857D01*
X158314819Y-42187857D02*
X158362438Y-42330714D01*
X158362438Y-42330714D02*
X158410057Y-42378333D01*
X158743390Y-42949762D02*
X158695771Y-42854524D01*
X158695771Y-42854524D02*
X158648152Y-42806905D01*
X158648152Y-42806905D02*
X158552914Y-42759286D01*
X158552914Y-42759286D02*
X158505295Y-42759286D01*
X158505295Y-42759286D02*
X158410057Y-42806905D01*
X158410057Y-42806905D02*
X158362438Y-42854524D01*
X158362438Y-42854524D02*
X158314819Y-42949762D01*
X158314819Y-42949762D02*
X158314819Y-43140238D01*
X158314819Y-43140238D02*
X158362438Y-43235476D01*
X158362438Y-43235476D02*
X158410057Y-43283095D01*
X158410057Y-43283095D02*
X158505295Y-43330714D01*
X158505295Y-43330714D02*
X158552914Y-43330714D01*
X158552914Y-43330714D02*
X158648152Y-43283095D01*
X158648152Y-43283095D02*
X158695771Y-43235476D01*
X158695771Y-43235476D02*
X158743390Y-43140238D01*
X158743390Y-43140238D02*
X158743390Y-42949762D01*
X158743390Y-42949762D02*
X158791009Y-42854524D01*
X158791009Y-42854524D02*
X158838628Y-42806905D01*
X158838628Y-42806905D02*
X158933866Y-42759286D01*
X158933866Y-42759286D02*
X159124342Y-42759286D01*
X159124342Y-42759286D02*
X159219580Y-42806905D01*
X159219580Y-42806905D02*
X159267200Y-42854524D01*
X159267200Y-42854524D02*
X159314819Y-42949762D01*
X159314819Y-42949762D02*
X159314819Y-43140238D01*
X159314819Y-43140238D02*
X159267200Y-43235476D01*
X159267200Y-43235476D02*
X159219580Y-43283095D01*
X159219580Y-43283095D02*
X159124342Y-43330714D01*
X159124342Y-43330714D02*
X158933866Y-43330714D01*
X158933866Y-43330714D02*
X158838628Y-43283095D01*
X158838628Y-43283095D02*
X158791009Y-43235476D01*
X158791009Y-43235476D02*
X158743390Y-43140238D01*
X180694819Y-51903333D02*
X180218628Y-51570000D01*
X180694819Y-51331905D02*
X179694819Y-51331905D01*
X179694819Y-51331905D02*
X179694819Y-51712857D01*
X179694819Y-51712857D02*
X179742438Y-51808095D01*
X179742438Y-51808095D02*
X179790057Y-51855714D01*
X179790057Y-51855714D02*
X179885295Y-51903333D01*
X179885295Y-51903333D02*
X180028152Y-51903333D01*
X180028152Y-51903333D02*
X180123390Y-51855714D01*
X180123390Y-51855714D02*
X180171009Y-51808095D01*
X180171009Y-51808095D02*
X180218628Y-51712857D01*
X180218628Y-51712857D02*
X180218628Y-51331905D01*
X179694819Y-52760476D02*
X179694819Y-52570000D01*
X179694819Y-52570000D02*
X179742438Y-52474762D01*
X179742438Y-52474762D02*
X179790057Y-52427143D01*
X179790057Y-52427143D02*
X179932914Y-52331905D01*
X179932914Y-52331905D02*
X180123390Y-52284286D01*
X180123390Y-52284286D02*
X180504342Y-52284286D01*
X180504342Y-52284286D02*
X180599580Y-52331905D01*
X180599580Y-52331905D02*
X180647200Y-52379524D01*
X180647200Y-52379524D02*
X180694819Y-52474762D01*
X180694819Y-52474762D02*
X180694819Y-52665238D01*
X180694819Y-52665238D02*
X180647200Y-52760476D01*
X180647200Y-52760476D02*
X180599580Y-52808095D01*
X180599580Y-52808095D02*
X180504342Y-52855714D01*
X180504342Y-52855714D02*
X180266247Y-52855714D01*
X180266247Y-52855714D02*
X180171009Y-52808095D01*
X180171009Y-52808095D02*
X180123390Y-52760476D01*
X180123390Y-52760476D02*
X180075771Y-52665238D01*
X180075771Y-52665238D02*
X180075771Y-52474762D01*
X180075771Y-52474762D02*
X180123390Y-52379524D01*
X180123390Y-52379524D02*
X180171009Y-52331905D01*
X180171009Y-52331905D02*
X180266247Y-52284286D01*
X161623333Y-43831009D02*
X161956666Y-43831009D01*
X161956666Y-44354819D02*
X161956666Y-43354819D01*
X161956666Y-43354819D02*
X161480476Y-43354819D01*
X160575714Y-44354819D02*
X161147142Y-44354819D01*
X160861428Y-44354819D02*
X160861428Y-43354819D01*
X160861428Y-43354819D02*
X160956666Y-43497676D01*
X160956666Y-43497676D02*
X161051904Y-43592914D01*
X161051904Y-43592914D02*
X161147142Y-43640533D01*
X148121666Y-47544819D02*
X148454999Y-47068628D01*
X148693094Y-47544819D02*
X148693094Y-46544819D01*
X148693094Y-46544819D02*
X148312142Y-46544819D01*
X148312142Y-46544819D02*
X148216904Y-46592438D01*
X148216904Y-46592438D02*
X148169285Y-46640057D01*
X148169285Y-46640057D02*
X148121666Y-46735295D01*
X148121666Y-46735295D02*
X148121666Y-46878152D01*
X148121666Y-46878152D02*
X148169285Y-46973390D01*
X148169285Y-46973390D02*
X148216904Y-47021009D01*
X148216904Y-47021009D02*
X148312142Y-47068628D01*
X148312142Y-47068628D02*
X148693094Y-47068628D01*
X147788332Y-46544819D02*
X147121666Y-46544819D01*
X147121666Y-46544819D02*
X147550237Y-47544819D01*
X147154580Y-46188333D02*
X147202200Y-46140714D01*
X147202200Y-46140714D02*
X147249819Y-45997857D01*
X147249819Y-45997857D02*
X147249819Y-45902619D01*
X147249819Y-45902619D02*
X147202200Y-45759762D01*
X147202200Y-45759762D02*
X147106961Y-45664524D01*
X147106961Y-45664524D02*
X147011723Y-45616905D01*
X147011723Y-45616905D02*
X146821247Y-45569286D01*
X146821247Y-45569286D02*
X146678390Y-45569286D01*
X146678390Y-45569286D02*
X146487914Y-45616905D01*
X146487914Y-45616905D02*
X146392676Y-45664524D01*
X146392676Y-45664524D02*
X146297438Y-45759762D01*
X146297438Y-45759762D02*
X146249819Y-45902619D01*
X146249819Y-45902619D02*
X146249819Y-45997857D01*
X146249819Y-45997857D02*
X146297438Y-46140714D01*
X146297438Y-46140714D02*
X146345057Y-46188333D01*
X146249819Y-46521667D02*
X146249819Y-47140714D01*
X146249819Y-47140714D02*
X146630771Y-46807381D01*
X146630771Y-46807381D02*
X146630771Y-46950238D01*
X146630771Y-46950238D02*
X146678390Y-47045476D01*
X146678390Y-47045476D02*
X146726009Y-47093095D01*
X146726009Y-47093095D02*
X146821247Y-47140714D01*
X146821247Y-47140714D02*
X147059342Y-47140714D01*
X147059342Y-47140714D02*
X147154580Y-47093095D01*
X147154580Y-47093095D02*
X147202200Y-47045476D01*
X147202200Y-47045476D02*
X147249819Y-46950238D01*
X147249819Y-46950238D02*
X147249819Y-46664524D01*
X147249819Y-46664524D02*
X147202200Y-46569286D01*
X147202200Y-46569286D02*
X147154580Y-46521667D01*
X153201666Y-41859580D02*
X153249285Y-41907200D01*
X153249285Y-41907200D02*
X153392142Y-41954819D01*
X153392142Y-41954819D02*
X153487380Y-41954819D01*
X153487380Y-41954819D02*
X153630237Y-41907200D01*
X153630237Y-41907200D02*
X153725475Y-41811961D01*
X153725475Y-41811961D02*
X153773094Y-41716723D01*
X153773094Y-41716723D02*
X153820713Y-41526247D01*
X153820713Y-41526247D02*
X153820713Y-41383390D01*
X153820713Y-41383390D02*
X153773094Y-41192914D01*
X153773094Y-41192914D02*
X153725475Y-41097676D01*
X153725475Y-41097676D02*
X153630237Y-41002438D01*
X153630237Y-41002438D02*
X153487380Y-40954819D01*
X153487380Y-40954819D02*
X153392142Y-40954819D01*
X153392142Y-40954819D02*
X153249285Y-41002438D01*
X153249285Y-41002438D02*
X153201666Y-41050057D01*
X152344523Y-40954819D02*
X152534999Y-40954819D01*
X152534999Y-40954819D02*
X152630237Y-41002438D01*
X152630237Y-41002438D02*
X152677856Y-41050057D01*
X152677856Y-41050057D02*
X152773094Y-41192914D01*
X152773094Y-41192914D02*
X152820713Y-41383390D01*
X152820713Y-41383390D02*
X152820713Y-41764342D01*
X152820713Y-41764342D02*
X152773094Y-41859580D01*
X152773094Y-41859580D02*
X152725475Y-41907200D01*
X152725475Y-41907200D02*
X152630237Y-41954819D01*
X152630237Y-41954819D02*
X152439761Y-41954819D01*
X152439761Y-41954819D02*
X152344523Y-41907200D01*
X152344523Y-41907200D02*
X152296904Y-41859580D01*
X152296904Y-41859580D02*
X152249285Y-41764342D01*
X152249285Y-41764342D02*
X152249285Y-41526247D01*
X152249285Y-41526247D02*
X152296904Y-41431009D01*
X152296904Y-41431009D02*
X152344523Y-41383390D01*
X152344523Y-41383390D02*
X152439761Y-41335771D01*
X152439761Y-41335771D02*
X152630237Y-41335771D01*
X152630237Y-41335771D02*
X152725475Y-41383390D01*
X152725475Y-41383390D02*
X152773094Y-41431009D01*
X152773094Y-41431009D02*
X152820713Y-41526247D01*
X144714166Y-44399580D02*
X144761785Y-44447200D01*
X144761785Y-44447200D02*
X144904642Y-44494819D01*
X144904642Y-44494819D02*
X144999880Y-44494819D01*
X144999880Y-44494819D02*
X145142737Y-44447200D01*
X145142737Y-44447200D02*
X145237975Y-44351961D01*
X145237975Y-44351961D02*
X145285594Y-44256723D01*
X145285594Y-44256723D02*
X145333213Y-44066247D01*
X145333213Y-44066247D02*
X145333213Y-43923390D01*
X145333213Y-43923390D02*
X145285594Y-43732914D01*
X145285594Y-43732914D02*
X145237975Y-43637676D01*
X145237975Y-43637676D02*
X145142737Y-43542438D01*
X145142737Y-43542438D02*
X144999880Y-43494819D01*
X144999880Y-43494819D02*
X144904642Y-43494819D01*
X144904642Y-43494819D02*
X144761785Y-43542438D01*
X144761785Y-43542438D02*
X144714166Y-43590057D01*
X143761785Y-44494819D02*
X144333213Y-44494819D01*
X144047499Y-44494819D02*
X144047499Y-43494819D01*
X144047499Y-43494819D02*
X144142737Y-43637676D01*
X144142737Y-43637676D02*
X144237975Y-43732914D01*
X144237975Y-43732914D02*
X144333213Y-43780533D01*
X139649580Y-49130833D02*
X139697200Y-49083214D01*
X139697200Y-49083214D02*
X139744819Y-48940357D01*
X139744819Y-48940357D02*
X139744819Y-48845119D01*
X139744819Y-48845119D02*
X139697200Y-48702262D01*
X139697200Y-48702262D02*
X139601961Y-48607024D01*
X139601961Y-48607024D02*
X139506723Y-48559405D01*
X139506723Y-48559405D02*
X139316247Y-48511786D01*
X139316247Y-48511786D02*
X139173390Y-48511786D01*
X139173390Y-48511786D02*
X138982914Y-48559405D01*
X138982914Y-48559405D02*
X138887676Y-48607024D01*
X138887676Y-48607024D02*
X138792438Y-48702262D01*
X138792438Y-48702262D02*
X138744819Y-48845119D01*
X138744819Y-48845119D02*
X138744819Y-48940357D01*
X138744819Y-48940357D02*
X138792438Y-49083214D01*
X138792438Y-49083214D02*
X138840057Y-49130833D01*
X138744819Y-50035595D02*
X138744819Y-49559405D01*
X138744819Y-49559405D02*
X139221009Y-49511786D01*
X139221009Y-49511786D02*
X139173390Y-49559405D01*
X139173390Y-49559405D02*
X139125771Y-49654643D01*
X139125771Y-49654643D02*
X139125771Y-49892738D01*
X139125771Y-49892738D02*
X139173390Y-49987976D01*
X139173390Y-49987976D02*
X139221009Y-50035595D01*
X139221009Y-50035595D02*
X139316247Y-50083214D01*
X139316247Y-50083214D02*
X139554342Y-50083214D01*
X139554342Y-50083214D02*
X139649580Y-50035595D01*
X139649580Y-50035595D02*
X139697200Y-49987976D01*
X139697200Y-49987976D02*
X139744819Y-49892738D01*
X139744819Y-49892738D02*
X139744819Y-49654643D01*
X139744819Y-49654643D02*
X139697200Y-49559405D01*
X139697200Y-49559405D02*
X139649580Y-49511786D01*
X166415357Y-63854819D02*
X166748690Y-63378628D01*
X166986785Y-63854819D02*
X166986785Y-62854819D01*
X166986785Y-62854819D02*
X166605833Y-62854819D01*
X166605833Y-62854819D02*
X166510595Y-62902438D01*
X166510595Y-62902438D02*
X166462976Y-62950057D01*
X166462976Y-62950057D02*
X166415357Y-63045295D01*
X166415357Y-63045295D02*
X166415357Y-63188152D01*
X166415357Y-63188152D02*
X166462976Y-63283390D01*
X166462976Y-63283390D02*
X166510595Y-63331009D01*
X166510595Y-63331009D02*
X166605833Y-63378628D01*
X166605833Y-63378628D02*
X166986785Y-63378628D01*
X165462976Y-63854819D02*
X166034404Y-63854819D01*
X165748690Y-63854819D02*
X165748690Y-62854819D01*
X165748690Y-62854819D02*
X165843928Y-62997676D01*
X165843928Y-62997676D02*
X165939166Y-63092914D01*
X165939166Y-63092914D02*
X166034404Y-63140533D01*
X164605833Y-62854819D02*
X164796309Y-62854819D01*
X164796309Y-62854819D02*
X164891547Y-62902438D01*
X164891547Y-62902438D02*
X164939166Y-62950057D01*
X164939166Y-62950057D02*
X165034404Y-63092914D01*
X165034404Y-63092914D02*
X165082023Y-63283390D01*
X165082023Y-63283390D02*
X165082023Y-63664342D01*
X165082023Y-63664342D02*
X165034404Y-63759580D01*
X165034404Y-63759580D02*
X164986785Y-63807200D01*
X164986785Y-63807200D02*
X164891547Y-63854819D01*
X164891547Y-63854819D02*
X164701071Y-63854819D01*
X164701071Y-63854819D02*
X164605833Y-63807200D01*
X164605833Y-63807200D02*
X164558214Y-63759580D01*
X164558214Y-63759580D02*
X164510595Y-63664342D01*
X164510595Y-63664342D02*
X164510595Y-63426247D01*
X164510595Y-63426247D02*
X164558214Y-63331009D01*
X164558214Y-63331009D02*
X164605833Y-63283390D01*
X164605833Y-63283390D02*
X164701071Y-63235771D01*
X164701071Y-63235771D02*
X164891547Y-63235771D01*
X164891547Y-63235771D02*
X164986785Y-63283390D01*
X164986785Y-63283390D02*
X165034404Y-63331009D01*
X165034404Y-63331009D02*
X165082023Y-63426247D01*
X127006904Y-51029819D02*
X127006904Y-51839342D01*
X127006904Y-51839342D02*
X126959285Y-51934580D01*
X126959285Y-51934580D02*
X126911666Y-51982200D01*
X126911666Y-51982200D02*
X126816428Y-52029819D01*
X126816428Y-52029819D02*
X126625952Y-52029819D01*
X126625952Y-52029819D02*
X126530714Y-51982200D01*
X126530714Y-51982200D02*
X126483095Y-51934580D01*
X126483095Y-51934580D02*
X126435476Y-51839342D01*
X126435476Y-51839342D02*
X126435476Y-51029819D01*
X125435476Y-52029819D02*
X126006904Y-52029819D01*
X125721190Y-52029819D02*
X125721190Y-51029819D01*
X125721190Y-51029819D02*
X125816428Y-51172676D01*
X125816428Y-51172676D02*
X125911666Y-51267914D01*
X125911666Y-51267914D02*
X126006904Y-51315533D01*
X158954166Y-37819819D02*
X159287499Y-37343628D01*
X159525594Y-37819819D02*
X159525594Y-36819819D01*
X159525594Y-36819819D02*
X159144642Y-36819819D01*
X159144642Y-36819819D02*
X159049404Y-36867438D01*
X159049404Y-36867438D02*
X159001785Y-36915057D01*
X159001785Y-36915057D02*
X158954166Y-37010295D01*
X158954166Y-37010295D02*
X158954166Y-37153152D01*
X158954166Y-37153152D02*
X159001785Y-37248390D01*
X159001785Y-37248390D02*
X159049404Y-37296009D01*
X159049404Y-37296009D02*
X159144642Y-37343628D01*
X159144642Y-37343628D02*
X159525594Y-37343628D01*
X158573213Y-36915057D02*
X158525594Y-36867438D01*
X158525594Y-36867438D02*
X158430356Y-36819819D01*
X158430356Y-36819819D02*
X158192261Y-36819819D01*
X158192261Y-36819819D02*
X158097023Y-36867438D01*
X158097023Y-36867438D02*
X158049404Y-36915057D01*
X158049404Y-36915057D02*
X158001785Y-37010295D01*
X158001785Y-37010295D02*
X158001785Y-37105533D01*
X158001785Y-37105533D02*
X158049404Y-37248390D01*
X158049404Y-37248390D02*
X158620832Y-37819819D01*
X158620832Y-37819819D02*
X158001785Y-37819819D01*
X165869580Y-35393333D02*
X165917200Y-35345714D01*
X165917200Y-35345714D02*
X165964819Y-35202857D01*
X165964819Y-35202857D02*
X165964819Y-35107619D01*
X165964819Y-35107619D02*
X165917200Y-34964762D01*
X165917200Y-34964762D02*
X165821961Y-34869524D01*
X165821961Y-34869524D02*
X165726723Y-34821905D01*
X165726723Y-34821905D02*
X165536247Y-34774286D01*
X165536247Y-34774286D02*
X165393390Y-34774286D01*
X165393390Y-34774286D02*
X165202914Y-34821905D01*
X165202914Y-34821905D02*
X165107676Y-34869524D01*
X165107676Y-34869524D02*
X165012438Y-34964762D01*
X165012438Y-34964762D02*
X164964819Y-35107619D01*
X164964819Y-35107619D02*
X164964819Y-35202857D01*
X164964819Y-35202857D02*
X165012438Y-35345714D01*
X165012438Y-35345714D02*
X165060057Y-35393333D01*
X165060057Y-35774286D02*
X165012438Y-35821905D01*
X165012438Y-35821905D02*
X164964819Y-35917143D01*
X164964819Y-35917143D02*
X164964819Y-36155238D01*
X164964819Y-36155238D02*
X165012438Y-36250476D01*
X165012438Y-36250476D02*
X165060057Y-36298095D01*
X165060057Y-36298095D02*
X165155295Y-36345714D01*
X165155295Y-36345714D02*
X165250533Y-36345714D01*
X165250533Y-36345714D02*
X165393390Y-36298095D01*
X165393390Y-36298095D02*
X165964819Y-35726667D01*
X165964819Y-35726667D02*
X165964819Y-36345714D01*
X166415357Y-67664819D02*
X166748690Y-67188628D01*
X166986785Y-67664819D02*
X166986785Y-66664819D01*
X166986785Y-66664819D02*
X166605833Y-66664819D01*
X166605833Y-66664819D02*
X166510595Y-66712438D01*
X166510595Y-66712438D02*
X166462976Y-66760057D01*
X166462976Y-66760057D02*
X166415357Y-66855295D01*
X166415357Y-66855295D02*
X166415357Y-66998152D01*
X166415357Y-66998152D02*
X166462976Y-67093390D01*
X166462976Y-67093390D02*
X166510595Y-67141009D01*
X166510595Y-67141009D02*
X166605833Y-67188628D01*
X166605833Y-67188628D02*
X166986785Y-67188628D01*
X165462976Y-67664819D02*
X166034404Y-67664819D01*
X165748690Y-67664819D02*
X165748690Y-66664819D01*
X165748690Y-66664819D02*
X165843928Y-66807676D01*
X165843928Y-66807676D02*
X165939166Y-66902914D01*
X165939166Y-66902914D02*
X166034404Y-66950533D01*
X164605833Y-66998152D02*
X164605833Y-67664819D01*
X164843928Y-66617200D02*
X165082023Y-67331485D01*
X165082023Y-67331485D02*
X164462976Y-67331485D01*
X157525357Y-42464819D02*
X157858690Y-41988628D01*
X158096785Y-42464819D02*
X158096785Y-41464819D01*
X158096785Y-41464819D02*
X157715833Y-41464819D01*
X157715833Y-41464819D02*
X157620595Y-41512438D01*
X157620595Y-41512438D02*
X157572976Y-41560057D01*
X157572976Y-41560057D02*
X157525357Y-41655295D01*
X157525357Y-41655295D02*
X157525357Y-41798152D01*
X157525357Y-41798152D02*
X157572976Y-41893390D01*
X157572976Y-41893390D02*
X157620595Y-41941009D01*
X157620595Y-41941009D02*
X157715833Y-41988628D01*
X157715833Y-41988628D02*
X158096785Y-41988628D01*
X156572976Y-42464819D02*
X157144404Y-42464819D01*
X156858690Y-42464819D02*
X156858690Y-41464819D01*
X156858690Y-41464819D02*
X156953928Y-41607676D01*
X156953928Y-41607676D02*
X157049166Y-41702914D01*
X157049166Y-41702914D02*
X157144404Y-41750533D01*
X155620595Y-42464819D02*
X156192023Y-42464819D01*
X155906309Y-42464819D02*
X155906309Y-41464819D01*
X155906309Y-41464819D02*
X156001547Y-41607676D01*
X156001547Y-41607676D02*
X156096785Y-41702914D01*
X156096785Y-41702914D02*
X156192023Y-41750533D01*
X162059580Y-39203333D02*
X162107200Y-39155714D01*
X162107200Y-39155714D02*
X162154819Y-39012857D01*
X162154819Y-39012857D02*
X162154819Y-38917619D01*
X162154819Y-38917619D02*
X162107200Y-38774762D01*
X162107200Y-38774762D02*
X162011961Y-38679524D01*
X162011961Y-38679524D02*
X161916723Y-38631905D01*
X161916723Y-38631905D02*
X161726247Y-38584286D01*
X161726247Y-38584286D02*
X161583390Y-38584286D01*
X161583390Y-38584286D02*
X161392914Y-38631905D01*
X161392914Y-38631905D02*
X161297676Y-38679524D01*
X161297676Y-38679524D02*
X161202438Y-38774762D01*
X161202438Y-38774762D02*
X161154819Y-38917619D01*
X161154819Y-38917619D02*
X161154819Y-39012857D01*
X161154819Y-39012857D02*
X161202438Y-39155714D01*
X161202438Y-39155714D02*
X161250057Y-39203333D01*
X161154819Y-39536667D02*
X161154819Y-40203333D01*
X161154819Y-40203333D02*
X162154819Y-39774762D01*
X145549580Y-31339642D02*
X145597200Y-31292023D01*
X145597200Y-31292023D02*
X145644819Y-31149166D01*
X145644819Y-31149166D02*
X145644819Y-31053928D01*
X145644819Y-31053928D02*
X145597200Y-30911071D01*
X145597200Y-30911071D02*
X145501961Y-30815833D01*
X145501961Y-30815833D02*
X145406723Y-30768214D01*
X145406723Y-30768214D02*
X145216247Y-30720595D01*
X145216247Y-30720595D02*
X145073390Y-30720595D01*
X145073390Y-30720595D02*
X144882914Y-30768214D01*
X144882914Y-30768214D02*
X144787676Y-30815833D01*
X144787676Y-30815833D02*
X144692438Y-30911071D01*
X144692438Y-30911071D02*
X144644819Y-31053928D01*
X144644819Y-31053928D02*
X144644819Y-31149166D01*
X144644819Y-31149166D02*
X144692438Y-31292023D01*
X144692438Y-31292023D02*
X144740057Y-31339642D01*
X145644819Y-32292023D02*
X145644819Y-31720595D01*
X145644819Y-32006309D02*
X144644819Y-32006309D01*
X144644819Y-32006309D02*
X144787676Y-31911071D01*
X144787676Y-31911071D02*
X144882914Y-31815833D01*
X144882914Y-31815833D02*
X144930533Y-31720595D01*
X145644819Y-33244404D02*
X145644819Y-32672976D01*
X145644819Y-32958690D02*
X144644819Y-32958690D01*
X144644819Y-32958690D02*
X144787676Y-32863452D01*
X144787676Y-32863452D02*
X144882914Y-32768214D01*
X144882914Y-32768214D02*
X144930533Y-32672976D01*
X140501666Y-68299819D02*
X140834999Y-67823628D01*
X141073094Y-68299819D02*
X141073094Y-67299819D01*
X141073094Y-67299819D02*
X140692142Y-67299819D01*
X140692142Y-67299819D02*
X140596904Y-67347438D01*
X140596904Y-67347438D02*
X140549285Y-67395057D01*
X140549285Y-67395057D02*
X140501666Y-67490295D01*
X140501666Y-67490295D02*
X140501666Y-67633152D01*
X140501666Y-67633152D02*
X140549285Y-67728390D01*
X140549285Y-67728390D02*
X140596904Y-67776009D01*
X140596904Y-67776009D02*
X140692142Y-67823628D01*
X140692142Y-67823628D02*
X141073094Y-67823628D01*
X140168332Y-67299819D02*
X139549285Y-67299819D01*
X139549285Y-67299819D02*
X139882618Y-67680771D01*
X139882618Y-67680771D02*
X139739761Y-67680771D01*
X139739761Y-67680771D02*
X139644523Y-67728390D01*
X139644523Y-67728390D02*
X139596904Y-67776009D01*
X139596904Y-67776009D02*
X139549285Y-67871247D01*
X139549285Y-67871247D02*
X139549285Y-68109342D01*
X139549285Y-68109342D02*
X139596904Y-68204580D01*
X139596904Y-68204580D02*
X139644523Y-68252200D01*
X139644523Y-68252200D02*
X139739761Y-68299819D01*
X139739761Y-68299819D02*
X140025475Y-68299819D01*
X140025475Y-68299819D02*
X140120713Y-68252200D01*
X140120713Y-68252200D02*
X140168332Y-68204580D01*
X143009580Y-31339642D02*
X143057200Y-31292023D01*
X143057200Y-31292023D02*
X143104819Y-31149166D01*
X143104819Y-31149166D02*
X143104819Y-31053928D01*
X143104819Y-31053928D02*
X143057200Y-30911071D01*
X143057200Y-30911071D02*
X142961961Y-30815833D01*
X142961961Y-30815833D02*
X142866723Y-30768214D01*
X142866723Y-30768214D02*
X142676247Y-30720595D01*
X142676247Y-30720595D02*
X142533390Y-30720595D01*
X142533390Y-30720595D02*
X142342914Y-30768214D01*
X142342914Y-30768214D02*
X142247676Y-30815833D01*
X142247676Y-30815833D02*
X142152438Y-30911071D01*
X142152438Y-30911071D02*
X142104819Y-31053928D01*
X142104819Y-31053928D02*
X142104819Y-31149166D01*
X142104819Y-31149166D02*
X142152438Y-31292023D01*
X142152438Y-31292023D02*
X142200057Y-31339642D01*
X143104819Y-32292023D02*
X143104819Y-31720595D01*
X143104819Y-32006309D02*
X142104819Y-32006309D01*
X142104819Y-32006309D02*
X142247676Y-31911071D01*
X142247676Y-31911071D02*
X142342914Y-31815833D01*
X142342914Y-31815833D02*
X142390533Y-31720595D01*
X142104819Y-32911071D02*
X142104819Y-33006309D01*
X142104819Y-33006309D02*
X142152438Y-33101547D01*
X142152438Y-33101547D02*
X142200057Y-33149166D01*
X142200057Y-33149166D02*
X142295295Y-33196785D01*
X142295295Y-33196785D02*
X142485771Y-33244404D01*
X142485771Y-33244404D02*
X142723866Y-33244404D01*
X142723866Y-33244404D02*
X142914342Y-33196785D01*
X142914342Y-33196785D02*
X143009580Y-33149166D01*
X143009580Y-33149166D02*
X143057200Y-33101547D01*
X143057200Y-33101547D02*
X143104819Y-33006309D01*
X143104819Y-33006309D02*
X143104819Y-32911071D01*
X143104819Y-32911071D02*
X143057200Y-32815833D01*
X143057200Y-32815833D02*
X143009580Y-32768214D01*
X143009580Y-32768214D02*
X142914342Y-32720595D01*
X142914342Y-32720595D02*
X142723866Y-32672976D01*
X142723866Y-32672976D02*
X142485771Y-32672976D01*
X142485771Y-32672976D02*
X142295295Y-32720595D01*
X142295295Y-32720595D02*
X142200057Y-32768214D01*
X142200057Y-32768214D02*
X142152438Y-32815833D01*
X142152438Y-32815833D02*
X142104819Y-32911071D01*
X165571904Y-36824819D02*
X165571904Y-37634342D01*
X165571904Y-37634342D02*
X165524285Y-37729580D01*
X165524285Y-37729580D02*
X165476666Y-37777200D01*
X165476666Y-37777200D02*
X165381428Y-37824819D01*
X165381428Y-37824819D02*
X165190952Y-37824819D01*
X165190952Y-37824819D02*
X165095714Y-37777200D01*
X165095714Y-37777200D02*
X165048095Y-37729580D01*
X165048095Y-37729580D02*
X165000476Y-37634342D01*
X165000476Y-37634342D02*
X165000476Y-36824819D01*
X164000476Y-37824819D02*
X164571904Y-37824819D01*
X164286190Y-37824819D02*
X164286190Y-36824819D01*
X164286190Y-36824819D02*
X164381428Y-36967676D01*
X164381428Y-36967676D02*
X164476666Y-37062914D01*
X164476666Y-37062914D02*
X164571904Y-37110533D01*
X135318332Y-36162200D02*
X135175475Y-36209819D01*
X135175475Y-36209819D02*
X134937380Y-36209819D01*
X134937380Y-36209819D02*
X134842142Y-36162200D01*
X134842142Y-36162200D02*
X134794523Y-36114580D01*
X134794523Y-36114580D02*
X134746904Y-36019342D01*
X134746904Y-36019342D02*
X134746904Y-35924104D01*
X134746904Y-35924104D02*
X134794523Y-35828866D01*
X134794523Y-35828866D02*
X134842142Y-35781247D01*
X134842142Y-35781247D02*
X134937380Y-35733628D01*
X134937380Y-35733628D02*
X135127856Y-35686009D01*
X135127856Y-35686009D02*
X135223094Y-35638390D01*
X135223094Y-35638390D02*
X135270713Y-35590771D01*
X135270713Y-35590771D02*
X135318332Y-35495533D01*
X135318332Y-35495533D02*
X135318332Y-35400295D01*
X135318332Y-35400295D02*
X135270713Y-35305057D01*
X135270713Y-35305057D02*
X135223094Y-35257438D01*
X135223094Y-35257438D02*
X135127856Y-35209819D01*
X135127856Y-35209819D02*
X134889761Y-35209819D01*
X134889761Y-35209819D02*
X134746904Y-35257438D01*
X134413570Y-35209819D02*
X134175475Y-36209819D01*
X134175475Y-36209819D02*
X133984999Y-35495533D01*
X133984999Y-35495533D02*
X133794523Y-36209819D01*
X133794523Y-36209819D02*
X133556428Y-35209819D01*
X133223094Y-35305057D02*
X133175475Y-35257438D01*
X133175475Y-35257438D02*
X133080237Y-35209819D01*
X133080237Y-35209819D02*
X132842142Y-35209819D01*
X132842142Y-35209819D02*
X132746904Y-35257438D01*
X132746904Y-35257438D02*
X132699285Y-35305057D01*
X132699285Y-35305057D02*
X132651666Y-35400295D01*
X132651666Y-35400295D02*
X132651666Y-35495533D01*
X132651666Y-35495533D02*
X132699285Y-35638390D01*
X132699285Y-35638390D02*
X133270713Y-36209819D01*
X133270713Y-36209819D02*
X132651666Y-36209819D01*
X156620238Y-45290057D02*
X156715476Y-45242438D01*
X156715476Y-45242438D02*
X156810714Y-45147200D01*
X156810714Y-45147200D02*
X156953571Y-45004342D01*
X156953571Y-45004342D02*
X157048809Y-44956723D01*
X157048809Y-44956723D02*
X157144047Y-44956723D01*
X157096428Y-45194819D02*
X157191666Y-45147200D01*
X157191666Y-45147200D02*
X157286904Y-45051961D01*
X157286904Y-45051961D02*
X157334523Y-44861485D01*
X157334523Y-44861485D02*
X157334523Y-44528152D01*
X157334523Y-44528152D02*
X157286904Y-44337676D01*
X157286904Y-44337676D02*
X157191666Y-44242438D01*
X157191666Y-44242438D02*
X157096428Y-44194819D01*
X157096428Y-44194819D02*
X156905952Y-44194819D01*
X156905952Y-44194819D02*
X156810714Y-44242438D01*
X156810714Y-44242438D02*
X156715476Y-44337676D01*
X156715476Y-44337676D02*
X156667857Y-44528152D01*
X156667857Y-44528152D02*
X156667857Y-44861485D01*
X156667857Y-44861485D02*
X156715476Y-45051961D01*
X156715476Y-45051961D02*
X156810714Y-45147200D01*
X156810714Y-45147200D02*
X156905952Y-45194819D01*
X156905952Y-45194819D02*
X157096428Y-45194819D01*
X155715476Y-45194819D02*
X156286904Y-45194819D01*
X156001190Y-45194819D02*
X156001190Y-44194819D01*
X156001190Y-44194819D02*
X156096428Y-44337676D01*
X156096428Y-44337676D02*
X156191666Y-44432914D01*
X156191666Y-44432914D02*
X156286904Y-44480533D01*
D11*
%TO.C,U4*%
X145680000Y-50045000D02*
X145680000Y-50825000D01*
X145680000Y-69625000D02*
X145680000Y-75785000D01*
X146680000Y-50045000D02*
X145680000Y-50045000D01*
X162920000Y-50045000D02*
X163920000Y-50045000D01*
X163920000Y-50045000D02*
X163920000Y-50825000D01*
X163920000Y-69370000D02*
X163920000Y-75785000D01*
X163920000Y-75785000D02*
X145680000Y-75785000D01*
X145675000Y-69400000D02*
X145175000Y-68900000D01*
X145675000Y-68900000D01*
X145675000Y-69400000D01*
G36*
X145675000Y-69400000D02*
G01*
X145175000Y-68900000D01*
X145675000Y-68900000D01*
X145675000Y-69400000D01*
G37*
%TO.C,R15*%
X151559879Y-47245000D02*
X151895121Y-47245000D01*
X151559879Y-48005000D02*
X151895121Y-48005000D01*
%TO.C,U3*%
X152797500Y-37260000D02*
X153272500Y-37260000D01*
X152797500Y-37735000D02*
X152797500Y-37260000D01*
X152797500Y-41005000D02*
X152797500Y-41480000D01*
X152797500Y-41480000D02*
X153272500Y-41480000D01*
X156717500Y-37260000D02*
X156542500Y-37260000D01*
X157017500Y-37500000D02*
X157017500Y-37735000D01*
X157017500Y-41005000D02*
X157017500Y-41480000D01*
X157017500Y-41480000D02*
X156542500Y-41480000D01*
X157017500Y-37260000D02*
X156777500Y-36930000D01*
X157257500Y-36930000D01*
X157017500Y-37260000D01*
G36*
X157017500Y-37260000D02*
G01*
X156777500Y-36930000D01*
X157257500Y-36930000D01*
X157017500Y-37260000D01*
G37*
%TO.C,C4*%
X180837500Y-46457500D02*
X180837500Y-47082500D01*
X181150000Y-46770000D02*
X180525000Y-46770000D01*
X181390000Y-44025000D02*
X181390000Y-43389437D01*
X181390000Y-46145000D02*
X181390000Y-46780563D01*
X182454437Y-42325000D02*
X181390000Y-43389437D01*
X182454437Y-47845000D02*
X181390000Y-46780563D01*
X186910000Y-42325000D02*
X182454437Y-42325000D01*
X186910000Y-44025000D02*
X186910000Y-42325000D01*
X186910000Y-46145000D02*
X186910000Y-47845000D01*
X186910000Y-47845000D02*
X182454437Y-47845000D01*
%TO.C,R8*%
X143130000Y-52200121D02*
X143130000Y-51864879D01*
X143890000Y-52200121D02*
X143890000Y-51864879D01*
%TO.C,R13*%
X152269879Y-35815000D02*
X152605121Y-35815000D01*
X152269879Y-36575000D02*
X152605121Y-36575000D01*
%TO.C,R12*%
X165604879Y-64390000D02*
X165940121Y-64390000D01*
X165604879Y-65150000D02*
X165940121Y-65150000D01*
%TO.C,R1*%
X148384879Y-35815000D02*
X148720121Y-35815000D01*
X148384879Y-36575000D02*
X148720121Y-36575000D01*
%TO.C,U2*%
X142870000Y-37230000D02*
X146630000Y-37230000D01*
X142870000Y-38490000D02*
X142870000Y-37230000D01*
X142870000Y-42790000D02*
X142870000Y-44050000D01*
X142870000Y-44050000D02*
X146630000Y-44050000D01*
X147910000Y-37330000D02*
X147670000Y-37000000D01*
X148150000Y-37000000D01*
X147910000Y-37330000D01*
G36*
X147910000Y-37330000D02*
G01*
X147670000Y-37000000D01*
X148150000Y-37000000D01*
X147910000Y-37330000D01*
G37*
%TO.C,C9*%
X151649165Y-48535000D02*
X151880835Y-48535000D01*
X151649165Y-49255000D02*
X151880835Y-49255000D01*
%TO.C,C1*%
X132495000Y-44865000D02*
X136950563Y-44865000D01*
X132495000Y-46565000D02*
X132495000Y-44865000D01*
X132495000Y-48685000D02*
X132495000Y-50385000D01*
X132495000Y-50385000D02*
X136950563Y-50385000D01*
X136950563Y-44865000D02*
X138015000Y-45929437D01*
X136950563Y-50385000D02*
X138015000Y-49320563D01*
X138015000Y-46565000D02*
X138015000Y-45929437D01*
X138015000Y-48685000D02*
X138015000Y-49320563D01*
X138255000Y-45940000D02*
X138880000Y-45940000D01*
X138567500Y-46252500D02*
X138567500Y-45627500D01*
%TO.C,FB1*%
X164928733Y-43305000D02*
X165271267Y-43305000D01*
X164928733Y-44325000D02*
X165271267Y-44325000D01*
%TO.C,C4*%
X145315000Y-31721248D02*
X145315000Y-32243752D01*
X146785000Y-31721248D02*
X146785000Y-32243752D01*
%TO.C,C12*%
X150135000Y-39254165D02*
X150135000Y-39485835D01*
X150855000Y-39254165D02*
X150855000Y-39485835D01*
%TO.C,R10*%
X161757379Y-28830000D02*
X162092621Y-28830000D01*
X161757379Y-29590000D02*
X162092621Y-29590000D01*
%TO.C,D2*%
X164540000Y-29945000D02*
X167000000Y-29945000D01*
X167000000Y-28475000D02*
X164540000Y-28475000D01*
X167000000Y-29945000D02*
X167000000Y-28475000D01*
%TO.C,J1*%
X148300000Y-25945000D02*
X148300000Y-27845000D01*
X148300000Y-29745000D02*
X148300000Y-31745000D01*
X157700000Y-25945000D02*
X148300000Y-25945000D01*
X157700000Y-25945000D02*
X157700000Y-27845000D01*
X157700000Y-29745000D02*
X157700000Y-31745000D01*
%TO.C,C8*%
X159660000Y-42660835D02*
X159660000Y-42429165D01*
X160380000Y-42660835D02*
X160380000Y-42429165D01*
%TO.C,R6*%
X178690000Y-51902379D02*
X178690000Y-52237621D01*
X179450000Y-51902379D02*
X179450000Y-52237621D01*
%TO.C,F1*%
X160687936Y-44810000D02*
X161892064Y-44810000D01*
X160687936Y-46630000D02*
X161892064Y-46630000D01*
%TO.C,R7*%
X147787379Y-47880000D02*
X148122621Y-47880000D01*
X147787379Y-48640000D02*
X148122621Y-48640000D01*
%TO.C,C3*%
X147595000Y-46470835D02*
X147595000Y-46239165D01*
X148315000Y-46470835D02*
X148315000Y-46239165D01*
%TO.C,C6*%
X152773748Y-42445000D02*
X153296252Y-42445000D01*
X152773748Y-43915000D02*
X153296252Y-43915000D01*
%TO.C,C1*%
X144286248Y-44985000D02*
X144808752Y-44985000D01*
X144286248Y-46455000D02*
X144808752Y-46455000D01*
%TO.C,C5*%
X140235000Y-49558752D02*
X140235000Y-49036248D01*
X141705000Y-49558752D02*
X141705000Y-49036248D01*
%TO.C,R16*%
X165940121Y-61850000D02*
X165604879Y-61850000D01*
X165940121Y-62610000D02*
X165604879Y-62610000D01*
%TO.C,U1*%
X123635000Y-45135000D02*
X124110000Y-45135000D01*
X123635000Y-45610000D02*
X123635000Y-45135000D01*
X123635000Y-50115000D02*
X123635000Y-49880000D01*
X123935000Y-50355000D02*
X124110000Y-50355000D01*
X128855000Y-45135000D02*
X128380000Y-45135000D01*
X128855000Y-45610000D02*
X128855000Y-45135000D01*
X128855000Y-49880000D02*
X128855000Y-50355000D01*
X128855000Y-50355000D02*
X128380000Y-50355000D01*
X123875000Y-50685000D02*
X123395000Y-50685000D01*
X123635000Y-50355000D01*
X123875000Y-50685000D01*
G36*
X123875000Y-50685000D02*
G01*
X123395000Y-50685000D01*
X123635000Y-50355000D01*
X123875000Y-50685000D01*
G37*
%TO.C,R2*%
X158955121Y-35815000D02*
X158619879Y-35815000D01*
X158955121Y-36575000D02*
X158619879Y-36575000D01*
%TO.C,C2*%
X163095000Y-35298748D02*
X163095000Y-35821252D01*
X164565000Y-35298748D02*
X164565000Y-35821252D01*
%TO.C,R14*%
X165940121Y-65660000D02*
X165604879Y-65660000D01*
X165940121Y-66420000D02*
X165604879Y-66420000D01*
%TO.C,R11*%
X156714879Y-42800000D02*
X157050121Y-42800000D01*
X156714879Y-43560000D02*
X157050121Y-43560000D01*
%TO.C,C7*%
X159285000Y-39108748D02*
X159285000Y-39631252D01*
X160755000Y-39108748D02*
X160755000Y-39631252D01*
%TO.C,C11*%
X142775000Y-31721248D02*
X142775000Y-32243752D01*
X144245000Y-31721248D02*
X144245000Y-32243752D01*
%TO.C,R3*%
X140502621Y-66295000D02*
X140167379Y-66295000D01*
X140502621Y-67055000D02*
X140167379Y-67055000D01*
%TO.C,C10*%
X140235000Y-31721248D02*
X140235000Y-32243752D01*
X141705000Y-31721248D02*
X141705000Y-32243752D01*
%TO.C,U1*%
X165210000Y-38380000D02*
X164160000Y-38380000D01*
X165460000Y-40360000D02*
X164160000Y-40360000D01*
X165860000Y-38380000D02*
X165580000Y-38380000D01*
X165580000Y-38100000D01*
X165860000Y-38380000D01*
G36*
X165860000Y-38380000D02*
G01*
X165580000Y-38380000D01*
X165580000Y-38100000D01*
X165860000Y-38380000D01*
G37*
%TO.C,SW2*%
X130485000Y-39255000D02*
X130485000Y-40755000D01*
X131735000Y-43255000D02*
X136235000Y-43255000D01*
X136235000Y-36755000D02*
X131735000Y-36755000D01*
X137485000Y-40755000D02*
X137485000Y-39255000D01*
%TO.C,Q1*%
X155825000Y-45830000D02*
X157235000Y-45830000D01*
X155825000Y-48150000D02*
X157225000Y-48150000D01*
X157605000Y-45880000D02*
X157365000Y-45550000D01*
X157845000Y-45550000D01*
X157605000Y-45880000D01*
G36*
X157605000Y-45880000D02*
G01*
X157365000Y-45550000D01*
X157845000Y-45550000D01*
X157605000Y-45880000D01*
G37*
%TD*%
M02*
