M48
; DRILL file {KiCad 8.0.4} date 2024-12-06T19:36:26+0100
; FORMAT={-:-/ absolute / inch / decimal}
; #@! TF.CreationDate,2024-12-06T19:36:26+01:00
; #@! TF.GenerationSoftware,Kicad,Pcbnew,8.0.4
; #@! TF.FileFunction,Plated,1,2,PTH
FMAT,2
INCH
; #@! TA.AperFunction,Plated,PTH,ComponentDrill
T1C0.0079
; #@! TA.AperFunction,Plated,PTH,ViaDrill
T2C0.0157
; #@! TA.AperFunction,Plated,PTH,ComponentDrill
T3C0.0236
; #@! TA.AperFunction,Plated,PTH,ComponentDrill
T4C0.0394
; #@! TA.AperFunction,Plated,PTH,ComponentDrill
T5C0.0433
; #@! TA.AperFunction,Plated,PTH,ComponentDrill
T6C0.0591
%
G90
G05
T1
X5.9803Y-2.3526
X5.9803Y-2.4077
X6.0079Y-2.325
X6.0079Y-2.3801
X6.0079Y-2.4352
X6.0344Y-2.3526
X6.0344Y-2.4077
X6.063Y-2.325
X6.063Y-2.3801
X6.063Y-2.4352
X6.0906Y-2.3526
X6.0906Y-2.4077
T2
X5.675Y-1.975
X5.675Y-2.15
X5.675Y-2.2
X5.675Y-2.3
X5.675Y-2.525
X5.675Y-2.575
X5.7035Y-1.925
X5.775Y-1.55
X5.775Y-1.75
X5.8Y-1.9276
X5.8649Y-1.8356
X5.8971Y-1.8582
X5.9Y-1.6
X5.9144Y-1.9276
X5.9197Y-1.775
X5.9322Y-1.4322
X6.0Y-1.2065
X6.0Y-1.25
X6.05Y-1.925
X6.0533Y-1.8104
X6.075Y-1.275
X6.075Y-1.4
X6.0994Y-1.8241
X6.2035Y-1.4562
X6.225Y-1.65
X6.2322Y-1.7369
X6.275Y-1.925
X6.3Y-1.2
X6.3049Y-1.4624
X6.325Y-1.35
X6.3632Y-1.5879
X6.375Y-1.5
X6.4Y-1.4
X6.4134Y-1.598
X6.4419Y-1.6465
X6.45Y-1.925
X6.4715Y-1.675
X6.525Y-2.5
X6.525Y-2.65
X6.525Y-2.7
X6.55Y-1.825
X6.55Y-1.875
X6.575Y-1.5
X6.6Y-1.975
X6.6Y-2.05
X6.6Y-2.55
X7.175Y-2.575
T4
X5.15Y-1.175
X5.25Y-1.175
X5.35Y-1.175
X5.45Y-1.175
X6.6929Y-1.3031
X6.6929Y-1.4016
X6.6929Y-1.5
X7.2638Y-1.3031
X7.2638Y-1.5
T5
X5.1181Y-2.4016
X5.1181Y-2.5787
X5.147Y-1.4864
X5.147Y-1.6636
X5.374Y-2.4016
X5.374Y-2.5787
X5.403Y-1.4864
X5.403Y-1.6636
X5.9055Y-2.4016
X5.9055Y-2.5787
X6.1614Y-2.4016
X6.1614Y-2.5787
X6.6929Y-1.9114
X6.6929Y-2.0886
X6.6929Y-2.4016
X6.6929Y-2.5787
X6.9488Y-1.9114
X6.9488Y-2.0886
X6.9488Y-2.4016
X6.9488Y-2.5787
T3
G00X5.8535Y-1.1219
M15
G01X5.8535Y-1.1455
M16
G05
G00X5.8535Y-1.2766
M15
G01X5.8535Y-1.3199
M16
G05
G00X6.1937Y-1.1219
M15
G01X6.1937Y-1.1455
M16
G05
G00X6.1937Y-1.2766
M15
G01X6.1937Y-1.3199
M16
G05
T6
G00X6.9626Y-1.1811
M15
G01X7.0138Y-1.1811
M16
G05
G00X6.9626Y-1.622
M15
G01X7.0138Y-1.622
M16
G05
M30
